<svg width="10" height="18" viewBox="0 0 10 18" fill="none" xmlns="http://www.w3.org/2000/svg">
<path d="M3.482 2.17495L9.49986 8.47495C9.57129 8.54995 9.62177 8.6312 9.65129 8.7187C9.68129 8.8062 9.69629 8.89995 9.69629 8.99995C9.69629 9.09995 9.68129 9.1937 9.65129 9.2812C9.62177 9.3687 9.57129 9.44995 9.49986 9.52495L3.482 15.8437C3.31534 16.0187 3.107 16.1062 2.857 16.1062C2.607 16.1062 2.39272 16.0125 2.21415 15.825C2.03557 15.6375 1.94629 15.4187 1.94629 15.1687C1.94629 14.9187 2.03557 14.7 2.21415 14.5125L7.46415 8.99995L2.21415 3.48745C2.04748 3.31245 1.96415 3.09695 1.96415 2.84095C1.96415 2.58445 2.05343 2.36245 2.232 2.17495C2.41057 1.98745 2.61891 1.8937 2.857 1.8937C3.0951 1.8937 3.30343 1.98745 3.482 2.17495Z" fill="currentColor"/>
</svg>
