<svg width="80" height="80" viewBox="0 0 80 80" fill="none" xmlns="http://www.w3.org/2000/svg">
<path d="M40 6C33.6348 6 27.5303 8.50749 23.0294 12.9709C18.5286 17.4342 16 23.4878 16 29.8C16 47.65 40 74 40 74C40 74 64 47.65 64 29.8C64 23.4878 61.4714 17.4342 56.9706 12.9709C52.4697 8.50749 46.3652 6 40 6Z" fill="#C0004A"/>
<path fill-rule="evenodd" clip-rule="evenodd" d="M37.7259 38.5132C38.9826 37.2638 41.0121 37.2638 42.2672 38.5132C43.5226 39.7699 43.5226 41.8039 42.2672 43.056C41.0121 44.3127 38.9826 44.3127 37.7259 43.056C36.4794 41.8039 36.4794 39.7699 37.7259 38.5132Z" fill="white"/>
<path fill-rule="evenodd" clip-rule="evenodd" d="M43.1235 33.1218C41.8729 34.3756 41.8729 36.4051 43.1235 37.6618C44.379 38.9168 46.4097 38.9168 47.6635 37.6618C48.9174 36.4051 48.9174 34.3756 47.6635 33.1218C46.4097 31.8696 44.379 31.8696 43.1235 33.1218Z" fill="white"/>
<path fill-rule="evenodd" clip-rule="evenodd" d="M48.5228 27.7263C47.2632 28.9797 47.2632 31.0181 48.5228 32.2687C49.7738 33.5226 51.8078 33.5226 53.0628 32.2687C54.3134 31.0181 54.3134 28.9797 53.0628 27.7263C51.8078 26.4741 49.7738 26.4741 48.5228 27.7263Z" fill="white"/>
<path fill-rule="evenodd" clip-rule="evenodd" d="M32.3337 33.1218C31.0815 34.3756 31.0815 36.4124 32.3337 37.6618C33.5916 38.9168 35.6256 38.9168 36.8795 37.6618C38.1288 36.4124 38.1288 34.3756 36.8795 33.1218C35.6256 31.8696 33.5916 31.8696 32.3337 33.1218Z" fill="white"/>
<path fill-rule="evenodd" clip-rule="evenodd" d="M26.9422 27.7263C25.6859 28.9842 25.6859 31.0181 26.9422 32.2687C28.1961 33.5226 30.2284 33.5226 31.4835 32.2687C32.7361 31.0181 32.7361 28.9842 31.4835 27.7263C30.2284 26.4741 28.1961 26.4741 26.9422 27.7263Z" fill="white"/>
<path fill-rule="evenodd" clip-rule="evenodd" d="M37.7259 27.7263C36.4794 28.9797 36.4794 31.0181 37.7259 32.2687C38.9826 33.5226 41.0121 33.5226 42.2729 32.2687C43.5226 31.0181 43.5226 28.9797 42.2729 27.7263C41.0121 26.4741 38.9826 26.4741 37.7259 27.7263Z" fill="white"/>
<path fill-rule="evenodd" clip-rule="evenodd" d="M32.3337 22.3339C31.0815 23.5931 31.0815 25.6258 32.3337 26.8752C33.5916 28.1286 35.6256 28.1286 36.8795 26.8752C38.1288 25.6258 38.1288 23.5931 36.8795 22.3339C35.6256 21.0801 33.5916 21.0801 32.3337 22.3339Z" fill="white"/>
<path fill-rule="evenodd" clip-rule="evenodd" d="M43.1235 22.3339C41.8729 23.5931 41.8729 25.6258 43.1235 26.8752C44.379 28.1286 46.4097 28.1286 47.6635 26.8752C48.9174 25.6258 48.9174 23.5931 47.6635 22.3339C46.4097 21.0801 44.379 21.0801 43.1235 22.3339Z" fill="white"/>
<path fill-rule="evenodd" clip-rule="evenodd" d="M37.7259 16.9425C38.9826 15.6858 41.0121 15.6858 42.2729 16.9425C43.5226 18.1947 43.5226 20.2242 42.2729 21.4797C41.0121 22.7302 38.9826 22.7302 37.7259 21.4797C36.4794 20.2242 36.4794 18.1947 37.7259 16.9425Z" fill="#ABCE37"/>
</svg>
