<svg width="28" height="28" viewBox="0 0 28 28" fill="none" xmlns="http://www.w3.org/2000/svg">
<path fill-rule="evenodd" clip-rule="evenodd" d="M7.39993 2.99805C4.96992 2.99805 3 4.96796 3 7.39798V20.5981C3 23.0281 4.96991 24.998 7.39993 24.998H20.5994C23.0294 24.998 24.9993 23.0281 24.9993 20.5981V7.39798C24.9993 4.96796 23.0294 2.99805 20.5994 2.99805H7.39993ZM14.9997 8.49866C14.9997 7.94638 14.552 7.49866 13.9997 7.49866C13.4474 7.49866 12.9997 7.94638 12.9997 8.49866L12.9997 19.4987C12.9997 20.0509 13.4474 20.4987 13.9997 20.4987C14.552 20.4987 14.9997 20.0509 14.9997 19.4987L14.9997 8.49866ZM8.49975 15.198C9.05203 15.198 9.49975 15.6458 9.49975 16.198V19.498C9.49975 20.0503 9.05204 20.498 8.49975 20.498C7.94747 20.498 7.49975 20.0503 7.49975 19.498V16.198C7.49975 15.6458 7.94747 15.198 8.49975 15.198ZM20.4995 11.7987C20.4995 11.2464 20.0518 10.7987 19.4995 10.7987C18.9472 10.7987 18.4995 11.2464 18.4995 11.7987V19.4987C18.4995 20.0509 18.9472 20.4987 19.4995 20.4987C20.0518 20.4987 20.4995 20.0509 20.4995 19.4987V11.7987Z" fill="currentColor"/>
</svg>
