<svg width="172" height="174" viewBox="0 0 172 174" fill="none" xmlns="http://www.w3.org/2000/svg">
<path d="M0 20C0 8.95431 8.9543 0 20 0H52.8301V145.097H20C8.95432 145.097 0 136.142 0 125.097V20Z" fill="#9DB4FF"/>
<path d="M52.8301 72.1764H144.353V20C144.353 8.95435 135.398 4.57764e-05 124.353 4.57764e-05H52.8301V72.1764Z" fill="#CAD6FF"/>
<rect x="1" y="1" width="143.097" height="143.097" rx="19" stroke="#24366E" stroke-width="2"/>
<line x1="53.0859" y1="-4.37114e-08" x2="53.0859" y2="143.609" stroke="#24366E" stroke-width="2"/>
<line x1="145.097" y1="73.1764" x2="52.0859" y2="73.1764" stroke="#24366E" stroke-width="2"/>
<path d="M97.2841 166.6C103.046 173 112.322 173 130.866 173C149.414 173 158.686 173 164.448 166.596C170.21 160.2 170.21 149.892 170.21 129.285C170.21 108.678 170.21 98.3741 164.448 91.9698C158.686 85.5699 149.41 85.5699 130.866 85.5699C112.318 85.5699 103.046 85.5699 97.2841 91.9698C91.5225 98.3785 91.5225 108.678 91.5225 129.285C91.5225 149.892 91.5225 160.2 97.2841 166.6Z" fill="#CAD6FF" stroke="#24366E" stroke-width="2"/>
<path d="M109.009 111.799C109.009 109.766 109.009 108.752 109.231 107.917C109.53 106.806 110.115 105.793 110.928 104.98C111.741 104.167 112.754 103.581 113.865 103.283C114.709 103.056 115.723 103.056 117.752 103.056H143.981C146.013 103.056 147.028 103.056 147.862 103.279C148.973 103.577 149.986 104.162 150.8 104.976C151.613 105.789 152.198 106.802 152.496 107.913C152.724 108.756 152.724 109.771 152.724 111.799C152.724 113.827 152.724 114.846 152.501 115.681C152.203 116.792 151.617 117.805 150.804 118.618C149.991 119.432 148.978 120.017 147.867 120.315C147.028 120.542 146.009 120.542 143.981 120.542H117.752C115.719 120.542 114.705 120.542 113.87 120.319C112.759 120.021 111.746 119.436 110.932 118.623C110.119 117.809 109.534 116.796 109.236 115.685C109.009 114.842 109.009 113.827 109.009 111.799Z" fill="#9DB4FF" stroke="#24366E" stroke-width="2"/>
<path d="M116.752 133.657C116.752 135.519 115.242 137.028 113.38 137.028C111.518 137.028 110.009 135.519 110.009 133.657C110.009 131.795 111.518 130.285 113.38 130.285C115.242 130.285 116.752 131.795 116.752 133.657Z" fill="#E1E8FF" stroke="#24366E" stroke-width="2"/>
<path d="M116.752 151.143C116.752 153.005 115.242 154.514 113.38 154.514C111.518 154.514 110.009 153.005 110.009 151.143C110.009 149.28 111.518 147.771 113.38 147.771C115.242 147.771 116.752 149.28 116.752 151.143Z" fill="#E1E8FF" stroke="#24366E" stroke-width="2"/>
<path d="M134.238 133.657C134.238 135.519 132.728 137.028 130.866 137.028C129.004 137.028 127.495 135.519 127.495 133.657C127.495 131.795 129.004 130.285 130.866 130.285C132.728 130.285 134.238 131.795 134.238 133.657Z" fill="#E1E8FF" stroke="#24366E" stroke-width="2"/>
<path d="M134.238 151.143C134.238 153.005 132.728 154.514 130.866 154.514C129.004 154.514 127.495 153.005 127.495 151.143C127.495 149.28 129.004 147.771 130.866 147.771C132.728 147.771 134.238 149.28 134.238 151.143Z" fill="#E1E8FF" stroke="#24366E" stroke-width="2"/>
<path d="M151.723 133.657C151.723 135.519 150.214 137.028 148.352 137.028C146.49 137.028 144.98 135.519 144.98 133.657C144.98 131.795 146.49 130.285 148.352 130.285C150.214 130.285 151.723 131.795 151.723 133.657Z" fill="#E1E8FF" stroke="#24366E" stroke-width="2"/>
<path d="M151.723 151.143C151.723 153.005 150.214 154.514 148.352 154.514C146.49 154.514 144.98 153.005 144.98 151.143C144.98 149.28 146.49 147.771 148.352 147.771C150.214 147.771 151.723 149.28 151.723 151.143Z" fill="#E1E8FF" stroke="#24366E" stroke-width="2"/>
</svg>
