<svg width="20" height="20" viewBox="0 0 20 20" fill="none" xmlns="http://www.w3.org/2000/svg">
<g clip-path="url(#clip0_2694_220936)">
<path fill-rule="evenodd" clip-rule="evenodd" d="M5.71418 2.33871C5.71418 1.44214 6.44099 0.715332 7.33756 0.715332H12.6622C13.5588 0.715332 14.2856 1.44214 14.2856 2.33871V4.28676H12.857V2.33871C12.857 2.23112 12.7698 2.1439 12.6622 2.1439H7.33756C7.22997 2.1439 7.14275 2.23112 7.14275 2.33871V4.28676H5.71418V2.33871ZM0.909091 4.28704C0.407014 4.28704 0 4.69405 0 5.19613V9.09223C0 9.59431 0.407013 10.0013 0.90909 10.0013H7.85721V9.48031C7.85721 8.97823 8.26422 8.57122 8.7663 8.57122H11.2338C11.7359 8.57122 12.1429 8.97823 12.1429 9.48031V10.0013H19.0909C19.593 10.0013 20 9.59431 20 9.09223V5.19613C20 4.69405 19.593 4.28704 19.0909 4.28704H0.909091ZM7.85721 11.4301V11.9478C7.85721 12.4499 8.26422 12.8569 8.7663 12.8569H11.2338C11.7359 12.8569 12.1429 12.4499 12.1429 11.9478V11.4301H19.0909C19.5262 11.4301 19.8901 11.1242 19.9791 10.7155C19.9928 10.7782 20 10.8433 20 10.91V18.3775C20 18.8796 19.593 19.2866 19.0909 19.2866H0.90909C0.407013 19.2866 0 18.8796 0 18.3775V10.91C0 10.8433 0.00719449 10.7782 0.0208504 10.7155C0.109907 11.1242 0.473765 11.4301 0.90909 11.4301H7.85721Z" fill="currentColor"/>
</g>
<defs>
<clipPath id="clip0_2694_220936">
<rect width="20" height="20" fill="white"/>
</clipPath>
</defs>
</svg>
