<svg width="12" height="3" viewBox="0 0 12 3" fill="none" xmlns="http://www.w3.org/2000/svg">
<path d="M1.20455 2.09091C0.924242 2.09091 0.683712 1.99053 0.482955 1.78977C0.282197 1.58902 0.181818 1.34848 0.181818 1.06818C0.181818 0.787879 0.282197 0.547348 0.482955 0.346591C0.683712 0.145833 0.924242 0.0454545 1.20455 0.0454545C1.48485 0.0454545 1.72538 0.145833 1.92614 0.346591C2.12689 0.547348 2.22727 0.787879 2.22727 1.06818C2.22727 1.25379 2.17992 1.42424 2.08523 1.57955C1.99432 1.73485 1.87121 1.85985 1.71591 1.95455C1.56439 2.04545 1.39394 2.09091 1.20455 2.09091ZM5.6108 2.09091C5.33049 2.09091 5.08996 1.99053 4.8892 1.78977C4.68845 1.58902 4.58807 1.34848 4.58807 1.06818C4.58807 0.787879 4.68845 0.547348 4.8892 0.346591C5.08996 0.145833 5.33049 0.0454545 5.6108 0.0454545C5.8911 0.0454545 6.13163 0.145833 6.33239 0.346591C6.53314 0.547348 6.63352 0.787879 6.63352 1.06818C6.63352 1.25379 6.58617 1.42424 6.49148 1.57955C6.40057 1.73485 6.27746 1.85985 6.12216 1.95455C5.97064 2.04545 5.80019 2.09091 5.6108 2.09091ZM10.017 2.09091C9.73674 2.09091 9.49621 1.99053 9.29545 1.78977C9.0947 1.58902 8.99432 1.34848 8.99432 1.06818C8.99432 0.787879 9.0947 0.547348 9.29545 0.346591C9.49621 0.145833 9.73674 0.0454545 10.017 0.0454545C10.2973 0.0454545 10.5379 0.145833 10.7386 0.346591C10.9394 0.547348 11.0398 0.787879 11.0398 1.06818C11.0398 1.25379 10.9924 1.42424 10.8977 1.57955C10.8068 1.73485 10.6837 1.85985 10.5284 1.95455C10.3769 2.04545 10.2064 2.09091 10.017 2.09091Z" fill="#101010"/>
</svg>
