<svg width="40" height="38" viewBox="0 0 40 38" fill="none" xmlns="http://www.w3.org/2000/svg">
<path d="M16.518 12.175L10.5001 18.475C10.4287 18.55 10.3782 18.6312 10.3487 18.7187C10.3187 18.8062 10.3037 18.9 10.3037 19C10.3037 19.1 10.3187 19.1937 10.3487 19.2812C10.3782 19.3687 10.4287 19.45 10.5001 19.525L16.518 25.8437C16.6847 26.0187 16.893 26.1062 17.143 26.1062C17.393 26.1062 17.6073 26.0125 17.7859 25.825C17.9644 25.6375 18.0537 25.4187 18.0537 25.1687C18.0537 24.9187 17.9644 24.7 17.7859 24.5125L12.5359 19L17.7859 13.4875C17.9525 13.3125 18.0359 13.097 18.0359 12.841C18.0359 12.5845 17.9466 12.3625 17.768 12.175C17.5894 11.9875 17.3811 11.8937 17.143 11.8937C16.9049 11.8937 16.6966 11.9875 16.518 12.175Z" fill="currentColor"/>
<path d="M26.518 12.175L20.5001 18.475C20.4287 18.55 20.3782 18.6312 20.3487 18.7187C20.3187 18.8062 20.3037 18.9 20.3037 19C20.3037 19.1 20.3187 19.1937 20.3487 19.2812C20.3782 19.3687 20.4287 19.45 20.5001 19.525L26.518 25.8437C26.6847 26.0187 26.893 26.1062 27.143 26.1062C27.393 26.1062 27.6073 26.0125 27.7859 25.825C27.9644 25.6375 28.0537 25.4187 28.0537 25.1687C28.0537 24.9187 27.9644 24.7 27.7859 24.5125L22.5359 19L27.7859 13.4875C27.9525 13.3125 28.0359 13.097 28.0359 12.841C28.0359 12.5845 27.9466 12.3625 27.768 12.175C27.5894 11.9875 27.3811 11.8937 27.143 11.8937C26.9049 11.8937 26.6966 11.9875 26.518 12.175Z" fill="currentColor"/>
</svg>
