<svg width="24" height="24" viewBox="0 0 24 24" fill="none" xmlns="http://www.w3.org/2000/svg">
<path fill-rule="evenodd" clip-rule="evenodd" d="M2 6C2 3.79086 3.79086 2 6 2H18C20.2091 2 22 3.79086 22 6V18C22 20.2091 20.2091 22 18 22H6C3.79086 22 2 20.2091 2 18V6ZM12 5C12.5523 5 13 5.44772 13 6V10.5858L14.2929 9.29289C14.6834 8.90237 15.3166 8.90237 15.7071 9.29289C16.0976 9.68342 16.0976 10.3166 15.7071 10.7071L12.7071 13.7071C12.3166 14.0976 11.6834 14.0976 11.2929 13.7071L8.29289 10.7071C7.90237 10.3166 7.90237 9.68342 8.29289 9.29289C8.68342 8.90237 9.31658 8.90237 9.70711 9.29289L11 10.5858V6C11 5.44772 11.4477 5 12 5ZM7 13C7 12.4477 6.55228 12 6 12C5.44772 12 5 12.4477 5 13V17C5 18.1046 5.89543 19 7 19H17C18.1046 19 19 18.1046 19 17V13C19 12.4477 18.5523 12 18 12C17.4477 12 17 12.4477 17 13V17H7V13Z" fill="currentColor"/>
</svg>
