<svg width="24" height="24" viewBox="0 0 24 24" fill="none" xmlns="http://www.w3.org/2000/svg">
<path d="M10.0665 11.7113L16.2427 5.53516L19.0711 8.36358L12.8949 14.5398C12.7719 14.6628 12.6188 14.7516 12.4509 14.7974L9.49339 15.604C9.19479 15.6855 8.9208 15.4115 9.00224 15.1129L9.80884 12.1553C9.85463 11.9874 9.94344 11.8344 10.0665 11.7113Z" fill="currentColor"/>
<path d="M18.3641 3.41421C19.1452 2.63316 20.4115 2.63316 21.1925 3.41421C21.9736 4.19526 21.9736 5.46159 21.1925 6.24264L20.4854 6.94975L17.657 4.12132L18.3641 3.41421Z" fill="currentColor"/>
<path d="M10 5.60547C8.46813 5.60547 7.0638 5.60547 5.99951 5.60547C4.89494 5.60547 4 6.5009 4 7.60547V18.6055C4 19.71 4.89543 20.6055 6 20.6055H17C18.1046 20.6055 19 19.71 19 18.6055V15" stroke="currentColor" stroke-width="2" stroke-linecap="round"/>
</svg>
