<svg width="24" height="24" viewBox="0 0 24 24" fill="none" xmlns="http://www.w3.org/2000/svg">
<path fill-rule="evenodd" clip-rule="evenodd" d="M18.8716 10.7781C14.8542 7.56419 9.14576 7.56419 5.12835 10.7781L3.60078 12.0002L5.12835 13.2222C9.14576 16.4362 14.8542 16.4362 18.8716 13.2222L20.3992 12.0002L18.8716 10.7781ZM3.87896 9.21638C8.6268 5.41811 15.3732 5.41811 20.121 9.21638L22.6247 11.2193C22.8619 11.4091 23 11.6964 23 12.0002C23 12.304 22.8619 12.5913 22.6247 12.781L20.121 14.784C15.3732 18.5822 8.62681 18.5822 3.87896 14.784L1.3753 12.781C1.13809 12.5913 1 12.304 1 12.0002C1 11.6964 1.13809 11.4091 1.3753 11.2193L3.87896 9.21638Z" fill="currentColor"/>
<circle cx="12" cy="12" r="2" fill="currentColor"/>
</svg>
