<svg width="24" height="24" viewBox="0 0 24 24" fill="none" xmlns="http://www.w3.org/2000/svg">
<path d="M13.9285 2.57153H6.21422C5.70273 2.57153 5.21219 2.77021 4.85051 3.12385C4.48883 3.47749 4.28564 3.95712 4.28564 4.45725V19.543C4.28564 20.0431 4.48883 20.5227 4.85051 20.8764C5.21219 21.23 5.70273 21.4287 6.21422 21.4287H17.7856C18.2971 21.4287 18.7877 21.23 19.1494 20.8764C19.511 20.5227 19.7142 20.0431 19.7142 19.543V8.22868L13.9285 2.57153Z" stroke="currentColor" stroke-width="1.5" stroke-linecap="round" stroke-linejoin="round"/>
<path d="M13.9287 2.57129V6.33556C13.9287 7.38096 14.7762 8.22843 15.8216 8.22843H19.7144" stroke="currentColor" stroke-width="1.5" stroke-linecap="round" stroke-linejoin="round"/>
<path d="M15.8571 12.9441H8.14282" stroke="currentColor" stroke-width="1.5" stroke-linecap="round" stroke-linejoin="round"/>
<path d="M15.8571 16.7141H8.14282" stroke="currentColor" stroke-width="1.5" stroke-linecap="round" stroke-linejoin="round"/>
<path d="M10.0714 9.17065H9.10711H8.14282" fill="currentColor"/>
<path d="M10.0714 9.17065H9.10711H8.14282" stroke="currentColor" stroke-width="1.5" stroke-linecap="round" stroke-linejoin="round"/>
</svg>
