<svg width="28" height="28" viewBox="0 0 28 28" fill="none" xmlns="http://www.w3.org/2000/svg">
<path fill-rule="evenodd" clip-rule="evenodd" d="M7.25 3H15.25V7.39166C15.25 9.16358 16.6865 10.6 18.4584 10.6H23V22.8C23 23.3835 22.7629 23.9431 22.341 24.3556C21.919 24.7682 21.3467 25 20.75 25H7.25C6.65326 25 6.08097 24.7682 5.65901 24.3556C5.23705 23.9431 5 23.3835 5 22.8V5.2C5 4.61652 5.23705 4.05694 5.65901 3.64437C6.08097 3.23178 6.65326 3 7.25 3ZM17.25 3.97781L21.9773 8.6H18.4584C17.791 8.6 17.25 8.05901 17.25 7.39166V3.97781ZM9.50006 14.1016C8.94778 14.1016 8.50006 14.5493 8.50006 15.1016C8.50006 15.6538 8.94778 16.1016 9.50006 16.1016H18.5001C19.0523 16.1016 19.5001 15.6538 19.5001 15.1016C19.5001 14.5493 19.0523 14.1016 18.5001 14.1016H9.50006ZM8.50006 19.5C8.50006 18.9477 8.94778 18.5 9.50006 18.5H18.5001C19.0523 18.5 19.5001 18.9477 19.5001 19.5C19.5001 20.0523 19.0523 20.5 18.5001 20.5H9.50006C8.94778 20.5 8.50006 20.0523 8.50006 19.5ZM9.50006 9.69922C8.94778 9.69922 8.50006 10.1469 8.50006 10.6992C8.50006 11.2515 8.94778 11.6992 9.50006 11.6992H10.6251H11.7501C12.3023 11.6992 12.7501 11.2515 12.7501 10.6992C12.7501 10.1469 12.3023 9.69922 11.7501 9.69922H10.6251H9.50006Z" fill="currentColor"/>
</svg>
