<svg width="24" height="24" viewBox="0 0 24 24" fill="none" xmlns="http://www.w3.org/2000/svg">
<path d="M21 7H18M18 7C18 8.65685 16.6569 10 15 10C13.3431 10 12 8.65685 12 7M18 7C18 5.34315 16.6569 4 15 4C13.3431 4 12 5.34315 12 7M12 7H3" stroke="currentColor" stroke-width="2" stroke-linecap="round"/>
<path d="M3 17H6M6 17C6 18.6569 7.34315 20 9 20C10.6569 20 12 18.6569 12 17M6 17C6 15.3431 7.34315 14 9 14C10.6569 14 12 15.3431 12 17M12 17H21" stroke="currentColor" stroke-width="2" stroke-linecap="round"/>
</svg>
