<svg width="28" height="28" viewBox="0 0 28 28" fill="none" xmlns="http://www.w3.org/2000/svg">
<path d="M24.1494 4.85655C23.5629 4.26797 22.8667 3.80107 22.1003 3.48251C21.334 3.16396 20.5126 3 19.6831 3C18.8535 3 18.0321 3.16396 17.2658 3.48251C16.4994 3.80107 15.8032 4.26797 15.2167 4.85655L13.9997 6.07749L12.7826 4.85655C11.5981 3.66822 9.99152 3.00062 8.31633 3.00062C6.64114 3.00062 5.03455 3.66822 3.85001 4.85655C2.66547 6.04489 2 7.65662 2 9.33718C2 11.0177 2.66547 12.6295 3.85001 13.8178L5.06705 15.0387L13.9997 24L22.9323 15.0387L24.1494 13.8178C24.7361 13.2295 25.2015 12.531 25.519 11.7622C25.8366 10.9934 26 10.1694 26 9.33718C26 8.50499 25.8366 7.68096 25.519 6.91216C25.2015 6.14336 24.7361 5.44486 24.1494 4.85655Z" fill="currentColor"/>
</svg>
