<svg width="24" height="24" viewBox="0 0 24 24" fill="none" xmlns="http://www.w3.org/2000/svg">
<path d="M4 9L11.3415 2.57619C11.7185 2.24629 12.2815 2.24629 12.6585 2.57619L20 9M4 9L2.34142 10.6586C2.21543 10.7846 2.30466 11 2.48284 11H4M4 9V11M20 9L21.6586 10.6586C21.7846 10.7846 21.6953 11 21.5172 11H20M20 9V11M4 11V21C4 21.5523 4.44772 22 5 22H8C8.55228 22 9 21.5523 9 21V17C9 16.4477 9.44772 16 10 16H14C14.5523 16 15 16.4477 15 17V21C15 21.5523 15.4477 22 16 22H19C19.5523 22 20 21.5523 20 21V11" stroke="currentColor" stroke-width="1.5" stroke-linejoin="round"/>
</svg>
