<svg width="46" height="36" viewBox="0 0 46 36" fill="none" xmlns="http://www.w3.org/2000/svg">
<rect width="46" height="36" rx="8" fill="white"/>
<g clip-path="url(#clip0_552_66744)">
<path fill-rule="evenodd" clip-rule="evenodd" d="M30.3164 18.0729H32.4726C32.4883 18.0729 32.4987 18.0729 32.5091 18.0729C32.5247 18.0729 32.5351 18.0729 32.5455 18.0729C32.5559 18.0781 32.5716 18.0781 32.582 18.0781C32.5924 18.0781 32.608 18.0781 32.6184 18.0833C32.6288 18.0833 32.6445 18.0833 32.6549 18.0885C32.6653 18.0885 32.6809 18.0885 32.6913 18.0937C32.6965 18.0937 32.707 18.0937 32.7122 18.0937L32.7226 18.0989C32.7382 18.1041 32.7486 18.1041 32.759 18.1093C32.7747 18.1145 32.7851 18.1145 32.7955 18.1197C32.8059 18.1249 32.8215 18.1301 32.8319 18.1301C32.8423 18.1353 32.858 18.1405 32.8684 18.1457C32.8788 18.1509 32.8892 18.1561 32.9049 18.1614C32.9153 18.1666 32.9257 18.177 32.9413 18.1822C32.9517 18.1874 32.9622 18.1926 32.9726 18.203C32.9882 18.2082 32.9986 18.2134 33.009 18.2239C33.0246 18.2291 33.0351 18.2395 33.0455 18.2447C33.0559 18.2551 33.0715 18.2656 33.0819 18.276C33.0923 18.2812 33.108 18.2916 33.1184 18.302C33.1288 18.3124 33.1392 18.3229 33.1548 18.3333C33.1652 18.3489 33.1757 18.3593 33.1913 18.3697C33.2017 18.3854 33.2121 18.3958 33.2225 18.4114C33.2382 18.427 33.2486 18.4426 33.259 18.4583C33.2746 18.4739 33.285 18.4895 33.2954 18.5052C33.3111 18.526 33.3215 18.5468 33.3319 18.5676C33.3423 18.5885 33.3579 18.6145 33.3683 18.6354C33.3787 18.6666 33.3944 18.6926 33.4048 18.7239C33.4152 18.7656 33.4308 18.8072 33.4413 18.8489C33.4569 18.9218 33.4621 19.0052 33.4621 19.0833C33.4621 19.1666 33.4569 19.2499 33.4413 19.3229C33.4309 19.3645 33.4152 19.4062 33.4048 19.4479C33.3944 19.4791 33.3788 19.5104 33.3683 19.5364C33.3579 19.5624 33.3423 19.5833 33.3319 19.6041C33.3215 19.625 33.3111 19.6458 33.2954 19.6666C33.285 19.6822 33.2746 19.6979 33.259 19.7187C33.2486 19.7291 33.2381 19.7447 33.2225 19.7604C33.2121 19.776 33.2017 19.7864 33.1913 19.802C33.1757 19.8124 33.1652 19.8229 33.1548 19.8385C33.1392 19.8489 33.1288 19.8593 33.1184 19.8697C33.108 19.8801 33.0923 19.8906 33.0819 19.901C33.0715 19.9062 33.0559 19.9166 33.0455 19.927C33.0351 19.9322 33.0246 19.9426 33.009 19.9479C32.9986 19.9583 32.9882 19.9635 32.9726 19.9739C32.9622 19.9791 32.9517 19.9843 32.9413 19.9895C32.9257 19.9947 32.9153 20.0052 32.9049 20.0104C32.8892 20.0156 32.8788 20.0208 32.8684 20.026C32.858 20.0312 32.8424 20.0364 32.8319 20.0416C32.8215 20.0416 32.8059 20.0468 32.7955 20.052C32.7851 20.0572 32.7747 20.0572 32.759 20.0624C32.7486 20.0676 32.7382 20.0676 32.7226 20.0728H32.7122C32.707 20.078 32.6966 20.078 32.6913 20.078C32.681 20.0832 32.6653 20.0832 32.6549 20.0832C32.6445 20.0884 32.6289 20.0884 32.6184 20.0884C32.608 20.0936 32.5924 20.0936 32.582 20.0936C32.5716 20.0936 32.556 20.0936 32.5455 20.0988C32.5351 20.0988 32.5247 20.0988 32.5091 20.0988C32.4987 20.0988 32.4882 20.0988 32.4726 20.0988H30.3164V18.0729ZM33.1914 15.776C33.2018 15.8437 33.2122 15.9115 33.2122 15.9896C33.2122 16.0677 33.2018 16.1354 33.1914 16.2083C33.181 16.25 33.1706 16.2917 33.1549 16.3333C33.1445 16.3594 33.1289 16.3906 33.1185 16.4167C33.1081 16.4427 33.0924 16.4635 33.082 16.4844C33.0716 16.5052 33.0612 16.5208 33.0456 16.5417C33.0352 16.5573 33.0247 16.5729 33.0091 16.5885C32.9987 16.6042 32.9883 16.6146 32.9727 16.6302C32.9623 16.6406 32.9518 16.6562 32.9414 16.6667C32.9258 16.6771 32.9154 16.6875 32.905 16.6979C32.8946 16.7083 32.8789 16.7187 32.8685 16.7292C32.8581 16.7396 32.8425 16.75 32.832 16.7552C32.8216 16.7656 32.8112 16.7708 32.7956 16.7812C32.7852 16.7865 32.7748 16.7969 32.7591 16.8021C32.7487 16.8073 32.7383 16.8177 32.7227 16.8229C32.7123 16.8281 32.7018 16.8333 32.6914 16.8385C32.6758 16.8438 32.6654 16.849 32.655 16.8542C32.6446 16.8594 32.6289 16.8646 32.6185 16.8698C32.6081 16.875 32.5925 16.875 32.5821 16.8802C32.5717 16.8854 32.5612 16.8854 32.5456 16.8906C32.5352 16.8958 32.5248 16.8958 32.5092 16.901C32.4988 16.901 32.4883 16.9062 32.4727 16.9062L32.4675 16.9115C32.4571 16.9115 32.4519 16.9115 32.4415 16.9115C32.4311 16.9167 32.4154 16.9167 32.405 16.9167C32.3946 16.9167 32.379 16.9219 32.3686 16.9219C32.3582 16.9219 32.3425 16.9219 32.3321 16.9219C32.3217 16.9219 32.3061 16.9271 32.2957 16.9271C32.2853 16.9271 32.2748 16.9271 32.2592 16.9271H30.3165V15.0521H32.2957C32.3061 15.0521 32.3217 15.0573 32.3321 15.0573C32.3425 15.0573 32.3582 15.0573 32.3686 15.0573C32.379 15.0573 32.3946 15.0625 32.405 15.0625C32.4154 15.0625 32.4311 15.0625 32.4415 15.0677C32.4519 15.0677 32.4571 15.0677 32.4675 15.0677L32.4727 15.073C32.4883 15.073 32.4988 15.0782 32.5092 15.0782C32.5248 15.0834 32.5352 15.0834 32.5456 15.0886C32.5613 15.0886 32.5717 15.0938 32.5821 15.099C32.5925 15.1042 32.6081 15.1042 32.6185 15.1094C32.6289 15.1146 32.6446 15.1198 32.655 15.125C32.6654 15.1302 32.6758 15.1354 32.6914 15.1407C32.7018 15.1459 32.7123 15.1511 32.7227 15.1563C32.7383 15.1615 32.7487 15.1719 32.7591 15.1771C32.7748 15.1823 32.7852 15.1927 32.7956 15.1979C32.8112 15.2084 32.8216 15.2136 32.8321 15.224C32.8425 15.2292 32.8581 15.2396 32.8685 15.25C32.8789 15.2604 32.8945 15.2709 32.905 15.2813C32.9154 15.2917 32.9258 15.3021 32.9414 15.3125C32.9518 15.3229 32.9623 15.3386 32.9727 15.349C32.9883 15.3646 32.9987 15.375 33.0091 15.3907C33.0247 15.4063 33.0352 15.4219 33.0456 15.4375C33.0612 15.4584 33.0716 15.474 33.082 15.4948C33.0924 15.5157 33.1081 15.5365 33.1185 15.5625C33.1289 15.5886 33.1445 15.6198 33.1549 15.6459C33.1706 15.6875 33.181 15.7292 33.1914 15.776ZM37.6185 6.0625H37.6341V25.2969C37.6341 25.4115 37.6289 25.526 37.6185 25.6406C37.6081 25.7396 37.5976 25.8333 37.582 25.9323C37.5716 25.9948 37.5612 26.0625 37.5456 26.125C37.5352 26.1771 37.5247 26.2292 37.5091 26.2812C37.4987 26.3229 37.4883 26.3698 37.4727 26.4115C37.4623 26.4479 37.4518 26.4896 37.4414 26.526C37.4258 26.5625 37.4154 26.599 37.4049 26.6302C37.3945 26.6667 37.3789 26.6979 37.3685 26.7292C37.3581 26.7604 37.3424 26.7865 37.332 26.8177C37.3216 26.8438 37.3112 26.875 37.2956 26.9011C37.2852 26.9271 37.2747 26.9531 37.2591 26.9792C37.2487 27.0052 37.2383 27.0313 37.2227 27.0521C37.2123 27.0781 37.2018 27.1042 37.1914 27.125C37.1758 27.1459 37.1654 27.1719 37.155 27.1927C37.1393 27.2136 37.1289 27.2344 37.1185 27.2552C37.1081 27.2761 37.0925 27.2969 37.0821 27.3177C37.0717 27.3386 37.056 27.3594 37.0456 27.375C37.0352 27.3959 37.0248 27.4167 37.0092 27.4323C36.9988 27.4532 36.9883 27.4688 36.9727 27.4896C36.9623 27.5052 36.9519 27.5209 36.9414 27.5417C36.9258 27.5573 36.9154 27.5729 36.905 27.5886C36.8894 27.6094 36.879 27.625 36.8685 27.6406C36.8581 27.6563 36.8425 27.6719 36.8321 27.6875C36.8217 27.7032 36.806 27.7188 36.7956 27.7344C36.7852 27.75 36.7748 27.7657 36.7592 27.7761C36.7488 27.7917 36.7383 27.8073 36.7227 27.823C36.7123 27.8334 36.7019 27.849 36.6915 27.8646C36.6758 27.875 36.6654 27.8907 36.655 27.9063C36.6394 27.9167 36.629 27.9323 36.6186 27.9427C36.6082 27.9584 36.5925 27.9688 36.5821 27.9844C36.5717 27.9948 36.5561 28.0104 36.5457 28.0209C36.5353 28.0313 36.5248 28.0469 36.5092 28.0573C36.4988 28.0677 36.4884 28.0834 36.4728 28.0938C36.4624 28.1042 36.4519 28.1146 36.4415 28.125C36.4259 28.1407 36.4155 28.1511 36.405 28.1615C36.3894 28.1719 36.379 28.1823 36.3686 28.1927C36.3582 28.2031 36.3426 28.2136 36.3321 28.224C36.3217 28.2344 36.3061 28.2448 36.2957 28.2552C36.2853 28.2656 36.2748 28.2761 36.2592 28.2865C36.2488 28.2969 36.2384 28.3073 36.2228 28.3177C36.2124 28.3281 36.2019 28.3386 36.1915 28.349C36.1759 28.3542 36.1655 28.3646 36.1551 28.375C36.1395 28.3854 36.129 28.3907 36.1186 28.4011C36.1082 28.4115 36.0926 28.4219 36.0822 28.4271C36.0718 28.4375 36.0561 28.448 36.0457 28.4532C36.0353 28.4636 36.0249 28.474 36.0093 28.4792C35.9989 28.4896 35.9884 28.5 35.9728 28.5052C35.9624 28.5156 35.952 28.5209 35.9416 28.5313C35.9259 28.5365 35.9155 28.5469 35.9051 28.5521C35.8895 28.5625 35.8791 28.5677 35.8686 28.5782C35.8582 28.5834 35.8426 28.5938 35.8322 28.599L35.7957 28.6198C35.7853 28.6302 35.7749 28.6355 35.7593 28.6407C35.7489 28.6511 35.7384 28.6563 35.7228 28.6615C35.7124 28.6719 35.702 28.6771 35.6916 28.6824C35.676 28.6928 35.6655 28.698 35.6551 28.7032C35.6395 28.7084 35.6291 28.7188 35.6187 28.724C35.6083 28.7292 35.5926 28.7344 35.5822 28.7449C35.5718 28.7501 35.5562 28.7553 35.5458 28.7605C35.5354 28.7657 35.5249 28.7709 35.5093 28.7761L35.4729 28.797L35.4416 28.8126C35.426 28.8178 35.4156 28.823 35.4052 28.8282C35.3895 28.8334 35.3791 28.8386 35.3687 28.8439C35.3583 28.8491 35.3427 28.8542 35.3322 28.8595C35.3218 28.8647 35.3062 28.8699 35.2958 28.8751C35.2854 28.8803 35.275 28.8855 35.2593 28.8907C35.2489 28.8959 35.2385 28.9011 35.2229 28.9011L35.1916 28.9168C35.176 28.922 35.1656 28.9272 35.1552 28.9324C35.1396 28.9324 35.1291 28.9376 35.1187 28.9428C35.1083 28.948 35.0927 28.9532 35.0823 28.9532L35.0458 28.9688C35.0354 28.974 35.025 28.974 35.0094 28.9792L34.9729 28.9896C34.9625 28.9948 34.9521 28.9948 34.9417 29C34.926 29.0052 34.9156 29.0052 34.9052 29.0104C34.8896 29.0156 34.8792 29.0156 34.8688 29.0208L34.7958 29.0417L34.7594 29.0468C34.749 29.052 34.7385 29.052 34.7229 29.0572C34.7125 29.0572 34.7021 29.0625 34.6917 29.0625L34.6552 29.0728L34.6188 29.0781C34.6084 29.0833 34.5927 29.0832 34.5823 29.0884C34.5719 29.0884 34.5563 29.0884 34.5459 29.0936L34.4729 29.104L34.4417 29.1092C34.4261 29.1092 34.4157 29.1145 34.4052 29.1145C34.3896 29.1145 34.3792 29.1145 34.3688 29.1196C34.3584 29.1196 34.3427 29.1196 34.3323 29.1248C34.3219 29.1248 34.3063 29.1248 34.2959 29.1248C34.2855 29.13 34.275 29.13 34.2594 29.13C34.249 29.13 34.2386 29.1301 34.223 29.1353C34.2126 29.1353 34.2021 29.1353 34.1917 29.1353L34.1553 29.1405C34.1396 29.1405 34.1292 29.1405 34.1188 29.1405C34.1084 29.1405 34.0928 29.1405 34.0824 29.1405H34.0459L34.0094 29.1456C33.9991 29.1456 33.9886 29.1456 33.973 29.1456H28.5042V21.3019H34.3324C34.3428 21.3019 34.3584 21.3019 34.3688 21.3019C34.3792 21.2967 34.3897 21.2967 34.4053 21.2967H34.4417L34.473 21.2915H34.5094L34.5459 21.2863H34.5823C34.5927 21.2863 34.6084 21.2811 34.6188 21.2811C34.6292 21.2811 34.6396 21.2811 34.6553 21.2759L34.6917 21.2707C34.7021 21.2707 34.7125 21.2707 34.723 21.2655C34.7386 21.2655 34.749 21.2655 34.7594 21.2603C34.775 21.2603 34.7855 21.2603 34.7959 21.2551L34.8688 21.2447C34.8792 21.2395 34.8896 21.2395 34.9052 21.2343C34.9156 21.2343 34.9261 21.2291 34.9417 21.2291L34.9729 21.2187C34.9886 21.2187 34.999 21.2135 35.0094 21.2135C35.025 21.2083 35.0354 21.2083 35.0459 21.2031C35.0563 21.1979 35.0719 21.1979 35.0823 21.1927C35.0927 21.1927 35.1083 21.1875 35.1188 21.1823C35.1292 21.1823 35.1396 21.1771 35.1552 21.1719C35.1656 21.1719 35.1761 21.1667 35.1917 21.1615L35.2229 21.1511C35.2385 21.1459 35.249 21.1407 35.2594 21.1407C35.275 21.1355 35.2854 21.1303 35.2958 21.1251C35.3062 21.1199 35.3219 21.1147 35.3323 21.1147C35.3427 21.1095 35.3583 21.1043 35.3687 21.099C35.3791 21.0938 35.3896 21.0886 35.4052 21.0834C35.4156 21.0782 35.426 21.073 35.4416 21.0678C35.452 21.0626 35.4625 21.0574 35.4729 21.0522C35.4885 21.047 35.4989 21.0418 35.5093 21.0365C35.525 21.0313 35.5354 21.0261 35.5458 21.0209C35.5562 21.0105 35.5718 21.0053 35.5823 21.0001C35.5927 20.9949 35.6083 20.9897 35.6187 20.9792C35.6291 20.974 35.6395 20.9688 35.6552 20.9636C35.6656 20.9532 35.676 20.948 35.6916 20.9428C35.702 20.9324 35.7125 20.9271 35.7229 20.9219C35.7385 20.9115 35.7489 20.9063 35.7593 20.8959C35.7749 20.8907 35.7854 20.8803 35.7958 20.8751C35.8062 20.8647 35.8218 20.8594 35.8322 20.849C35.8426 20.8386 35.8583 20.8334 35.8687 20.823C35.8791 20.8126 35.8895 20.8074 35.9051 20.7969C35.9155 20.7865 35.926 20.7761 35.9416 20.7657C35.952 20.7605 35.9624 20.7501 35.9728 20.7396C35.9885 20.7292 35.9989 20.7188 36.0093 20.7084C36.0249 20.698 36.0353 20.6876 36.0457 20.6719C36.0561 20.6615 36.0718 20.6511 36.0822 20.6407C36.0926 20.6251 36.1082 20.6146 36.1187 20.6042C36.1291 20.5886 36.1395 20.5782 36.1551 20.5626C36.1655 20.5522 36.1759 20.5365 36.1916 20.5261C36.202 20.5105 36.2124 20.4949 36.2228 20.4792C36.2384 20.4636 36.2489 20.448 36.2593 20.4324C36.2749 20.4167 36.2853 20.4011 36.2957 20.3855C36.3113 20.3646 36.3218 20.349 36.3322 20.3282C36.3426 20.3073 36.3582 20.2917 36.3686 20.2709C36.379 20.25 36.3947 20.224 36.4051 20.2032C36.4155 20.1823 36.4259 20.1563 36.4415 20.1303C36.4519 20.1042 36.4624 20.073 36.4728 20.0469C36.4884 20.0157 36.4988 19.9792 36.5092 19.948C36.5249 19.9063 36.5353 19.8646 36.5457 19.823C36.5613 19.7553 36.5717 19.6928 36.5821 19.625C36.5925 19.5469 36.5978 19.4636 36.5978 19.3803C36.5978 19.2969 36.5926 19.2188 36.5821 19.1407C36.5717 19.073 36.5613 19.0105 36.5457 18.9532C36.5353 18.9115 36.5249 18.8698 36.5092 18.8282C36.4988 18.7969 36.4884 18.7657 36.4728 18.7344C36.4624 18.7032 36.4519 18.6771 36.4415 18.6511C36.4259 18.6303 36.4155 18.6042 36.4051 18.5834C36.3947 18.5625 36.379 18.5417 36.3686 18.5209C36.3582 18.5001 36.3426 18.4792 36.3322 18.4636C36.3218 18.4428 36.3113 18.4271 36.2957 18.4063C36.2853 18.3907 36.2749 18.3751 36.2593 18.3594C36.2489 18.3438 36.2384 18.3282 36.2228 18.3178C36.2124 18.3021 36.202 18.2865 36.1916 18.2709C36.1759 18.2605 36.1655 18.2448 36.1551 18.2344C36.1395 18.2188 36.1291 18.2084 36.1187 18.198C36.1083 18.1823 36.0926 18.1719 36.0822 18.1615C36.0718 18.1511 36.0562 18.1407 36.0457 18.1303C36.0353 18.1199 36.0249 18.1042 36.0093 18.099C35.9989 18.0886 35.9885 18.0782 35.9728 18.0678C35.9624 18.0574 35.952 18.0469 35.9416 18.0365C35.926 18.0261 35.9155 18.0209 35.9051 18.0105C35.8895 18.0001 35.8791 17.9948 35.8687 17.9844C35.8583 17.974 35.8426 17.9688 35.8322 17.9584C35.8218 17.9532 35.8062 17.9428 35.7958 17.9375C35.7854 17.9271 35.7749 17.9219 35.7593 17.9115C35.7489 17.9063 35.7385 17.8959 35.7229 17.8907C35.7125 17.8855 35.702 17.875 35.6916 17.8698C35.676 17.8646 35.6656 17.8542 35.6552 17.849C35.6395 17.8438 35.6291 17.8386 35.6187 17.8281C35.6083 17.8229 35.5927 17.8177 35.5823 17.8125C35.5719 17.8073 35.5562 17.8021 35.5458 17.7969C35.5354 17.7865 35.525 17.7813 35.5093 17.7761C35.4989 17.7709 35.4885 17.7657 35.4729 17.7604C35.4625 17.7552 35.4521 17.75 35.4416 17.7448C35.426 17.7396 35.4156 17.7344 35.4052 17.7292C35.3896 17.724 35.3791 17.7188 35.3687 17.7188C35.3583 17.7136 35.3427 17.7084 35.3323 17.7031C35.3219 17.6979 35.3062 17.6927 35.2958 17.6875C35.2854 17.6875 35.275 17.6823 35.2594 17.6771C35.249 17.6719 35.2385 17.6719 35.2229 17.6667C35.2125 17.6615 35.2021 17.6563 35.1917 17.6563L35.1549 17.6406C35.1393 17.6406 35.1289 17.6354 35.1185 17.6302C35.1081 17.6302 35.0924 17.625 35.082 17.625C35.0716 17.6198 35.056 17.6146 35.0456 17.6146C35.0352 17.6094 35.0247 17.6094 35.0091 17.6042C34.9987 17.6042 34.9883 17.599 34.9727 17.5938C34.9623 17.5938 34.9518 17.5886 34.9414 17.5886C34.9258 17.5834 34.9154 17.5834 34.9049 17.5782L34.832 17.5678C34.8216 17.5626 34.806 17.5626 34.7956 17.5626L34.7591 17.5573C34.7487 17.5521 34.7383 17.5521 34.7227 17.5469H34.6914L34.5455 17.526H34.5091L34.4778 17.5208V17.4792L34.5091 17.4739L34.5455 17.4687C34.5559 17.4635 34.5716 17.4635 34.582 17.4583L34.6185 17.4531C34.6289 17.4479 34.6393 17.4479 34.6549 17.4427L34.6914 17.4375C34.7018 17.4323 34.7122 17.4323 34.7226 17.4271C34.7382 17.4271 34.7487 17.4219 34.7591 17.4167C34.7747 17.4167 34.7851 17.4114 34.7955 17.4114C34.8059 17.4062 34.8216 17.401 34.832 17.401C34.8424 17.3958 34.858 17.3906 34.8684 17.3906C34.8788 17.3854 34.8893 17.3802 34.9049 17.375C34.9153 17.375 34.9257 17.3698 34.9413 17.3646C34.9517 17.3594 34.9622 17.3542 34.9726 17.3489C34.9882 17.3489 34.9986 17.3437 35.009 17.3385C35.0247 17.3333 35.0351 17.3281 35.0455 17.3229C35.0559 17.3177 35.0715 17.3125 35.0819 17.3073C35.0923 17.3021 35.108 17.2969 35.1184 17.2917C35.1288 17.2864 35.1392 17.2812 35.1549 17.276C35.1653 17.2708 35.1757 17.2656 35.1913 17.2604C35.2017 17.2552 35.2121 17.2448 35.2226 17.2396C35.2382 17.2344 35.2486 17.2292 35.259 17.2187C35.2746 17.2135 35.2851 17.2083 35.2955 17.2031C35.3059 17.1927 35.3215 17.1875 35.3319 17.1823C35.3423 17.1719 35.358 17.1667 35.3684 17.1562C35.3788 17.151 35.3892 17.1406 35.4048 17.1354C35.4152 17.125 35.4257 17.1198 35.4413 17.1094C35.4517 17.099 35.4621 17.0937 35.4725 17.0833C35.4882 17.0729 35.4986 17.0677 35.509 17.0573C35.5246 17.0469 35.535 17.0365 35.5454 17.026C35.5558 17.0208 35.5715 17.0104 35.5819 17C35.5923 16.9896 35.6079 16.9792 35.6183 16.9687C35.6287 16.9531 35.6392 16.9427 35.6548 16.9323C35.6652 16.9219 35.6756 16.9115 35.6913 16.8958C35.7017 16.8854 35.7121 16.8698 35.7225 16.8594C35.7381 16.8437 35.7485 16.8333 35.759 16.8177C35.7746 16.8073 35.785 16.7917 35.7954 16.776C35.8058 16.7604 35.8215 16.7448 35.8319 16.7292C35.8423 16.7135 35.8579 16.6979 35.8683 16.6823C35.8787 16.6615 35.8944 16.6458 35.9048 16.625C35.9152 16.6094 35.9256 16.5885 35.9412 16.5677C35.9516 16.5469 35.9621 16.526 35.9725 16.5C35.9881 16.4792 35.9985 16.4531 36.0089 16.4271C36.0246 16.401 36.035 16.3698 36.0454 16.3437C36.061 16.3073 36.0714 16.276 36.0818 16.2396C36.0975 16.1979 36.1079 16.1562 36.1183 16.1094C36.1339 16.0365 36.1443 15.9635 36.1547 15.8906C36.1599 15.8333 36.1599 15.7708 36.1599 15.7135C36.1599 15.6458 36.1599 15.5885 36.1547 15.526C36.1443 15.4479 36.1339 15.375 36.1183 15.3021C36.1079 15.2552 36.0975 15.2135 36.0818 15.1667C36.0714 15.1354 36.061 15.099 36.0454 15.0677C36.035 15.0417 36.0245 15.0104 36.0089 14.9844C35.9985 14.9583 35.9881 14.9375 35.9725 14.9115C35.9621 14.8906 35.9516 14.8698 35.9412 14.849C35.9256 14.8281 35.9152 14.8073 35.9048 14.7917C35.8944 14.7708 35.8787 14.7552 35.8683 14.7396C35.8579 14.7187 35.8423 14.7031 35.8319 14.6875C35.8215 14.6719 35.811 14.6615 35.7954 14.6458C35.785 14.6302 35.7746 14.6146 35.759 14.6042C35.7486 14.5885 35.7381 14.5781 35.7225 14.5625C35.7121 14.5521 35.7017 14.5417 35.6913 14.526C35.6756 14.5156 35.6652 14.5052 35.6548 14.4948C35.6392 14.4844 35.6288 14.474 35.6183 14.4583C35.6079 14.4531 35.5923 14.4427 35.5819 14.4323C35.5715 14.4219 35.5559 14.4115 35.5454 14.401C35.535 14.3906 35.5246 14.3854 35.509 14.375C35.4986 14.3646 35.4881 14.3542 35.4725 14.349C35.4621 14.3385 35.4517 14.3333 35.4413 14.3229C35.4257 14.3125 35.4152 14.3073 35.4048 14.2969C35.3892 14.2917 35.3788 14.2865 35.3684 14.276C35.358 14.2708 35.3423 14.2604 35.3319 14.2552C35.3215 14.25 35.3059 14.2396 35.2955 14.2344C35.2851 14.2292 35.2746 14.224 35.259 14.2135C35.2486 14.2083 35.2382 14.2031 35.2226 14.1979C35.2122 14.1927 35.2017 14.1823 35.1913 14.1771C35.1757 14.1719 35.1653 14.1667 35.1549 14.1615C35.1392 14.1562 35.1288 14.151 35.1184 14.1458C35.108 14.1406 35.0924 14.1354 35.0819 14.1302C35.0715 14.125 35.0559 14.1198 35.0455 14.1146C35.0351 14.1094 35.0247 14.1042 35.009 14.099C34.9986 14.099 34.9882 14.0937 34.9726 14.0885C34.9622 14.0833 34.9517 14.0781 34.9413 14.0729C34.9257 14.0729 34.9153 14.0677 34.9049 14.0625C34.8893 14.0573 34.8788 14.0573 34.8684 14.0521C34.858 14.0469 34.8424 14.0417 34.832 14.0417C34.8216 14.0365 34.8059 14.0313 34.7955 14.0313C34.7851 14.026 34.7747 14.026 34.7591 14.0208L34.7226 14.0104C34.7122 14.0104 34.7018 14.0052 34.6914 14C34.6757 14 34.6653 13.9948 34.6549 13.9948L34.6185 13.9844C34.6081 13.9844 34.5924 13.9792 34.582 13.9792C34.5716 13.974 34.556 13.974 34.5455 13.9688L34.5091 13.9636C34.4987 13.9636 34.4883 13.9583 34.4726 13.9583L34.4414 13.9531L34.2955 13.9323H34.2591L34.2226 13.9271H34.1914L34.1549 13.9219H34.1185L34.1028 13.9167H34.0456L34.0091 13.9114H33.9414L33.9049 13.9062H28.5039V9.90623C28.5039 9.6406 28.5299 9.38018 28.582 9.12497C28.5924 9.06768 28.6029 9.0156 28.6185 8.96352C28.6289 8.91664 28.6393 8.86977 28.6549 8.8281C28.6653 8.78643 28.6758 8.74477 28.6914 8.70831C28.7018 8.67186 28.7122 8.63539 28.7226 8.59894C28.7383 8.56769 28.7487 8.53123 28.7591 8.49998C28.7695 8.46873 28.7851 8.43749 28.7955 8.41143C28.8059 8.38018 28.8216 8.35414 28.832 8.32289C28.8424 8.29685 28.8528 8.27081 28.8685 8.24477C28.8789 8.21873 28.8893 8.19789 28.9049 8.17185C28.9153 8.14581 28.9257 8.12497 28.9414 8.09893C28.9518 8.07809 28.9622 8.05205 28.9726 8.03122C28.9882 8.01038 28.9987 7.98955 29.0091 7.96873C29.0247 7.94789 29.0351 7.92706 29.0455 7.90623C29.0559 7.88539 29.0716 7.86457 29.082 7.84374C29.0924 7.82811 29.108 7.80729 29.1184 7.78645C29.1288 7.77082 29.1393 7.74999 29.1549 7.73437C29.1653 7.71354 29.1757 7.69791 29.1913 7.67707C29.2017 7.66145 29.2122 7.64582 29.2226 7.63019C29.2382 7.60935 29.2486 7.59374 29.259 7.57811C29.2747 7.56249 29.2851 7.54686 29.2955 7.53123C29.3059 7.51561 29.3215 7.49998 29.3319 7.48435C29.3423 7.46873 29.358 7.4531 29.3684 7.43747C29.3788 7.42707 29.3892 7.41143 29.4049 7.39581C29.4153 7.38018 29.4257 7.36977 29.4413 7.35414C29.4517 7.33851 29.4621 7.3281 29.4726 7.31247C29.4882 7.29685 29.4986 7.28643 29.509 7.27081C29.5246 7.26041 29.5351 7.24477 29.5455 7.23435C29.5559 7.21873 29.5715 7.20831 29.5819 7.1979C29.5923 7.18227 29.608 7.17186 29.6184 7.15623C29.6288 7.14583 29.6392 7.13539 29.6548 7.12498C29.6652 7.10935 29.6757 7.09894 29.6913 7.08853C29.7017 7.07813 29.7121 7.06249 29.7225 7.05207C29.7382 7.04167 29.7486 7.03123 29.759 7.02082C29.7746 7.01042 29.785 6.99998 29.7954 6.98957C29.8058 6.97917 29.8215 6.96873 29.8319 6.95831C29.8423 6.94791 29.8579 6.93747 29.8683 6.92706C29.8787 6.91666 29.8892 6.90622 29.9048 6.89581L29.9413 6.86455L29.9725 6.83851C29.9881 6.82811 29.9985 6.81767 30.009 6.81247C30.0246 6.80207 30.035 6.79163 30.0454 6.78122L30.0819 6.75518C30.0923 6.74998 30.1079 6.73955 30.1183 6.72914L30.1548 6.7083L30.1912 6.68226C30.2016 6.67186 30.2121 6.66663 30.2225 6.65622L30.2589 6.63538C30.2746 6.62498 30.285 6.61975 30.2954 6.61454C30.3058 6.60414 30.3214 6.59891 30.3318 6.5885C30.3422 6.5833 30.3579 6.5781 30.3683 6.56766C30.3787 6.56246 30.3891 6.55203 30.4047 6.54683C30.4151 6.54163 30.4256 6.53121 30.4412 6.52599C30.4516 6.52079 30.462 6.51559 30.4725 6.50517C30.4881 6.49997 30.4985 6.49477 30.5089 6.48954C30.5245 6.47914 30.5349 6.47391 30.5454 6.4687C30.5558 6.4635 30.5714 6.4583 30.5818 6.44786L30.6183 6.43223C30.6287 6.42703 30.6391 6.42183 30.6547 6.41661C30.6651 6.41141 30.6756 6.40098 30.6912 6.39577C30.7016 6.39057 30.712 6.38537 30.7224 6.38014C30.7381 6.37494 30.7485 6.36974 30.7589 6.36451C30.7745 6.35931 30.7849 6.35411 30.7953 6.34889C30.8057 6.34369 30.8214 6.33849 30.8318 6.33326L30.8682 6.32286L30.9047 6.30723C30.9151 6.30203 30.9255 6.29683 30.9411 6.29161C30.9515 6.28641 30.962 6.28121 30.9724 6.28121C30.988 6.27601 30.9984 6.27081 31.0089 6.26558C31.0247 6.26038 31.0351 6.26038 31.0455 6.25518L31.082 6.23955C31.0924 6.23955 31.108 6.23435 31.1185 6.22915C31.1289 6.22395 31.1393 6.22395 31.1549 6.21875C31.1653 6.21355 31.1757 6.21355 31.1914 6.20835C31.2018 6.20315 31.2122 6.20315 31.2226 6.19795C31.2382 6.19275 31.2487 6.19275 31.2591 6.18755L31.2955 6.17715C31.3059 6.17715 31.3216 6.17195 31.332 6.16675C31.3424 6.16675 31.358 6.16155 31.3684 6.16155C31.3788 6.15635 31.3893 6.15635 31.4049 6.15115L31.4413 6.14595L31.4726 6.13555C31.4882 6.13555 31.4986 6.13035 31.509 6.13035C31.5247 6.12515 31.5351 6.12515 31.5455 6.11995C31.5559 6.11995 31.5715 6.11995 31.5819 6.11475L31.6184 6.10955C31.6288 6.10955 31.6392 6.10435 31.6549 6.10435C31.6653 6.10435 31.6757 6.09915 31.6913 6.09915C31.7017 6.09915 31.7121 6.09395 31.7226 6.09395C31.7382 6.09395 31.7486 6.08875 31.759 6.08875L31.7955 6.08355C31.8059 6.08355 31.8215 6.08355 31.8319 6.07835C31.8423 6.07835 31.858 6.07835 31.8684 6.07835L31.9048 6.07315H31.9413C31.9517 6.06795 31.9621 6.06795 31.9725 6.06795C31.9882 6.06795 31.9986 6.06795 32.009 6.06795C32.0246 6.06795 32.035 6.06795 32.0454 6.06275H32.0819C32.0923 6.06275 32.1079 6.06275 32.1183 6.06275C32.1287 6.06275 32.1392 6.06275 32.1548 6.06275C32.1652 6.06275 32.1756 6.06275 32.1913 6.06275L37.6185 6.0625Z" fill="url(#paint0_linear_552_66744)"/>
<path fill-rule="evenodd" clip-rule="evenodd" d="M8.10791 19.4477C8.08187 19.4373 8.05583 19.4216 8.02979 19.4112V9.90601C8.02979 9.64039 8.05583 9.37997 8.10791 9.12476C8.11832 9.07268 8.12874 9.02059 8.14437 8.9633C8.15478 8.92164 8.1652 8.87476 8.18083 8.82789C8.19124 8.78622 8.20166 8.74977 8.21208 8.7081C8.2277 8.67165 8.23812 8.63518 8.24853 8.59873C8.25895 8.56747 8.27458 8.53623 8.28499 8.50498C8.29541 8.47373 8.31103 8.44247 8.32145 8.41123C8.33187 8.38519 8.34229 8.35394 8.35791 8.3279C8.36832 8.30186 8.37874 8.27582 8.39437 8.24978C8.40478 8.22374 8.4152 8.1977 8.42562 8.17166C8.44124 8.15082 8.45166 8.12478 8.46208 8.09874C8.4777 8.0779 8.48812 8.05707 8.49853 8.03103C8.50895 8.01019 8.52458 7.98937 8.53499 7.96854C8.54541 7.9477 8.56103 7.92687 8.57145 7.90605C8.58187 7.88521 8.59229 7.86438 8.60791 7.84875C8.61832 7.82791 8.62874 7.80709 8.64437 7.79146C8.65478 7.77062 8.6652 7.75501 8.67562 7.73417C8.69124 7.71854 8.70166 7.69771 8.71208 7.68209C8.7277 7.66646 8.73812 7.64563 8.74853 7.63001C8.75895 7.61438 8.77458 7.59875 8.78499 7.58313C8.79541 7.56229 8.80583 7.54667 8.82145 7.53105C8.83187 7.51542 8.84229 7.49979 8.85791 7.48417C8.86832 7.47377 8.87874 7.45813 8.88916 7.4425C8.90479 7.42687 8.9152 7.41125 8.92562 7.39562C8.94124 7.38522 8.95166 7.36958 8.96208 7.35395C8.97249 7.34355 8.98812 7.32791 8.99853 7.31229C9.00895 7.30189 9.02458 7.28625 9.03499 7.27583C9.04541 7.26021 9.05583 7.24979 9.07145 7.23417C9.08187 7.22377 9.09229 7.20813 9.10791 7.19771C9.11832 7.18731 9.12874 7.17167 9.13916 7.16126C9.15479 7.15086 9.1652 7.13522 9.17562 7.12481C9.19124 7.11441 9.20166 7.10397 9.21208 7.08835C9.22249 7.07795 9.23812 7.06751 9.24853 7.0571C9.25895 7.0467 9.26937 7.03106 9.28499 7.02065C9.29541 7.01025 9.30583 6.99981 9.32145 6.98939C9.33187 6.97899 9.34229 6.96855 9.3527 6.95814C9.36833 6.94774 9.37874 6.9373 9.38916 6.92689C9.40479 6.91649 9.4152 6.90605 9.42562 6.90085C9.43603 6.89045 9.45166 6.88002 9.46208 6.86959C9.47249 6.85919 9.48812 6.84875 9.49853 6.83834C9.50895 6.83314 9.51937 6.82271 9.53499 6.8123L9.57145 6.78626C9.58187 6.77586 9.59228 6.77063 9.6027 6.76022C9.61833 6.74982 9.62874 6.74459 9.63916 6.73418C9.65479 6.72378 9.6652 6.71855 9.67562 6.70814C9.68603 6.69774 9.70166 6.69251 9.71208 6.6821C9.72249 6.6769 9.73291 6.66647 9.74853 6.66126C9.75895 6.65086 9.76937 6.64563 9.78499 6.63522C9.79541 6.63002 9.80583 6.61959 9.81624 6.61438C9.83187 6.60398 9.84228 6.59875 9.8527 6.59354C9.86833 6.58314 9.87874 6.57791 9.88916 6.5727C9.89957 6.5623 9.9152 6.55707 9.92562 6.55186C9.93603 6.54146 9.95166 6.53623 9.96208 6.53102C9.97249 6.52062 9.98291 6.51539 9.99853 6.51018C10.0089 6.49978 10.0194 6.49455 10.035 6.48934C10.0454 6.48414 10.0558 6.47894 10.0662 6.4685L10.1027 6.45287C10.1131 6.44767 10.1287 6.44247 10.1392 6.43203C10.1496 6.42683 10.1652 6.42163 10.1756 6.41641C10.186 6.41121 10.1965 6.40601 10.2121 6.40078C10.2225 6.39558 10.2329 6.39038 10.2485 6.38515C10.2589 6.37995 10.2694 6.37475 10.2798 6.36953C10.2954 6.36433 10.3058 6.35913 10.3162 6.3539L10.4256 6.30702C10.436 6.30182 10.4465 6.29662 10.4621 6.29139C10.4725 6.29139 10.4829 6.28619 10.4985 6.28099C10.5089 6.27579 10.5194 6.27059 10.5298 6.26537L10.6027 6.24453C10.6131 6.23933 10.6287 6.23413 10.6392 6.2289C10.6496 6.2289 10.66 6.2237 10.6756 6.2185C10.686 6.2185 10.6965 6.2133 10.7121 6.2081C10.7225 6.2081 10.7329 6.2029 10.7433 6.1977L10.7798 6.1873C10.7954 6.1873 10.8058 6.1821 10.8162 6.1769C10.8267 6.1769 10.8423 6.1717 10.8527 6.1717C10.8631 6.1665 10.8787 6.1665 10.8892 6.1613C10.8996 6.1561 10.91 6.1561 10.9256 6.1509L10.9621 6.1457C10.9725 6.1405 10.9829 6.1405 10.9933 6.1353C11.009 6.1353 11.0194 6.1301 11.0298 6.1301C11.0402 6.1301 11.0558 6.1249 11.0662 6.1249C11.0767 6.1197 11.0923 6.1197 11.1027 6.1145L11.1392 6.1093C11.1496 6.1093 11.16 6.1041 11.1756 6.1041C11.186 6.1041 11.1965 6.0989 11.2069 6.0989C11.2225 6.0989 11.2329 6.0937 11.2433 6.0937L11.3162 6.0833C11.3267 6.0833 11.3423 6.0833 11.3527 6.0833C11.3631 6.0781 11.3735 6.0781 11.3892 6.0781L11.4204 6.0729C11.436 6.0729 11.4465 6.0729 11.4569 6.0729C11.4725 6.0729 11.4829 6.0677 11.4933 6.0677C11.5037 6.0677 11.5194 6.0677 11.5298 6.0677C11.5402 6.0677 11.5558 6.0677 11.5662 6.0625H11.6027C11.6131 6.0625 11.6235 6.0625 11.6392 6.0625C11.6496 6.0625 11.66 6.0625 11.6704 6.0625C11.686 6.0625 11.6965 6.0625 11.7069 6.0625H17.16V25.2966C17.16 25.4633 17.1496 25.6299 17.1287 25.7914C17.1183 25.8695 17.1079 25.9476 17.0923 26.0206C17.0819 26.0831 17.0715 26.1403 17.0558 26.1976C17.0454 26.2445 17.035 26.2914 17.0194 26.3383C17.009 26.3799 16.9985 26.4216 16.9829 26.4633C16.9725 26.4997 16.9621 26.5362 16.9465 26.5726C16.936 26.6091 16.9256 26.6404 16.9152 26.6716C16.8996 26.7029 16.8892 26.7341 16.8787 26.7654C16.8683 26.7966 16.8527 26.8226 16.8423 26.8539C16.8319 26.8799 16.8162 26.906 16.8058 26.9372C16.7954 26.9581 16.785 26.9841 16.7694 27.0102C16.759 27.0362 16.7485 27.0622 16.7329 27.0831C16.7225 27.1091 16.7121 27.13 16.7017 27.1508C16.686 27.1768 16.6756 27.1977 16.6652 27.2185C16.6496 27.2393 16.6392 27.2601 16.6287 27.281C16.6183 27.3018 16.6027 27.3226 16.5923 27.3435C16.5819 27.3591 16.5715 27.3799 16.5558 27.4008C16.5454 27.4164 16.535 27.4372 16.5194 27.4528C16.509 27.4737 16.4985 27.4893 16.4881 27.5101C16.4725 27.5258 16.4621 27.5414 16.4517 27.5622C16.436 27.5778 16.4256 27.5935 16.4152 27.6091C16.4048 27.6247 16.3892 27.6455 16.3787 27.6612C16.3683 27.6768 16.3527 27.6924 16.3423 27.7081C16.3319 27.7185 16.3215 27.7341 16.3058 27.7497C16.2954 27.7654 16.285 27.781 16.2694 27.7966C16.259 27.8122 16.2485 27.8226 16.2381 27.8383C16.2225 27.8539 16.2121 27.8643 16.2017 27.8799C16.186 27.8956 16.1756 27.906 16.1652 27.9216C16.1548 27.932 16.1392 27.9476 16.1287 27.9581C16.1183 27.9737 16.1079 27.9841 16.0923 27.9997C16.0819 28.0101 16.0715 28.0206 16.0558 28.0362C16.0454 28.0466 16.035 28.057 16.0246 28.0726C16.009 28.083 15.9985 28.0935 15.9881 28.1039C15.9725 28.1195 15.9621 28.1299 15.9517 28.1403C15.9412 28.1507 15.9256 28.1612 15.9152 28.1716C15.9048 28.182 15.8892 28.1976 15.8787 28.208C15.8683 28.2184 15.8579 28.2289 15.8423 28.2393C15.8319 28.2497 15.8215 28.2601 15.8058 28.2705C15.7954 28.281 15.785 28.2914 15.7746 28.2966C15.759 28.307 15.7485 28.3174 15.7381 28.3278C15.7225 28.3382 15.7121 28.3487 15.7017 28.3591C15.6912 28.3643 15.6756 28.3747 15.6652 28.3851C15.6548 28.3955 15.6444 28.4008 15.6287 28.4112C15.6183 28.4216 15.6079 28.432 15.5923 28.4372C15.5819 28.4476 15.5715 28.4581 15.561 28.4633C15.5454 28.4737 15.535 28.4841 15.5246 28.4893C15.509 28.4997 15.4985 28.5049 15.4881 28.5153C15.4777 28.5205 15.4621 28.531 15.4517 28.5414C15.4412 28.5466 15.4256 28.5518 15.4152 28.5622C15.4048 28.5674 15.3944 28.5778 15.3787 28.5831C15.3683 28.5935 15.3579 28.5987 15.3423 28.6091C15.3319 28.6143 15.3215 28.6195 15.311 28.6299C15.2954 28.6351 15.285 28.6456 15.2746 28.6508C15.259 28.656 15.2485 28.6664 15.2381 28.6716C15.2277 28.6768 15.2121 28.682 15.2017 28.6924L15.1652 28.7133C15.1548 28.7185 15.1444 28.7237 15.1287 28.7289C15.1183 28.7341 15.1079 28.7445 15.0975 28.7497C15.0819 28.7549 15.0715 28.7601 15.061 28.7654C15.0454 28.7706 15.035 28.7758 15.0246 28.7862C15.0142 28.7914 14.9985 28.7966 14.9881 28.8018C14.9777 28.807 14.9621 28.8122 14.9517 28.8175L14.8787 28.8487C14.8683 28.8539 14.8579 28.8591 14.8475 28.8644C14.8319 28.8696 14.8215 28.8748 14.811 28.88C14.8006 28.8852 14.785 28.8904 14.7746 28.8956C14.7642 28.9008 14.7485 28.906 14.7381 28.906C14.7277 28.9112 14.7173 28.9164 14.7017 28.9216L14.6652 28.932L14.634 28.9477C14.6183 28.9529 14.6079 28.9529 14.5975 28.9581C14.5819 28.9633 14.5715 28.9685 14.561 28.9737C14.5506 28.9737 14.535 28.9789 14.5246 28.9841L14.4517 29.0049C14.4412 29.0049 14.4308 29.0101 14.4152 29.0153C14.4048 29.0153 14.3944 29.0205 14.384 29.0257C14.3683 29.0257 14.3579 29.0309 14.3475 29.0309C14.3371 29.0361 14.3215 29.0413 14.311 29.0413L14.2746 29.0517L14.2381 29.0569C14.2277 29.0621 14.2173 29.0621 14.2017 29.0673C14.1912 29.0673 14.1808 29.0725 14.1704 29.0725C14.1548 29.0777 14.1444 29.0777 14.134 29.0829L14.0975 29.0881C14.0871 29.0881 14.0715 29.0933 14.061 29.0933C14.0506 29.0933 14.035 29.0985 14.0246 29.0985C14.0142 29.1037 14.0037 29.1037 13.9881 29.1037L13.9517 29.1089C13.9412 29.1141 13.9308 29.1141 13.9204 29.1141C13.9048 29.1141 13.8944 29.1193 13.884 29.1193C13.8735 29.1193 13.8579 29.1245 13.8475 29.1245C13.8371 29.1245 13.8215 29.1245 13.811 29.1245L13.7746 29.1297C13.7642 29.1297 13.7537 29.1349 13.7381 29.1349C13.7277 29.1349 13.7173 29.1349 13.7069 29.1349L13.6704 29.1401H13.634C13.6235 29.1401 13.6079 29.1401 13.5975 29.1401C13.5871 29.1401 13.5715 29.1401 13.561 29.1453C13.5506 29.1453 13.5402 29.1453 13.5246 29.1453H13.4933C13.4777 29.1453 13.4673 29.1453 13.4569 29.1453H8.02979V21.0359C8.02979 21.0359 8.05583 21.0463 8.10791 21.0568L8.18083 21.0779L8.21208 21.0831L8.28499 21.1039L8.32145 21.1091L8.35791 21.1195L8.39437 21.1247L8.42562 21.1351L8.46208 21.1455L8.49853 21.1507L8.53499 21.1611L8.57145 21.1663L8.60791 21.1767L8.64437 21.1819L8.67562 21.1871L8.71208 21.1975L8.74853 21.2027L8.78499 21.2131L8.85791 21.2235L8.88916 21.2339L8.99853 21.2495L9.03499 21.2599L9.10791 21.2703L9.13916 21.2755L9.17562 21.2859L9.32145 21.3068L9.3527 21.312L9.57145 21.3432L9.6027 21.3484L9.78499 21.3745L9.81624 21.3797L9.96208 21.4005H9.99853L10.035 21.4057L10.0662 21.4109L10.1392 21.4213H10.1756L10.2485 21.4317H10.2798L10.3527 21.4421H10.3892L10.4621 21.4525H10.4985L10.5298 21.4577L10.5662 21.4629H10.6027L10.6392 21.4681H10.6756L10.7121 21.4733H10.7433L10.7798 21.4785H10.8162L10.8527 21.4837H10.8892L10.9256 21.4889H10.9933L11.0298 21.4941H11.1027L11.1392 21.4993H11.2069L11.2433 21.5045H11.3527L11.3892 21.5097H11.5662L11.6027 21.5149H12.0298L12.0662 21.5097H12.2433L12.2798 21.5045H12.3475L12.384 21.4993H12.4569L12.4933 21.4941H12.5662L12.5975 21.4889H12.634L12.6704 21.4837H12.7069L12.7433 21.4785H12.7798L12.811 21.4737L12.8475 21.4685H12.884L12.9569 21.4581H12.9933L13.0298 21.4529L13.061 21.4477L13.134 21.4373H13.1704L13.2433 21.4269L13.2746 21.4217L13.311 21.4165C13.3267 21.4113 13.3371 21.4113 13.3475 21.4113L13.4204 21.4009L13.4569 21.3905C13.4673 21.3905 13.4777 21.3905 13.4933 21.3853L13.5246 21.3801C13.5402 21.3801 13.5506 21.3749 13.561 21.3749C13.5767 21.3697 13.5871 21.3697 13.5975 21.3697L13.634 21.3593L13.7069 21.3489C13.7173 21.3437 13.7277 21.3437 13.7381 21.3385L13.7746 21.3333L13.811 21.3229C13.8214 21.3229 13.8371 21.3177 13.8475 21.3177L13.884 21.3073C13.8944 21.3021 13.9048 21.3021 13.9204 21.2969C13.9308 21.2969 13.9412 21.2917 13.9517 21.2917L13.9881 21.2813C14.0037 21.2761 14.0142 21.2761 14.0246 21.2709C14.035 21.2657 14.0506 21.2657 14.061 21.2605L14.0975 21.2501C14.1079 21.2501 14.1183 21.2449 14.134 21.2397C14.1444 21.2397 14.1548 21.2345 14.1704 21.2293L14.2017 21.2189C14.2173 21.2189 14.2277 21.2137 14.2381 21.2085L14.311 21.1877C14.3214 21.1825 14.3371 21.1773 14.3475 21.1773L14.384 21.1616L14.4152 21.1512C14.4308 21.146 14.4412 21.1408 14.4517 21.1356C14.4673 21.1356 14.4777 21.1304 14.4881 21.1252L14.5246 21.1096C14.535 21.1044 14.5506 21.0992 14.561 21.0992C14.5714 21.094 14.5819 21.0888 14.5975 21.0835C14.6079 21.0784 14.6183 21.0731 14.634 21.0679L14.6652 21.0523L14.7017 21.0367C14.7173 21.0315 14.7277 21.0263 14.7381 21.021C14.7485 21.0158 14.7642 21.0106 14.7746 21.0054L14.811 20.9893L14.8475 20.9685C14.8579 20.9633 14.8683 20.9581 14.8787 20.9529C14.8944 20.9477 14.9048 20.9425 14.9152 20.9372C14.9308 20.9268 14.9412 20.9216 14.9517 20.9164C14.9621 20.9112 14.9777 20.9008 14.9881 20.8956C14.9985 20.8904 15.0142 20.8852 15.0246 20.8747C15.035 20.8695 15.0454 20.8643 15.061 20.8539C15.0714 20.8487 15.0819 20.8435 15.0975 20.833C15.1079 20.8278 15.1183 20.8226 15.1287 20.8122C15.1444 20.807 15.1548 20.7966 15.1652 20.7914C15.1808 20.7862 15.1912 20.7757 15.2017 20.7705C15.2121 20.7601 15.2277 20.7549 15.2381 20.7445C15.2485 20.7341 15.259 20.7289 15.2746 20.7184C15.285 20.7132 15.2954 20.7028 15.311 20.6976C15.3214 20.6872 15.3319 20.6768 15.3423 20.6663C15.3579 20.6611 15.3683 20.6507 15.3787 20.6403C15.3944 20.6351 15.4048 20.6247 15.4152 20.6143C15.4256 20.6039 15.4412 20.5934 15.4517 20.583C15.4621 20.5778 15.4777 20.5674 15.4881 20.557C15.4985 20.5466 15.509 20.5361 15.5246 20.5257C15.535 20.5153 15.5454 20.5049 15.561 20.4945C15.5714 20.4788 15.5819 20.4684 15.5923 20.458C15.6079 20.4476 15.6183 20.4372 15.6287 20.4268C15.6444 20.4111 15.6548 20.4007 15.6652 20.3903C15.6756 20.3747 15.6912 20.3643 15.7017 20.3486C15.7121 20.3382 15.7277 20.3226 15.7381 20.3122C15.7485 20.2966 15.759 20.2861 15.7746 20.2705C15.785 20.2549 15.7954 20.2445 15.8058 20.2289C15.8215 20.2132 15.8319 20.1976 15.8423 20.182C15.8579 20.1664 15.8683 20.1507 15.8787 20.1351C15.8892 20.1195 15.9048 20.1038 15.9152 20.0882C15.9256 20.0674 15.9412 20.0518 15.9517 20.0361C15.9621 20.0153 15.9725 19.9945 15.9881 19.9788C15.9985 19.958 16.009 19.9372 16.0246 19.9163C16.035 19.8955 16.0454 19.8747 16.0558 19.8539C16.0715 19.833 16.0819 19.8122 16.0923 19.7861C16.1079 19.7653 16.1183 19.7393 16.1287 19.7132C16.1392 19.6872 16.1548 19.6611 16.1652 19.6351C16.1756 19.6039 16.1912 19.5727 16.2017 19.5414C16.2121 19.5102 16.2225 19.4789 16.2381 19.4425C16.2485 19.406 16.259 19.3695 16.2694 19.3279C16.285 19.281 16.2954 19.2393 16.3058 19.1925C16.3215 19.1352 16.3319 19.0779 16.3423 19.0154C16.3579 18.9268 16.3683 18.8383 16.3787 18.7497C16.3892 18.6247 16.3944 18.4997 16.3944 18.3695V13.906H13.2121V18.3696C13.2121 18.4373 13.2121 18.505 13.2069 18.5727C13.1965 18.6612 13.186 18.7446 13.1704 18.8227C13.16 18.8748 13.1496 18.9269 13.134 18.9737C13.1235 19.0102 13.1131 19.0518 13.0975 19.0883C13.0871 19.1196 13.0767 19.1508 13.061 19.1821C13.0506 19.2081 13.0402 19.2341 13.0298 19.2602C13.0142 19.2862 13.0037 19.3123 12.9933 19.3331C12.9777 19.3539 12.9673 19.3748 12.9569 19.4008C12.9465 19.4164 12.9308 19.4373 12.9204 19.4581C12.91 19.4737 12.8944 19.4945 12.884 19.5102C12.8735 19.5258 12.8631 19.5414 12.8475 19.5623C12.8371 19.5779 12.8267 19.5935 12.811 19.6039C12.8006 19.6195 12.7902 19.6352 12.7798 19.6508C12.7642 19.6612 12.7537 19.6768 12.7433 19.6873C12.7329 19.7029 12.7173 19.7133 12.7069 19.7289C12.6965 19.7393 12.6808 19.7498 12.6704 19.7602C12.66 19.7706 12.6496 19.7862 12.634 19.7966C12.6235 19.807 12.6131 19.8175 12.5975 19.8279C12.5871 19.8383 12.5767 19.8435 12.5662 19.8539C12.5506 19.8643 12.5402 19.8748 12.5298 19.8852C12.5142 19.8904 12.5037 19.9008 12.4933 19.9112C12.4829 19.9164 12.4673 19.9268 12.4569 19.9373C12.4465 19.9425 12.4308 19.9529 12.4204 19.9581C12.41 19.9685 12.3996 19.9737 12.384 19.9789C12.3735 19.9893 12.3631 19.9946 12.3475 19.9998C12.3371 20.0102 12.3267 20.0154 12.3162 20.0206C12.3006 20.031 12.2902 20.0362 12.2798 20.0415C12.2694 20.0467 12.2537 20.0519 12.2433 20.0571C12.2329 20.0623 12.2173 20.0727 12.2069 20.0779C12.1965 20.0831 12.186 20.0883 12.1704 20.0935C12.16 20.0987 12.1496 20.1039 12.134 20.1092C12.1235 20.1144 12.1131 20.1196 12.1027 20.1196C12.0871 20.1248 12.0767 20.13 12.0662 20.1352C12.0506 20.1404 12.0402 20.1456 12.0298 20.1456C12.0194 20.1508 12.0037 20.156 11.9933 20.1612C11.9829 20.1664 11.9673 20.1664 11.9569 20.1716C11.9465 20.1768 11.936 20.1768 11.9204 20.182C11.91 20.1872 11.8996 20.1872 11.884 20.1924C11.8735 20.1976 11.8631 20.1976 11.8527 20.2028C11.8371 20.2028 11.8267 20.208 11.8162 20.208C11.8058 20.2132 11.7902 20.2132 11.7798 20.2184C11.7694 20.2184 11.7537 20.2236 11.7433 20.2236C11.7329 20.2288 11.7225 20.2288 11.7069 20.234C11.6965 20.234 11.686 20.234 11.6704 20.2392L11.6392 20.2444C11.6235 20.2444 11.6131 20.2496 11.6027 20.2496C11.5871 20.2496 11.5767 20.2496 11.5662 20.2548L11.5298 20.26C11.5194 20.26 11.5037 20.26 11.4933 20.26C11.4829 20.26 11.4725 20.2652 11.4569 20.2652C11.4465 20.2652 11.436 20.2652 11.4204 20.2652C11.41 20.2652 11.3996 20.2704 11.3892 20.2704C11.3735 20.2704 11.3631 20.2704 11.3527 20.2704C11.3423 20.2704 11.3267 20.2704 11.3162 20.2704H11.2798C11.2694 20.2704 11.259 20.2756 11.2433 20.2756H11.2069L11.1756 20.2704H10.9933L10.9621 20.2654H10.9256L10.8892 20.2602H10.8527L10.8162 20.255H10.7798L10.7433 20.2498H10.7121L10.6027 20.2341H10.5662L10.5298 20.2289L10.4985 20.2237L10.2798 20.1925L10.2485 20.1821L10.1392 20.1664L10.1027 20.156L10.0662 20.1508L10.035 20.1404L9.99853 20.1352L9.96208 20.1248L9.92562 20.1196L9.88916 20.1092L9.8527 20.104L9.81624 20.0936L9.78499 20.0832L9.74853 20.0728L9.71208 20.0676L9.6027 20.0364L9.57145 20.026L9.38916 19.9737L9.3527 19.9581L9.32145 19.9477L9.24853 19.9268L9.21208 19.9112L9.13916 19.8904L9.10791 19.8747L9.07145 19.8643L9.03499 19.8487L8.99853 19.8383L8.92562 19.8071L8.88916 19.7967L8.85791 19.781L8.82145 19.7654L8.78499 19.755L8.67562 19.7081L8.64437 19.6925L8.42562 19.5987L8.39437 19.5831L8.28499 19.5362L8.24853 19.5154L8.21208 19.4997L8.18083 19.4841L8.14437 19.4685L8.10791 19.4477Z" fill="url(#paint1_linear_552_66744)"/>
<path fill-rule="evenodd" clip-rule="evenodd" d="M18.3424 14.8799C18.3164 14.9008 18.2956 14.9216 18.2695 14.9477V9.90599C18.2695 9.64036 18.2956 9.37994 18.3424 9.12473C18.3529 9.07265 18.3685 9.02056 18.3789 8.96328C18.3893 8.92161 18.4049 8.87473 18.4154 8.82786C18.4258 8.79141 18.4414 8.74974 18.4518 8.70807C18.4622 8.67162 18.4727 8.63515 18.4883 8.6039C18.4987 8.56745 18.5091 8.53619 18.5247 8.50494C18.5352 8.47369 18.5456 8.44243 18.556 8.41119C18.5716 8.38515 18.582 8.3539 18.5924 8.32786C18.6081 8.30182 18.6185 8.27578 18.6289 8.24974C18.6393 8.2237 18.6549 8.19766 18.6654 8.17162C18.6758 8.15078 18.6914 8.12474 18.7018 8.10391C18.7122 8.07787 18.7227 8.05703 18.7383 8.03621C18.7487 8.01017 18.7591 7.98933 18.7747 7.9685C18.7852 7.94766 18.7956 7.92683 18.806 7.90601C18.8216 7.88517 18.832 7.86434 18.8424 7.84871C18.8581 7.82787 18.8685 7.80705 18.8789 7.79142C18.8893 7.77058 18.9049 7.75497 18.9154 7.73413C18.9258 7.7185 18.9362 7.69767 18.9518 7.68205C18.9622 7.66642 18.9727 7.64559 18.9883 7.62997C18.9987 7.61434 19.0091 7.59871 19.0195 7.58309C19.0352 7.56746 19.0456 7.54663 19.056 7.53101C19.0716 7.51538 19.082 7.49975 19.0924 7.48934C19.1029 7.47371 19.1185 7.45809 19.1289 7.44246C19.1393 7.42683 19.1549 7.41121 19.1654 7.39558C19.1758 7.38518 19.1862 7.36954 19.2018 7.35391C19.2122 7.34351 19.2227 7.32787 19.2383 7.31225C19.2487 7.30185 19.2591 7.28621 19.2695 7.27579C19.2852 7.26017 19.2956 7.24975 19.306 7.23413C19.3216 7.22373 19.332 7.20809 19.3424 7.19767C19.3529 7.18727 19.3685 7.17163 19.3789 7.16122C19.3893 7.15082 19.3997 7.13518 19.4154 7.12477C19.4258 7.11437 19.4362 7.10393 19.4518 7.08831C19.4622 7.07791 19.4727 7.06747 19.4831 7.05706C19.4987 7.04666 19.5091 7.03622 19.5195 7.02061C19.5352 7.01021 19.5456 6.99977 19.556 6.98935C19.5664 6.97895 19.582 6.96851 19.5924 6.9581C19.6028 6.9477 19.6185 6.93726 19.6289 6.92685C19.6393 6.91645 19.6497 6.90601 19.6653 6.90081C19.6757 6.89041 19.6862 6.87998 19.7018 6.86955C19.7122 6.85915 19.7226 6.84871 19.7331 6.8383C19.7487 6.8331 19.7591 6.82267 19.7695 6.81226C19.7851 6.80186 19.7955 6.79663 19.806 6.78622C19.8164 6.77582 19.832 6.77059 19.8424 6.76018C19.8528 6.74978 19.8633 6.74455 19.8789 6.73414C19.8893 6.72374 19.8997 6.71851 19.9153 6.7081C19.9257 6.7029 19.9362 6.69247 19.9466 6.68206C19.9622 6.67686 19.9726 6.66643 19.983 6.66122C19.9987 6.65082 20.0091 6.64559 20.0195 6.63518C20.0299 6.62998 20.0455 6.61955 20.0559 6.61434C20.0663 6.60914 20.082 6.59871 20.0924 6.5935C20.1028 6.5831 20.1132 6.57787 20.1288 6.57266C20.1392 6.56226 20.1497 6.55703 20.1653 6.55182C20.1757 6.54142 20.1861 6.53619 20.1965 6.53098C20.2122 6.52058 20.2226 6.51535 20.233 6.51014C20.2486 6.50494 20.259 6.49451 20.2695 6.4893L20.3059 6.46846L20.3424 6.45283C20.3528 6.44763 20.3632 6.44243 20.3788 6.43199C20.3892 6.42679 20.3996 6.42159 20.4101 6.41637C20.4257 6.41117 20.4361 6.40597 20.4465 6.40074C20.4621 6.39554 20.4726 6.39034 20.483 6.38511C20.4934 6.37991 20.509 6.37471 20.5194 6.36949C20.5298 6.36429 20.5455 6.35909 20.5559 6.35386L20.5923 6.33823C20.6027 6.33303 20.6132 6.32783 20.6288 6.32261C20.6392 6.31741 20.6496 6.31221 20.66 6.30698C20.6757 6.30178 20.6861 6.29658 20.6965 6.29135C20.7069 6.29135 20.7225 6.28615 20.7329 6.28095C20.7433 6.27575 20.759 6.27055 20.7694 6.26533C20.7798 6.26533 20.7902 6.26013 20.8059 6.25493L20.8423 6.24453C20.8527 6.23933 20.8631 6.23413 20.8736 6.2289C20.8892 6.2289 20.8996 6.2237 20.91 6.2185C20.9256 6.2185 20.9361 6.2133 20.9465 6.2081C20.9569 6.2081 20.9725 6.2029 20.9829 6.1977L21.0194 6.1873C21.0298 6.1873 21.0402 6.1821 21.0558 6.1769C21.0662 6.1769 21.0767 6.1717 21.0923 6.1717C21.1027 6.1665 21.1131 6.1665 21.1235 6.1613C21.1392 6.1561 21.1496 6.1561 21.16 6.1509L21.1964 6.1457C21.2068 6.1405 21.2225 6.1405 21.2329 6.1353C21.2433 6.1353 21.2537 6.1301 21.2693 6.1301C21.2797 6.1301 21.2902 6.1249 21.3058 6.1249L21.3371 6.1145L21.3735 6.1093C21.3891 6.1093 21.3995 6.1041 21.41 6.1041C21.4204 6.1041 21.436 6.0989 21.4464 6.0989C21.4568 6.0989 21.4725 6.0937 21.4829 6.0937L21.5558 6.0833C21.5662 6.0833 21.5766 6.0833 21.587 6.0833C21.6027 6.0781 21.6131 6.0781 21.6235 6.0781L21.6599 6.0729C21.6703 6.0729 21.686 6.0729 21.6964 6.0729C21.7068 6.0729 21.7172 6.0677 21.7329 6.0677C21.7433 6.0677 21.7537 6.0677 21.7693 6.0677C21.7797 6.0677 21.7901 6.0677 21.8006 6.0625H21.837C21.8526 6.0625 21.8631 6.0625 21.8735 6.0625C21.8839 6.0625 21.8995 6.0625 21.9099 6.0625C21.9203 6.0625 21.936 6.0625 21.9464 6.0625H27.3943V25.2966C27.3943 25.4633 27.3839 25.6299 27.363 25.7914C27.3526 25.8695 27.3422 25.9477 27.3266 26.0206C27.3162 26.0831 27.3057 26.1404 27.2953 26.1977C27.2849 26.2445 27.2693 26.2914 27.2589 26.3383C27.2485 26.3799 27.2328 26.4216 27.2224 26.4633C27.212 26.4997 27.1964 26.5362 27.186 26.5726C27.1756 26.6091 27.1651 26.6404 27.1495 26.6716C27.1391 26.7029 27.1287 26.7341 27.1131 26.7654C27.1027 26.7966 27.0922 26.8226 27.0818 26.8539C27.0662 26.8799 27.0558 26.906 27.0454 26.9372C27.0297 26.9581 27.0193 26.9841 27.0089 27.0102C26.9985 27.0362 26.9829 27.0622 26.9724 27.0831C26.962 27.1091 26.9516 27.13 26.936 27.1508C26.9256 27.1768 26.9152 27.1977 26.8995 27.2185C26.8891 27.2393 26.8787 27.2602 26.8631 27.281C26.8527 27.3018 26.8422 27.3226 26.8318 27.3435C26.8162 27.3591 26.8058 27.3799 26.7954 27.4008C26.785 27.4164 26.7693 27.4372 26.7589 27.4529C26.7485 27.4737 26.7329 27.4893 26.7225 27.5101C26.7121 27.5258 26.7016 27.5414 26.686 27.5622C26.6756 27.5779 26.6652 27.5935 26.6496 27.6091C26.6392 27.6247 26.6287 27.6404 26.6183 27.6612C26.6027 27.6768 26.5923 27.6924 26.5819 27.7081C26.5662 27.7185 26.5558 27.7341 26.5454 27.7497C26.535 27.7654 26.5194 27.781 26.509 27.7966C26.4986 27.807 26.4881 27.8226 26.4725 27.8383C26.4621 27.8539 26.4517 27.8643 26.436 27.8799C26.4256 27.8956 26.4152 27.906 26.4048 27.9216C26.3892 27.932 26.3788 27.9476 26.3683 27.9581C26.3527 27.9737 26.3423 27.9841 26.3319 27.9945C26.3215 28.0101 26.3058 28.0206 26.2954 28.0362C26.285 28.0466 26.2694 28.057 26.259 28.0726C26.2486 28.083 26.2381 28.0935 26.2225 28.1039C26.2121 28.1195 26.2017 28.1299 26.1861 28.1403C26.1757 28.1507 26.1652 28.1612 26.1548 28.1716C26.1392 28.182 26.1288 28.1976 26.1184 28.208C26.1027 28.2185 26.0923 28.2289 26.0819 28.2393C26.0715 28.2497 26.0559 28.2601 26.0455 28.2706C26.0351 28.281 26.0194 28.2862 26.009 28.2966C25.9986 28.307 25.9882 28.3174 25.9726 28.3279C25.9622 28.3383 25.9517 28.3487 25.9413 28.3591C25.9257 28.3643 25.9153 28.3747 25.9048 28.3851C25.8892 28.3955 25.8788 28.4008 25.8684 28.4112C25.858 28.4216 25.8424 28.432 25.8319 28.4372C25.8215 28.4476 25.8059 28.4581 25.7955 28.4633C25.7851 28.4737 25.7746 28.4841 25.759 28.4893C25.7486 28.4997 25.7382 28.5049 25.7226 28.5153C25.7122 28.5205 25.7017 28.531 25.6913 28.5414C25.6757 28.5466 25.6653 28.5518 25.6549 28.5622C25.6392 28.5674 25.6288 28.5778 25.6184 28.5831C25.608 28.5935 25.5924 28.5987 25.582 28.6091C25.5716 28.6143 25.5611 28.6195 25.5455 28.6299C25.5351 28.6351 25.5247 28.6456 25.5091 28.6508L25.4778 28.6716L25.4414 28.6924L25.4049 28.7081C25.3945 28.7185 25.3789 28.7237 25.3684 28.7289C25.358 28.7341 25.3424 28.7445 25.332 28.7497C25.3216 28.7549 25.3112 28.7601 25.2955 28.7654C25.2851 28.7706 25.2747 28.7758 25.2591 28.7862C25.2487 28.7914 25.2382 28.7966 25.2278 28.8018C25.2122 28.807 25.2018 28.8122 25.1914 28.8175L25.082 28.8643C25.0716 28.8695 25.0612 28.8747 25.0456 28.88C25.0352 28.8852 25.0247 28.8904 25.0143 28.8956C24.9987 28.9008 24.9883 28.9008 24.9778 28.906C24.9622 28.9112 24.9518 28.9164 24.9414 28.9216L24.905 28.932L24.8685 28.9477C24.8581 28.9529 24.8477 28.9529 24.832 28.958C24.8216 28.9632 24.8112 28.9685 24.7956 28.9737C24.7852 28.9737 24.7748 28.9789 24.7643 28.9841L24.6914 29.0049C24.681 29.0049 24.6654 29.0101 24.655 29.0153C24.6446 29.0153 24.6341 29.0205 24.6185 29.0257C24.6081 29.0257 24.5977 29.0309 24.5821 29.0309C24.5717 29.0361 24.5612 29.0413 24.5508 29.0413L24.5144 29.0517L24.4779 29.0569C24.4675 29.0621 24.4519 29.0621 24.4414 29.0673C24.431 29.0673 24.4154 29.0725 24.405 29.0725L24.3685 29.0829L24.3321 29.0881C24.3217 29.0881 24.3112 29.0933 24.3008 29.0933C24.2852 29.0933 24.2748 29.0985 24.2644 29.0985C24.2488 29.1037 24.2383 29.1037 24.2279 29.1037L24.1915 29.1089C24.1811 29.1141 24.1706 29.1141 24.155 29.1141C24.1446 29.1141 24.1342 29.1193 24.1186 29.1193C24.1082 29.1193 24.0977 29.1245 24.0873 29.1245C24.0717 29.1245 24.0613 29.1245 24.0509 29.1245L24.0144 29.1297C24.004 29.1297 23.9884 29.1349 23.978 29.1349C23.9676 29.1349 23.9519 29.1349 23.9415 29.1349L23.905 29.1401H23.8686C23.8582 29.1401 23.8478 29.1401 23.8373 29.1401C23.8217 29.1401 23.8113 29.1401 23.8009 29.1453C23.7905 29.1453 23.7748 29.1453 23.7644 29.1453H23.728C23.7176 29.1453 23.7071 29.1453 23.6967 29.1453H18.2695V20.2599C18.2956 20.2859 18.3164 20.3068 18.3424 20.3276C18.3581 20.338 18.3685 20.3484 18.3789 20.3589C18.3945 20.3693 18.4049 20.3745 18.4154 20.3849C18.4258 20.3953 18.4414 20.4057 18.4518 20.4162C18.4622 20.4214 18.4779 20.4318 18.4883 20.4422C18.4987 20.4526 18.5091 20.4578 18.5247 20.4682C18.5352 20.4786 18.5456 20.4839 18.556 20.4943L18.5924 20.5203C18.6081 20.5255 18.6185 20.5359 18.6289 20.5464L18.6654 20.5672C18.6758 20.5776 18.6914 20.5828 18.7018 20.5932C18.7122 20.5984 18.7227 20.6088 18.7383 20.6141L18.7747 20.6401C18.7852 20.6453 18.7956 20.6505 18.806 20.6609C18.8216 20.6661 18.832 20.6766 18.8424 20.6818L18.9518 20.7443C18.9622 20.7495 18.9727 20.7547 18.9883 20.7651C18.9987 20.7703 19.0091 20.7755 19.0195 20.7807L19.056 20.8016L19.0924 20.8172L19.1289 20.838C19.1393 20.8432 19.1549 20.8484 19.1654 20.8537L19.2018 20.8693L19.2383 20.8901L19.2695 20.9058L19.4518 20.9839L19.4831 20.9995L19.5195 21.0099C19.5352 21.0151 19.5456 21.0203 19.556 21.0255L19.5924 21.0412C19.6028 21.0412 19.6185 21.0464 19.6289 21.0516C19.6393 21.0568 19.6497 21.062 19.6653 21.0672L19.7018 21.0776L19.7331 21.0932C19.7487 21.0932 19.7591 21.0984 19.7695 21.1036C19.7799 21.1088 19.7955 21.1088 19.806 21.114L19.8424 21.1244L19.8789 21.14L19.9153 21.1504L19.9466 21.1608L20.1653 21.2233L20.1966 21.2337L20.233 21.2389L20.3059 21.2598L20.3424 21.265L20.3789 21.2754L20.4101 21.2858L20.4466 21.291L20.483 21.3014L20.5195 21.3066L20.5559 21.317L20.6288 21.3274L20.6601 21.3378L20.733 21.3482L20.7695 21.3586L20.8424 21.369L20.8736 21.3742L20.9466 21.3846L20.983 21.395L21.0924 21.4106H21.1236L21.3059 21.4366L21.3372 21.4418L21.3736 21.447H21.4101L21.483 21.4574H21.5195L21.5559 21.4626L21.5872 21.4678H21.6236L21.6601 21.473H21.6965L21.733 21.4782H21.7694L21.8007 21.4834H21.8371L21.8736 21.4886H21.9101L21.9465 21.4938H22.0194L22.0507 21.499H22.1236L22.1601 21.5042H22.233L22.2642 21.5094H22.4465L22.4778 21.5146H22.9413L22.9778 21.5094H23.1601L23.1913 21.5042H23.3371L23.3736 21.499H23.4413L23.4621 21.4938H23.5507L23.5871 21.4886H23.6236L23.6549 21.4834H23.6913L23.7278 21.4782H23.7642L23.8007 21.473H23.8371L23.8684 21.4678H23.9048L23.9777 21.4574H24.0143L24.0872 21.447L24.1185 21.4418H24.1549L24.2643 21.4262H24.3008L24.332 21.421L24.5508 21.3898L24.582 21.3846L24.7643 21.3585L24.7956 21.3533L25.0143 21.3221L25.0456 21.3117L25.1914 21.2908L25.2279 21.2804L25.2591 21.2752L25.332 21.2648L25.3685 21.2544L25.4414 21.244L25.4779 21.2336L25.5091 21.2284L25.5456 21.2232L25.582 21.2128L25.6549 21.2024L25.6914 21.192L25.7227 21.1868L25.7591 21.1764L25.7956 21.1712L25.832 21.1608L25.8685 21.1556L25.9049 21.1452L25.9414 21.14L25.9726 21.1296L26.0091 21.1244L26.0455 21.114L26.082 21.1088L26.1549 21.088L26.1862 21.0828L26.2591 21.062L26.2955 21.0568L26.3685 21.0359V19.4109L26.332 19.4266L26.2955 19.4474L26.2591 19.463L26.2226 19.4838L26.1862 19.4995L26.1549 19.5203L26.082 19.5516L26.0456 19.5724L25.9726 19.6037L25.9414 19.6193L25.832 19.6662L25.7956 19.687L25.7591 19.6974L25.7227 19.713L25.6914 19.7287L25.5456 19.7912L25.5091 19.8016L25.4779 19.8172L25.4414 19.8328L25.405 19.8432L25.3685 19.8588L25.332 19.8692L25.2956 19.8849L25.2591 19.8953L25.2279 19.9109L25.155 19.9317L25.1185 19.9474L25.0456 19.9682L25.0143 19.9786L24.7956 20.0411L24.7643 20.0515L24.6914 20.0723L24.655 20.0775L24.582 20.0984L24.5508 20.1036L24.4779 20.1244L24.405 20.1348L24.3685 20.1452L24.332 20.1504L24.3008 20.1608L24.1914 20.1764L24.155 20.1868L24.1185 20.192L24.0873 20.1972L23.8685 20.2285L23.8373 20.2337H23.8008L23.6914 20.2493H23.655L23.6237 20.2545L23.5873 20.2597H23.5508L23.5143 20.2653H23.4414L23.4049 20.2705H23.3372L23.3008 20.2757H23.1914C23.181 20.2757 23.1706 20.2757 23.1602 20.2757H23.0508L23.0143 20.2705C23.0039 20.2705 22.9935 20.2705 22.9779 20.2705C22.9675 20.2705 22.957 20.2705 22.9414 20.2705L22.9101 20.2653H22.8372L22.8008 20.2601C22.7904 20.2601 22.7799 20.2601 22.7643 20.2549C22.7539 20.2549 22.7435 20.2549 22.7279 20.2549L22.6966 20.2497L22.5508 20.2289C22.5404 20.2289 22.5299 20.2289 22.5143 20.2237C22.5039 20.2237 22.4935 20.2185 22.4779 20.2185C22.4675 20.2185 22.457 20.2133 22.4466 20.2133C22.431 20.2081 22.4206 20.2081 22.4102 20.2081C22.3998 20.2029 22.3841 20.2029 22.3737 20.1977C22.3633 20.1977 22.3477 20.1925 22.3373 20.1925C22.3269 20.1873 22.3164 20.1873 22.3008 20.1821C22.2904 20.1821 22.28 20.1769 22.2644 20.1769L22.2331 20.1665C22.2175 20.1613 22.2071 20.1613 22.1966 20.1561C22.181 20.1561 22.1706 20.1509 22.1602 20.1457C22.1498 20.1457 22.1342 20.1405 22.1237 20.1353C22.1133 20.1353 22.0977 20.1301 22.0873 20.1249C22.0769 20.1249 22.0664 20.1197 22.0508 20.1145C22.0404 20.1093 22.03 20.1093 22.0196 20.1041C22.004 20.0989 21.9935 20.0937 21.9831 20.0937C21.9675 20.0885 21.9571 20.0833 21.9467 20.078C21.9363 20.0728 21.9206 20.0676 21.9102 20.0676C21.8998 20.0624 21.8842 20.0572 21.8738 20.052C21.8634 20.0468 21.8529 20.0416 21.8373 20.0364C21.8269 20.0312 21.8165 20.026 21.8009 20.0208C21.7905 20.0156 21.78 20.0104 21.7696 20.0051C21.754 19.9999 21.7436 19.9947 21.7332 19.9895C21.7175 19.9843 21.7071 19.9791 21.6967 19.9739C21.6863 19.9687 21.6707 19.9635 21.6602 19.9583C21.6498 19.9479 21.6342 19.9426 21.6238 19.9374C21.6134 19.9322 21.603 19.927 21.5873 19.9166C21.5769 19.9114 21.5665 19.9062 21.5561 19.901C21.5405 19.8906 21.53 19.8853 21.5196 19.8801C21.504 19.8697 21.4936 19.8645 21.4832 19.8593C21.4728 19.8489 21.4571 19.8437 21.4467 19.8332C21.4363 19.828 21.4207 19.8176 21.4103 19.8124C21.3999 19.802 21.3894 19.7968 21.3738 19.7864C21.3634 19.7812 21.353 19.7707 21.3374 19.7603C21.327 19.7551 21.3165 19.7447 21.3061 19.7343C21.2905 19.7291 21.2801 19.7187 21.2697 19.7082C21.254 19.6978 21.2436 19.6874 21.2332 19.6822C21.2228 19.6718 21.2072 19.6614 21.1968 19.651C21.1864 19.6406 21.1707 19.6301 21.1603 19.6197C21.1499 19.6093 21.1395 19.5989 21.1238 19.5884C21.1134 19.578 21.103 19.5624 21.0926 19.552C21.077 19.5416 21.0666 19.5312 21.0561 19.5155C21.0405 19.5051 21.0301 19.4947 21.0197 19.4791C21.0093 19.4687 20.9936 19.453 20.9832 19.4426C20.9728 19.427 20.9572 19.4166 20.9468 19.401C20.9364 19.3853 20.9259 19.3697 20.9103 19.3593C20.8998 19.3435 20.8893 19.3278 20.8737 19.3122C20.8633 19.2966 20.8528 19.281 20.8424 19.2653C20.8268 19.2497 20.8164 19.2289 20.806 19.2132C20.7904 19.1976 20.7799 19.1768 20.7695 19.1612C20.7591 19.1403 20.7435 19.1195 20.7331 19.0987C20.7227 19.083 20.707 19.0622 20.6966 19.0414C20.6862 19.0153 20.6758 18.9945 20.6602 18.9737C20.6498 18.9476 20.6393 18.9216 20.6289 18.9008C20.6133 18.8747 20.6029 18.8487 20.5925 18.8226C20.5768 18.7914 20.5664 18.7601 20.556 18.7341C20.5404 18.7028 20.53 18.6664 20.5196 18.6351C20.5092 18.5935 20.4935 18.557 20.4831 18.5205C20.4727 18.4737 20.4571 18.432 20.4466 18.3851C20.4362 18.3278 20.4206 18.2705 20.4102 18.208C20.3998 18.1195 20.3842 18.031 20.3789 17.9372C20.3685 17.8278 20.3633 17.7185 20.3633 17.6039C20.3633 17.4893 20.3685 17.3799 20.3789 17.2705C20.3841 17.1768 20.3998 17.0882 20.4102 16.9997C20.4206 16.9372 20.4362 16.8799 20.4466 16.8226C20.457 16.7757 20.4727 16.7289 20.4831 16.6872C20.4935 16.6507 20.5091 16.6091 20.5196 16.5726C20.53 16.5414 20.5404 16.5049 20.556 16.4737C20.5664 16.4424 20.5768 16.4164 20.5925 16.3851C20.6029 16.3591 20.6133 16.333 20.6289 16.307C20.6393 16.281 20.6497 16.2601 20.6602 16.2341C20.6758 16.2132 20.6862 16.1872 20.6966 16.1664C20.707 16.1455 20.7227 16.1247 20.7331 16.1039C20.7435 16.083 20.7591 16.0674 20.7695 16.0466C20.7799 16.031 20.7904 16.0101 20.806 15.9945C20.8164 15.9737 20.8268 15.958 20.8424 15.9424C20.8528 15.9268 20.8633 15.9112 20.8737 15.8955C20.8893 15.8799 20.8997 15.8643 20.9101 15.8487C20.9258 15.833 20.9362 15.8174 20.9466 15.807C20.957 15.7914 20.9726 15.7757 20.983 15.7653C20.9934 15.7497 21.0091 15.7393 21.0195 15.7237C21.0299 15.7133 21.0403 15.7028 21.056 15.6872C21.0664 15.6768 21.0768 15.6664 21.0924 15.6507C21.1028 15.6403 21.1132 15.6299 21.1237 15.6195C21.1393 15.6091 21.1497 15.5987 21.1601 15.5882C21.1705 15.5778 21.1862 15.5674 21.1966 15.557C21.207 15.5466 21.2226 15.5362 21.233 15.5257C21.2434 15.5153 21.2539 15.5049 21.2695 15.4997C21.2799 15.4893 21.2903 15.4789 21.3059 15.4685C21.3163 15.4632 21.3268 15.4528 21.3372 15.4424C21.3528 15.4372 21.3632 15.4268 21.3736 15.4164C21.3893 15.4112 21.3997 15.4007 21.4101 15.3955C21.4205 15.3851 21.4361 15.3799 21.4465 15.3695C21.4569 15.3643 21.4726 15.3591 21.483 15.3487C21.4934 15.3435 21.5038 15.333 21.5194 15.3278C21.5298 15.3226 21.5403 15.3122 21.5559 15.307C21.5663 15.3018 21.5767 15.2966 21.5872 15.2862C21.6028 15.281 21.6132 15.2758 21.6236 15.2705C21.634 15.2601 21.6496 15.2549 21.6601 15.2497C21.6705 15.2445 21.6861 15.2393 21.6965 15.2341C21.7069 15.2289 21.7174 15.2237 21.733 15.2132C21.7434 15.208 21.7538 15.2028 21.7694 15.1976C21.7798 15.1924 21.7903 15.1872 21.8007 15.182C21.8163 15.1768 21.8267 15.1716 21.8371 15.1664C21.8528 15.1664 21.8632 15.1612 21.8736 15.156C21.884 15.1507 21.8996 15.1455 21.91 15.1403C21.9204 15.1351 21.9361 15.1299 21.9465 15.1247C21.9569 15.1247 21.9673 15.1195 21.9829 15.1143C21.9933 15.1091 22.0038 15.1039 22.0194 15.1039C22.0298 15.0987 22.0402 15.0935 22.0506 15.0883C22.0663 15.0883 22.0767 15.083 22.0871 15.0778L22.1236 15.0674C22.134 15.0674 22.1496 15.0622 22.16 15.057C22.1704 15.057 22.1808 15.0518 22.1965 15.0466C22.2069 15.0466 22.2173 15.0414 22.2329 15.0414L22.2642 15.031C22.2798 15.0258 22.2902 15.0258 22.3006 15.0206C22.3162 15.0206 22.3267 15.0154 22.3371 15.0154C22.3475 15.0101 22.3631 15.0101 22.3735 15.0049C22.3839 15.0049 22.3996 15.0049 22.41 14.9997C22.4204 14.9997 22.4308 14.9945 22.4464 14.9945C22.4568 14.9893 22.4673 14.9893 22.4777 14.9893C22.4933 14.9841 22.5037 14.9841 22.5141 14.9789L22.6235 14.9633H22.66L22.6964 14.958L22.7277 14.9528C22.7433 14.9528 22.7537 14.9476 22.7641 14.9476C22.7798 14.9476 22.7902 14.9476 22.8006 14.9476L22.837 14.9424H22.8735L22.9099 14.9372H22.9412C22.9568 14.9372 22.9672 14.9372 22.9776 14.932C22.9933 14.932 23.0037 14.932 23.0141 14.932H23.1599C23.1703 14.932 23.1808 14.932 23.1912 14.932H23.337L23.3734 14.9372H23.4411L23.4776 14.9424H23.5143L23.5508 14.9476H23.5872L23.6237 14.9528H23.6549L23.7279 14.9632H23.7643L23.8372 14.9737L23.8685 14.9789L23.9049 14.9841H23.9414L24.0508 14.9997L24.0872 15.0101L24.1185 15.0153L24.2643 15.0362L24.3008 15.0466L24.332 15.0518L24.3685 15.057L24.4049 15.0674L24.4414 15.0726L24.4778 15.0831L24.5143 15.0883L24.5507 15.0987L24.582 15.1039L24.6914 15.1351L24.7278 15.1404L24.7643 15.1508L24.7955 15.1612L25.0143 15.2237L25.0455 15.2341L25.082 15.2445L25.1184 15.2601L25.1913 15.281L25.2278 15.2966L25.2591 15.307L25.2955 15.3174L25.332 15.333L25.3684 15.3435L25.4413 15.3747L25.4778 15.3851L25.509 15.4007L25.5455 15.4164L25.5819 15.4268L25.6913 15.4737L25.7226 15.4893L25.9413 15.583L25.9727 15.5987L26.0091 15.6195L26.082 15.6507L26.1185 15.6716L26.1549 15.6872L26.1862 15.7028L26.2226 15.7237L26.2591 15.7393L26.2955 15.7601L26.332 15.7757L26.3685 15.7966V14.1664L26.332 14.1612L26.2226 14.1299L26.1862 14.1247L26.1549 14.1143L26.1185 14.1091L26.0455 14.0883L26.0091 14.0831L25.9726 14.0726L25.9414 14.0674L25.9049 14.057L25.8685 14.0518L25.832 14.0414L25.7956 14.0362L25.7591 14.0258L25.7227 14.0205L25.6914 14.0101L25.6185 13.9997L25.582 13.9893L25.5091 13.9789L25.4779 13.9685L25.4049 13.9581L25.3685 13.9477L25.2956 13.9372L25.2591 13.9268L25.2279 13.9216L25.1185 13.906L25.082 13.8956L25.0456 13.8904L25.0143 13.8851L24.8685 13.8643L24.832 13.8539L24.7956 13.8487L24.7643 13.8435L24.582 13.8174L24.5508 13.8122L24.4779 13.8018H24.4414L24.332 13.7862L24.3008 13.781L24.2643 13.7758H24.2279L24.1185 13.7601L24.0873 13.7549H24.0508L23.9779 13.7445H23.9414L23.905 13.7393H23.8685L23.8373 13.7341L23.8008 13.7289H23.7643L23.7279 13.7236H23.6914L23.655 13.7184H23.5873L23.5508 13.7132H23.5143L23.4779 13.708H23.3737L23.3372 13.7028H23.2279L23.1914 13.6976H23.0508L23.0143 13.6924H22.4102L22.3737 13.6976H22.2331L22.1966 13.7029H22.1237L22.0873 13.7081H22.0195L21.9831 13.7133H21.9102L21.8737 13.7185H21.8373L21.8008 13.7237H21.7696L21.7331 13.7289H21.6967L21.6237 13.7393H21.5873L21.556 13.7446H21.5196L21.4102 13.7602H21.3737L21.3373 13.7654L21.306 13.7706L21.2331 13.781H21.1967L21.1237 13.7914L21.0925 13.7966L20.9102 13.8227L20.8738 13.8331L20.8425 13.8383L20.7331 13.8539L20.6967 13.8644L20.6602 13.8696L20.629 13.8748L20.5925 13.8852L20.5561 13.8904L20.5196 13.9008L20.4832 13.906L20.4467 13.9164L20.4102 13.9217L20.379 13.9321L20.3425 13.9373L20.2696 13.9581L20.2332 13.9633L20.1967 13.9737L20.1655 13.9842L19.9467 14.0467L19.9155 14.0571L19.8425 14.0779L19.8061 14.0935C19.7957 14.0935 19.78 14.0987 19.7696 14.1039L19.7332 14.1144C19.7228 14.1196 19.7123 14.1248 19.7019 14.13L19.6655 14.1404L19.629 14.156C19.6186 14.1612 19.603 14.1612 19.5926 14.1664C19.5822 14.1716 19.5665 14.1768 19.5561 14.1821L19.5197 14.1977C19.5092 14.1977 19.4988 14.2029 19.4832 14.2081L19.4518 14.2237L19.2695 14.3018L19.2383 14.3174L19.2018 14.3331L19.1654 14.3539C19.155 14.3591 19.1393 14.3643 19.1289 14.3695L19.0925 14.3851L19.0195 14.4268C19.0091 14.432 18.9987 14.4372 18.9883 14.4424C18.9727 14.4528 18.9622 14.4581 18.9518 14.4633L18.8789 14.5049C18.8685 14.5101 18.8581 14.5206 18.8425 14.5258C18.832 14.531 18.8216 14.5414 18.806 14.5466C18.7956 14.5518 18.7852 14.5622 18.7747 14.5674C18.7591 14.5778 18.7487 14.5831 18.7383 14.5935C18.7227 14.5987 18.7122 14.6091 18.7018 14.6143C18.6914 14.6247 18.6758 14.6299 18.6654 14.6404L18.6289 14.6612C18.6185 14.6716 18.6081 14.6768 18.5925 14.6872L18.556 14.7133C18.5456 14.7237 18.5352 14.7289 18.5247 14.7393C18.5091 14.7497 18.4987 14.7549 18.4883 14.7654C18.4779 14.7758 18.4622 14.781 18.4518 14.7914C18.4414 14.8018 18.4258 14.8122 18.4154 14.8226C18.405 14.8279 18.3945 14.8383 18.3789 14.8487C18.3685 14.8591 18.3581 14.8695 18.3424 14.8799Z" fill="white"/>
<path fill-rule="evenodd" clip-rule="evenodd" d="M18.3424 14.8799C18.3164 14.9008 18.2956 14.9216 18.2695 14.9477V9.90599C18.2695 9.64036 18.2956 9.37994 18.3424 9.12473C18.3529 9.07265 18.3685 9.02056 18.3789 8.96328C18.3893 8.92161 18.4049 8.87473 18.4154 8.82786C18.4258 8.79141 18.4414 8.74974 18.4518 8.70807C18.4622 8.67162 18.4727 8.63515 18.4883 8.6039C18.4987 8.56745 18.5091 8.53619 18.5247 8.50494C18.5352 8.47369 18.5456 8.44243 18.556 8.41119C18.5716 8.38515 18.582 8.3539 18.5924 8.32786C18.6081 8.30182 18.6185 8.27578 18.6289 8.24974C18.6393 8.2237 18.6549 8.19766 18.6654 8.17162C18.6758 8.15078 18.6914 8.12474 18.7018 8.10391C18.7122 8.07787 18.7227 8.05703 18.7383 8.03621C18.7487 8.01017 18.7591 7.98933 18.7747 7.9685C18.7852 7.94766 18.7956 7.92683 18.806 7.90601C18.8216 7.88517 18.832 7.86434 18.8424 7.84871C18.8581 7.82787 18.8685 7.80705 18.8789 7.79142C18.8893 7.77058 18.9049 7.75497 18.9154 7.73413C18.9258 7.7185 18.9362 7.69767 18.9518 7.68205C18.9622 7.66642 18.9727 7.64559 18.9883 7.62997C18.9987 7.61434 19.0091 7.59871 19.0195 7.58309C19.0352 7.56746 19.0456 7.54663 19.056 7.53101C19.0716 7.51538 19.082 7.49975 19.0924 7.48934C19.1029 7.47371 19.1185 7.45809 19.1289 7.44246C19.1393 7.42683 19.1549 7.41121 19.1654 7.39558C19.1758 7.38518 19.1862 7.36954 19.2018 7.35391C19.2122 7.34351 19.2227 7.32787 19.2383 7.31225C19.2487 7.30185 19.2591 7.28621 19.2695 7.27579C19.2852 7.26017 19.2956 7.24975 19.306 7.23413C19.3216 7.22373 19.332 7.20809 19.3424 7.19767C19.3529 7.18727 19.3685 7.17163 19.3789 7.16122C19.3893 7.15082 19.3997 7.13518 19.4154 7.12477C19.4258 7.11437 19.4362 7.10393 19.4518 7.08831C19.4622 7.07791 19.4727 7.06747 19.4831 7.05706C19.4987 7.04666 19.5091 7.03622 19.5195 7.02061C19.5352 7.01021 19.5456 6.99977 19.556 6.98935C19.5664 6.97895 19.582 6.96851 19.5924 6.9581C19.6028 6.9477 19.6185 6.93726 19.6289 6.92685C19.6393 6.91645 19.6497 6.90601 19.6653 6.90081C19.6757 6.89041 19.6862 6.87998 19.7018 6.86955C19.7122 6.85915 19.7226 6.84871 19.7331 6.8383C19.7487 6.8331 19.7591 6.82267 19.7695 6.81226C19.7851 6.80186 19.7955 6.79663 19.806 6.78622C19.8164 6.77582 19.832 6.77059 19.8424 6.76018C19.8528 6.74978 19.8633 6.74455 19.8789 6.73414C19.8893 6.72374 19.8997 6.71851 19.9153 6.7081C19.9257 6.7029 19.9362 6.69247 19.9466 6.68206C19.9622 6.67686 19.9726 6.66643 19.983 6.66122C19.9987 6.65082 20.0091 6.64559 20.0195 6.63518C20.0299 6.62998 20.0455 6.61955 20.0559 6.61434C20.0663 6.60914 20.082 6.59871 20.0924 6.5935C20.1028 6.5831 20.1132 6.57787 20.1288 6.57266C20.1392 6.56226 20.1497 6.55703 20.1653 6.55182C20.1757 6.54142 20.1861 6.53619 20.1965 6.53098C20.2122 6.52058 20.2226 6.51535 20.233 6.51014C20.2486 6.50494 20.259 6.49451 20.2695 6.4893L20.3059 6.46846L20.3424 6.45283C20.3528 6.44763 20.3632 6.44243 20.3788 6.43199C20.3892 6.42679 20.3996 6.42159 20.4101 6.41637C20.4257 6.41117 20.4361 6.40597 20.4465 6.40074C20.4621 6.39554 20.4726 6.39034 20.483 6.38511C20.4934 6.37991 20.509 6.37471 20.5194 6.36949C20.5298 6.36429 20.5455 6.35909 20.5559 6.35386L20.5923 6.33823C20.6027 6.33303 20.6132 6.32783 20.6288 6.32261C20.6392 6.31741 20.6496 6.31221 20.66 6.30698C20.6757 6.30178 20.6861 6.29658 20.6965 6.29135C20.7069 6.29135 20.7225 6.28615 20.7329 6.28095C20.7433 6.27575 20.759 6.27055 20.7694 6.26533C20.7798 6.26533 20.7902 6.26013 20.8059 6.25493L20.8423 6.24453C20.8527 6.23933 20.8631 6.23413 20.8736 6.2289C20.8892 6.2289 20.8996 6.2237 20.91 6.2185C20.9256 6.2185 20.9361 6.2133 20.9465 6.2081C20.9569 6.2081 20.9725 6.2029 20.9829 6.1977L21.0194 6.1873C21.0298 6.1873 21.0402 6.1821 21.0558 6.1769C21.0662 6.1769 21.0767 6.1717 21.0923 6.1717C21.1027 6.1665 21.1131 6.1665 21.1235 6.1613C21.1392 6.1561 21.1496 6.1561 21.16 6.1509L21.1964 6.1457C21.2068 6.1405 21.2225 6.1405 21.2329 6.1353C21.2433 6.1353 21.2537 6.1301 21.2693 6.1301C21.2797 6.1301 21.2902 6.1249 21.3058 6.1249L21.3371 6.1145L21.3735 6.1093C21.3891 6.1093 21.3995 6.1041 21.41 6.1041C21.4204 6.1041 21.436 6.0989 21.4464 6.0989C21.4568 6.0989 21.4725 6.0937 21.4829 6.0937L21.5558 6.0833C21.5662 6.0833 21.5766 6.0833 21.587 6.0833C21.6027 6.0781 21.6131 6.0781 21.6235 6.0781L21.6599 6.0729C21.6703 6.0729 21.686 6.0729 21.6964 6.0729C21.7068 6.0729 21.7172 6.0677 21.7329 6.0677C21.7433 6.0677 21.7537 6.0677 21.7693 6.0677C21.7797 6.0677 21.7901 6.0677 21.8006 6.0625H21.837C21.8526 6.0625 21.8631 6.0625 21.8735 6.0625C21.8839 6.0625 21.8995 6.0625 21.9099 6.0625C21.9203 6.0625 21.936 6.0625 21.9464 6.0625H27.3943V25.2966C27.3943 25.4633 27.3839 25.6299 27.363 25.7914C27.3526 25.8695 27.3422 25.9477 27.3266 26.0206C27.3162 26.0831 27.3057 26.1404 27.2953 26.1977C27.2849 26.2445 27.2693 26.2914 27.2589 26.3383C27.2485 26.3799 27.2328 26.4216 27.2224 26.4633C27.212 26.4997 27.1964 26.5362 27.186 26.5726C27.1756 26.6091 27.1651 26.6404 27.1495 26.6716C27.1391 26.7029 27.1287 26.7341 27.1131 26.7654C27.1027 26.7966 27.0922 26.8226 27.0818 26.8539C27.0662 26.8799 27.0558 26.906 27.0454 26.9372C27.0297 26.9581 27.0193 26.9841 27.0089 27.0102C26.9985 27.0362 26.9829 27.0622 26.9724 27.0831C26.962 27.1091 26.9516 27.13 26.936 27.1508C26.9256 27.1768 26.9152 27.1977 26.8995 27.2185C26.8891 27.2393 26.8787 27.2602 26.8631 27.281C26.8527 27.3018 26.8422 27.3226 26.8318 27.3435C26.8162 27.3591 26.8058 27.3799 26.7954 27.4008C26.785 27.4164 26.7693 27.4372 26.7589 27.4529C26.7485 27.4737 26.7329 27.4893 26.7225 27.5101C26.7121 27.5258 26.7016 27.5414 26.686 27.5622C26.6756 27.5779 26.6652 27.5935 26.6496 27.6091C26.6392 27.6247 26.6287 27.6404 26.6183 27.6612C26.6027 27.6768 26.5923 27.6924 26.5819 27.7081C26.5662 27.7185 26.5558 27.7341 26.5454 27.7497C26.535 27.7654 26.5194 27.781 26.509 27.7966C26.4986 27.807 26.4881 27.8226 26.4725 27.8383C26.4621 27.8539 26.4517 27.8643 26.436 27.8799C26.4256 27.8956 26.4152 27.906 26.4048 27.9216C26.3892 27.932 26.3788 27.9476 26.3683 27.9581C26.3527 27.9737 26.3423 27.9841 26.3319 27.9945C26.3215 28.0101 26.3058 28.0206 26.2954 28.0362C26.285 28.0466 26.2694 28.057 26.259 28.0726C26.2486 28.083 26.2381 28.0935 26.2225 28.1039C26.2121 28.1195 26.2017 28.1299 26.1861 28.1403C26.1757 28.1507 26.1652 28.1612 26.1548 28.1716C26.1392 28.182 26.1288 28.1976 26.1184 28.208C26.1027 28.2185 26.0923 28.2289 26.0819 28.2393C26.0715 28.2497 26.0559 28.2601 26.0455 28.2706C26.0351 28.281 26.0194 28.2862 26.009 28.2966C25.9986 28.307 25.9882 28.3174 25.9726 28.3279C25.9622 28.3383 25.9517 28.3487 25.9413 28.3591C25.9257 28.3643 25.9153 28.3747 25.9048 28.3851C25.8892 28.3955 25.8788 28.4008 25.8684 28.4112C25.858 28.4216 25.8424 28.432 25.8319 28.4372C25.8215 28.4476 25.8059 28.4581 25.7955 28.4633C25.7851 28.4737 25.7746 28.4841 25.759 28.4893C25.7486 28.4997 25.7382 28.5049 25.7226 28.5153C25.7122 28.5205 25.7017 28.531 25.6913 28.5414C25.6757 28.5466 25.6653 28.5518 25.6549 28.5622C25.6392 28.5674 25.6288 28.5778 25.6184 28.5831C25.608 28.5935 25.5924 28.5987 25.582 28.6091C25.5716 28.6143 25.5611 28.6195 25.5455 28.6299C25.5351 28.6351 25.5247 28.6456 25.5091 28.6508L25.4778 28.6716L25.4414 28.6924L25.4049 28.7081C25.3945 28.7185 25.3789 28.7237 25.3684 28.7289C25.358 28.7341 25.3424 28.7445 25.332 28.7497C25.3216 28.7549 25.3112 28.7601 25.2955 28.7654C25.2851 28.7706 25.2747 28.7758 25.2591 28.7862C25.2487 28.7914 25.2382 28.7966 25.2278 28.8018C25.2122 28.807 25.2018 28.8122 25.1914 28.8175L25.082 28.8643C25.0716 28.8695 25.0612 28.8747 25.0456 28.88C25.0352 28.8852 25.0247 28.8904 25.0143 28.8956C24.9987 28.9008 24.9883 28.9008 24.9778 28.906C24.9622 28.9112 24.9518 28.9164 24.9414 28.9216L24.905 28.932L24.8685 28.9477C24.8581 28.9529 24.8477 28.9529 24.832 28.958C24.8216 28.9632 24.8112 28.9685 24.7956 28.9737C24.7852 28.9737 24.7748 28.9789 24.7643 28.9841L24.6914 29.0049C24.681 29.0049 24.6654 29.0101 24.655 29.0153C24.6446 29.0153 24.6341 29.0205 24.6185 29.0257C24.6081 29.0257 24.5977 29.0309 24.5821 29.0309C24.5717 29.0361 24.5612 29.0413 24.5508 29.0413L24.5144 29.0517L24.4779 29.0569C24.4675 29.0621 24.4519 29.0621 24.4414 29.0673C24.431 29.0673 24.4154 29.0725 24.405 29.0725L24.3685 29.0829L24.3321 29.0881C24.3217 29.0881 24.3112 29.0933 24.3008 29.0933C24.2852 29.0933 24.2748 29.0985 24.2644 29.0985C24.2488 29.1037 24.2383 29.1037 24.2279 29.1037L24.1915 29.1089C24.1811 29.1141 24.1706 29.1141 24.155 29.1141C24.1446 29.1141 24.1342 29.1193 24.1186 29.1193C24.1082 29.1193 24.0977 29.1245 24.0873 29.1245C24.0717 29.1245 24.0613 29.1245 24.0509 29.1245L24.0144 29.1297C24.004 29.1297 23.9884 29.1349 23.978 29.1349C23.9676 29.1349 23.9519 29.1349 23.9415 29.1349L23.905 29.1401H23.8686C23.8582 29.1401 23.8478 29.1401 23.8373 29.1401C23.8217 29.1401 23.8113 29.1401 23.8009 29.1453C23.7905 29.1453 23.7748 29.1453 23.7644 29.1453H23.728C23.7176 29.1453 23.7071 29.1453 23.6967 29.1453H18.2695V20.2599C18.2956 20.2859 18.3164 20.3068 18.3424 20.3276C18.3581 20.338 18.3685 20.3484 18.3789 20.3589C18.3945 20.3693 18.4049 20.3745 18.4154 20.3849C18.4258 20.3953 18.4414 20.4057 18.4518 20.4162C18.4622 20.4214 18.4779 20.4318 18.4883 20.4422C18.4987 20.4526 18.5091 20.4578 18.5247 20.4682C18.5352 20.4786 18.5456 20.4839 18.556 20.4943L18.5924 20.5203C18.6081 20.5255 18.6185 20.5359 18.6289 20.5464L18.6654 20.5672C18.6758 20.5776 18.6914 20.5828 18.7018 20.5932C18.7122 20.5984 18.7227 20.6088 18.7383 20.6141L18.7747 20.6401C18.7852 20.6453 18.7956 20.6505 18.806 20.6609C18.8216 20.6661 18.832 20.6766 18.8424 20.6818L18.9518 20.7443C18.9622 20.7495 18.9727 20.7547 18.9883 20.7651C18.9987 20.7703 19.0091 20.7755 19.0195 20.7807L19.056 20.8016L19.0924 20.8172L19.1289 20.838C19.1393 20.8432 19.1549 20.8484 19.1654 20.8537L19.2018 20.8693L19.2383 20.8901L19.2695 20.9058L19.4518 20.9839L19.4831 20.9995L19.5195 21.0099C19.5352 21.0151 19.5456 21.0203 19.556 21.0255L19.5924 21.0412C19.6028 21.0412 19.6185 21.0464 19.6289 21.0516C19.6393 21.0568 19.6497 21.062 19.6653 21.0672L19.7018 21.0776L19.7331 21.0932C19.7487 21.0932 19.7591 21.0984 19.7695 21.1036C19.7799 21.1088 19.7955 21.1088 19.806 21.114L19.8424 21.1244L19.8789 21.14L19.9153 21.1504L19.9466 21.1608L20.1653 21.2233L20.1966 21.2337L20.233 21.2389L20.3059 21.2598L20.3424 21.265L20.3789 21.2754L20.4101 21.2858L20.4466 21.291L20.483 21.3014L20.5195 21.3066L20.5559 21.317L20.6288 21.3274L20.6601 21.3378L20.733 21.3482L20.7695 21.3586L20.8424 21.369L20.8736 21.3742L20.9466 21.3846L20.983 21.395L21.0924 21.4106H21.1236L21.3059 21.4366L21.3372 21.4418L21.3736 21.447H21.4101L21.483 21.4574H21.5195L21.5559 21.4626L21.5872 21.4678H21.6236L21.6601 21.473H21.6965L21.733 21.4782H21.7694L21.8007 21.4834H21.8371L21.8736 21.4886H21.9101L21.9465 21.4938H22.0194L22.0507 21.499H22.1236L22.1601 21.5042H22.233L22.2642 21.5094H22.4465L22.4778 21.5146H22.9413L22.9778 21.5094H23.1601L23.1913 21.5042H23.3371L23.3736 21.499H23.4413L23.4621 21.4938H23.5507L23.5871 21.4886H23.6236L23.6549 21.4834H23.6913L23.7278 21.4782H23.7642L23.8007 21.473H23.8371L23.8684 21.4678H23.9048L23.9777 21.4574H24.0143L24.0872 21.447L24.1185 21.4418H24.1549L24.2643 21.4262H24.3008L24.332 21.421L24.5508 21.3898L24.582 21.3846L24.7643 21.3585L24.7956 21.3533L25.0143 21.3221L25.0456 21.3117L25.1914 21.2908L25.2279 21.2804L25.2591 21.2752L25.332 21.2648L25.3685 21.2544L25.4414 21.244L25.4779 21.2336L25.5091 21.2284L25.5456 21.2232L25.582 21.2128L25.6549 21.2024L25.6914 21.192L25.7227 21.1868L25.7591 21.1764L25.7956 21.1712L25.832 21.1608L25.8685 21.1556L25.9049 21.1452L25.9414 21.14L25.9726 21.1296L26.0091 21.1244L26.0455 21.114L26.082 21.1088L26.1549 21.088L26.1862 21.0828L26.2591 21.062L26.2955 21.0568L26.3685 21.0359V19.4109L26.332 19.4266L26.2955 19.4474L26.2591 19.463L26.2226 19.4838L26.1862 19.4995L26.1549 19.5203L26.082 19.5516L26.0456 19.5724L25.9726 19.6037L25.9414 19.6193L25.832 19.6662L25.7956 19.687L25.7591 19.6974L25.7227 19.713L25.6914 19.7287L25.5456 19.7912L25.5091 19.8016L25.4779 19.8172L25.4414 19.8328L25.405 19.8432L25.3685 19.8588L25.332 19.8692L25.2956 19.8849L25.2591 19.8953L25.2279 19.9109L25.155 19.9317L25.1185 19.9474L25.0456 19.9682L25.0143 19.9786L24.7956 20.0411L24.7643 20.0515L24.6914 20.0723L24.655 20.0775L24.582 20.0984L24.5508 20.1036L24.4779 20.1244L24.405 20.1348L24.3685 20.1452L24.332 20.1504L24.3008 20.1608L24.1914 20.1764L24.155 20.1868L24.1185 20.192L24.0873 20.1972L23.8685 20.2285L23.8373 20.2337H23.8008L23.6914 20.2493H23.655L23.6237 20.2545L23.5873 20.2597H23.5508L23.5143 20.2653H23.4414L23.4049 20.2705H23.3372L23.3008 20.2757H23.1914C23.181 20.2757 23.1706 20.2757 23.1602 20.2757H23.0508L23.0143 20.2705C23.0039 20.2705 22.9935 20.2705 22.9779 20.2705C22.9675 20.2705 22.957 20.2705 22.9414 20.2705L22.9101 20.2653H22.8372L22.8008 20.2601C22.7904 20.2601 22.7799 20.2601 22.7643 20.2549C22.7539 20.2549 22.7435 20.2549 22.7279 20.2549L22.6966 20.2497L22.5508 20.2289C22.5404 20.2289 22.5299 20.2289 22.5143 20.2237C22.5039 20.2237 22.4935 20.2185 22.4779 20.2185C22.4675 20.2185 22.457 20.2133 22.4466 20.2133C22.431 20.2081 22.4206 20.2081 22.4102 20.2081C22.3998 20.2029 22.3841 20.2029 22.3737 20.1977C22.3633 20.1977 22.3477 20.1925 22.3373 20.1925C22.3269 20.1873 22.3164 20.1873 22.3008 20.1821C22.2904 20.1821 22.28 20.1769 22.2644 20.1769L22.2331 20.1665C22.2175 20.1613 22.2071 20.1613 22.1966 20.1561C22.181 20.1561 22.1706 20.1509 22.1602 20.1457C22.1498 20.1457 22.1342 20.1405 22.1237 20.1353C22.1133 20.1353 22.0977 20.1301 22.0873 20.1249C22.0769 20.1249 22.0664 20.1197 22.0508 20.1145C22.0404 20.1093 22.03 20.1093 22.0196 20.1041C22.004 20.0989 21.9935 20.0937 21.9831 20.0937C21.9675 20.0885 21.9571 20.0833 21.9467 20.078C21.9363 20.0728 21.9206 20.0676 21.9102 20.0676C21.8998 20.0624 21.8842 20.0572 21.8738 20.052C21.8634 20.0468 21.8529 20.0416 21.8373 20.0364C21.8269 20.0312 21.8165 20.026 21.8009 20.0208C21.7905 20.0156 21.78 20.0104 21.7696 20.0051C21.754 19.9999 21.7436 19.9947 21.7332 19.9895C21.7175 19.9843 21.7071 19.9791 21.6967 19.9739C21.6863 19.9687 21.6707 19.9635 21.6602 19.9583C21.6498 19.9479 21.6342 19.9426 21.6238 19.9374C21.6134 19.9322 21.603 19.927 21.5873 19.9166C21.5769 19.9114 21.5665 19.9062 21.5561 19.901C21.5405 19.8906 21.53 19.8853 21.5196 19.8801C21.504 19.8697 21.4936 19.8645 21.4832 19.8593C21.4728 19.8489 21.4571 19.8437 21.4467 19.8332C21.4363 19.828 21.4207 19.8176 21.4103 19.8124C21.3999 19.802 21.3894 19.7968 21.3738 19.7864C21.3634 19.7812 21.353 19.7707 21.3374 19.7603C21.327 19.7551 21.3165 19.7447 21.3061 19.7343C21.2905 19.7291 21.2801 19.7187 21.2697 19.7082C21.254 19.6978 21.2436 19.6874 21.2332 19.6822C21.2228 19.6718 21.2072 19.6614 21.1968 19.651C21.1864 19.6406 21.1707 19.6301 21.1603 19.6197C21.1499 19.6093 21.1395 19.5989 21.1238 19.5884C21.1134 19.578 21.103 19.5624 21.0926 19.552C21.077 19.5416 21.0666 19.5312 21.0561 19.5155C21.0405 19.5051 21.0301 19.4947 21.0197 19.4791C21.0093 19.4687 20.9936 19.453 20.9832 19.4426C20.9728 19.427 20.9572 19.4166 20.9468 19.401C20.9364 19.3853 20.9259 19.3697 20.9103 19.3593C20.8998 19.3435 20.8893 19.3278 20.8737 19.3122C20.8633 19.2966 20.8528 19.281 20.8424 19.2653C20.8268 19.2497 20.8164 19.2289 20.806 19.2132C20.7904 19.1976 20.7799 19.1768 20.7695 19.1612C20.7591 19.1403 20.7435 19.1195 20.7331 19.0987C20.7227 19.083 20.707 19.0622 20.6966 19.0414C20.6862 19.0153 20.6758 18.9945 20.6602 18.9737C20.6498 18.9476 20.6393 18.9216 20.6289 18.9008C20.6133 18.8747 20.6029 18.8487 20.5925 18.8226C20.5768 18.7914 20.5664 18.7601 20.556 18.7341C20.5404 18.7028 20.53 18.6664 20.5196 18.6351C20.5092 18.5935 20.4935 18.557 20.4831 18.5205C20.4727 18.4737 20.4571 18.432 20.4466 18.3851C20.4362 18.3278 20.4206 18.2705 20.4102 18.208C20.3998 18.1195 20.3842 18.031 20.3789 17.9372C20.3685 17.8278 20.3633 17.7185 20.3633 17.6039C20.3633 17.4893 20.3685 17.3799 20.3789 17.2705C20.3841 17.1768 20.3998 17.0882 20.4102 16.9997C20.4206 16.9372 20.4362 16.8799 20.4466 16.8226C20.457 16.7757 20.4727 16.7289 20.4831 16.6872C20.4935 16.6507 20.5091 16.6091 20.5196 16.5726C20.53 16.5414 20.5404 16.5049 20.556 16.4737C20.5664 16.4424 20.5768 16.4164 20.5925 16.3851C20.6029 16.3591 20.6133 16.333 20.6289 16.307C20.6393 16.281 20.6497 16.2601 20.6602 16.2341C20.6758 16.2132 20.6862 16.1872 20.6966 16.1664C20.707 16.1455 20.7227 16.1247 20.7331 16.1039C20.7435 16.083 20.7591 16.0674 20.7695 16.0466C20.7799 16.031 20.7904 16.0101 20.806 15.9945C20.8164 15.9737 20.8268 15.958 20.8424 15.9424C20.8528 15.9268 20.8633 15.9112 20.8737 15.8955C20.8893 15.8799 20.8997 15.8643 20.9101 15.8487C20.9258 15.833 20.9362 15.8174 20.9466 15.807C20.957 15.7914 20.9726 15.7757 20.983 15.7653C20.9934 15.7497 21.0091 15.7393 21.0195 15.7237C21.0299 15.7133 21.0403 15.7028 21.056 15.6872C21.0664 15.6768 21.0768 15.6664 21.0924 15.6507C21.1028 15.6403 21.1132 15.6299 21.1237 15.6195C21.1393 15.6091 21.1497 15.5987 21.1601 15.5882C21.1705 15.5778 21.1862 15.5674 21.1966 15.557C21.207 15.5466 21.2226 15.5362 21.233 15.5257C21.2434 15.5153 21.2539 15.5049 21.2695 15.4997C21.2799 15.4893 21.2903 15.4789 21.3059 15.4685C21.3163 15.4632 21.3268 15.4528 21.3372 15.4424C21.3528 15.4372 21.3632 15.4268 21.3736 15.4164C21.3893 15.4112 21.3997 15.4007 21.4101 15.3955C21.4205 15.3851 21.4361 15.3799 21.4465 15.3695C21.4569 15.3643 21.4726 15.3591 21.483 15.3487C21.4934 15.3435 21.5038 15.333 21.5194 15.3278C21.5298 15.3226 21.5403 15.3122 21.5559 15.307C21.5663 15.3018 21.5767 15.2966 21.5872 15.2862C21.6028 15.281 21.6132 15.2758 21.6236 15.2705C21.634 15.2601 21.6496 15.2549 21.6601 15.2497C21.6705 15.2445 21.6861 15.2393 21.6965 15.2341C21.7069 15.2289 21.7174 15.2237 21.733 15.2132C21.7434 15.208 21.7538 15.2028 21.7694 15.1976C21.7798 15.1924 21.7903 15.1872 21.8007 15.182C21.8163 15.1768 21.8267 15.1716 21.8371 15.1664C21.8528 15.1664 21.8632 15.1612 21.8736 15.156C21.884 15.1507 21.8996 15.1455 21.91 15.1403C21.9204 15.1351 21.9361 15.1299 21.9465 15.1247C21.9569 15.1247 21.9673 15.1195 21.9829 15.1143C21.9933 15.1091 22.0038 15.1039 22.0194 15.1039C22.0298 15.0987 22.0402 15.0935 22.0506 15.0883C22.0663 15.0883 22.0767 15.083 22.0871 15.0778L22.1236 15.0674C22.134 15.0674 22.1496 15.0622 22.16 15.057C22.1704 15.057 22.1808 15.0518 22.1965 15.0466C22.2069 15.0466 22.2173 15.0414 22.2329 15.0414L22.2642 15.031C22.2798 15.0258 22.2902 15.0258 22.3006 15.0206C22.3162 15.0206 22.3267 15.0154 22.3371 15.0154C22.3475 15.0101 22.3631 15.0101 22.3735 15.0049C22.3839 15.0049 22.3996 15.0049 22.41 14.9997C22.4204 14.9997 22.4308 14.9945 22.4464 14.9945C22.4568 14.9893 22.4673 14.9893 22.4777 14.9893C22.4933 14.9841 22.5037 14.9841 22.5141 14.9789L22.6235 14.9633H22.66L22.6964 14.958L22.7277 14.9528C22.7433 14.9528 22.7537 14.9476 22.7641 14.9476C22.7798 14.9476 22.7902 14.9476 22.8006 14.9476L22.837 14.9424H22.8735L22.9099 14.9372H22.9412C22.9568 14.9372 22.9672 14.9372 22.9776 14.932C22.9933 14.932 23.0037 14.932 23.0141 14.932H23.1599C23.1703 14.932 23.1808 14.932 23.1912 14.932H23.337L23.3734 14.9372H23.4411L23.4776 14.9424H23.5143L23.5508 14.9476H23.5872L23.6237 14.9528H23.6549L23.7279 14.9632H23.7643L23.8372 14.9737L23.8685 14.9789L23.9049 14.9841H23.9414L24.0508 14.9997L24.0872 15.0101L24.1185 15.0153L24.2643 15.0362L24.3008 15.0466L24.332 15.0518L24.3685 15.057L24.4049 15.0674L24.4414 15.0726L24.4778 15.0831L24.5143 15.0883L24.5507 15.0987L24.582 15.1039L24.6914 15.1351L24.7278 15.1404L24.7643 15.1508L24.7955 15.1612L25.0143 15.2237L25.0455 15.2341L25.082 15.2445L25.1184 15.2601L25.1913 15.281L25.2278 15.2966L25.2591 15.307L25.2955 15.3174L25.332 15.333L25.3684 15.3435L25.4413 15.3747L25.4778 15.3851L25.509 15.4007L25.5455 15.4164L25.5819 15.4268L25.6913 15.4737L25.7226 15.4893L25.9413 15.583L25.9727 15.5987L26.0091 15.6195L26.082 15.6507L26.1185 15.6716L26.1549 15.6872L26.1862 15.7028L26.2226 15.7237L26.2591 15.7393L26.2955 15.7601L26.332 15.7757L26.3685 15.7966V14.1664L26.332 14.1612L26.2226 14.1299L26.1862 14.1247L26.1549 14.1143L26.1185 14.1091L26.0455 14.0883L26.0091 14.0831L25.9726 14.0726L25.9414 14.0674L25.9049 14.057L25.8685 14.0518L25.832 14.0414L25.7956 14.0362L25.7591 14.0258L25.7227 14.0205L25.6914 14.0101L25.6185 13.9997L25.582 13.9893L25.5091 13.9789L25.4779 13.9685L25.4049 13.9581L25.3685 13.9477L25.2956 13.9372L25.2591 13.9268L25.2279 13.9216L25.1185 13.906L25.082 13.8956L25.0456 13.8904L25.0143 13.8851L24.8685 13.8643L24.832 13.8539L24.7956 13.8487L24.7643 13.8435L24.582 13.8174L24.5508 13.8122L24.4779 13.8018H24.4414L24.332 13.7862L24.3008 13.781L24.2643 13.7758H24.2279L24.1185 13.7601L24.0873 13.7549H24.0508L23.9779 13.7445H23.9414L23.905 13.7393H23.8685L23.8373 13.7341L23.8008 13.7289H23.7643L23.7279 13.7236H23.6914L23.655 13.7184H23.5873L23.5508 13.7132H23.5143L23.4779 13.708H23.3737L23.3372 13.7028H23.2279L23.1914 13.6976H23.0508L23.0143 13.6924H22.4102L22.3737 13.6976H22.2331L22.1966 13.7029H22.1237L22.0873 13.7081H22.0195L21.9831 13.7133H21.9102L21.8737 13.7185H21.8373L21.8008 13.7237H21.7696L21.7331 13.7289H21.6967L21.6237 13.7393H21.5873L21.556 13.7446H21.5196L21.4102 13.7602H21.3737L21.3373 13.7654L21.306 13.7706L21.2331 13.781H21.1967L21.1237 13.7914L21.0925 13.7966L20.9102 13.8227L20.8738 13.8331L20.8425 13.8383L20.7331 13.8539L20.6967 13.8644L20.6602 13.8696L20.629 13.8748L20.5925 13.8852L20.5561 13.8904L20.5196 13.9008L20.4832 13.906L20.4467 13.9164L20.4102 13.9217L20.379 13.9321L20.3425 13.9373L20.2696 13.9581L20.2332 13.9633L20.1967 13.9737L20.1655 13.9842L19.9467 14.0467L19.9155 14.0571L19.8425 14.0779L19.8061 14.0935C19.7957 14.0935 19.78 14.0987 19.7696 14.1039L19.7332 14.1144C19.7228 14.1196 19.7123 14.1248 19.7019 14.13L19.6655 14.1404L19.629 14.156C19.6186 14.1612 19.603 14.1612 19.5926 14.1664C19.5822 14.1716 19.5665 14.1768 19.5561 14.1821L19.5197 14.1977C19.5092 14.1977 19.4988 14.2029 19.4832 14.2081L19.4518 14.2237L19.2695 14.3018L19.2383 14.3174L19.2018 14.3331L19.1654 14.3539C19.155 14.3591 19.1393 14.3643 19.1289 14.3695L19.0925 14.3851L19.0195 14.4268C19.0091 14.432 18.9987 14.4372 18.9883 14.4424C18.9727 14.4528 18.9622 14.4581 18.9518 14.4633L18.8789 14.5049C18.8685 14.5101 18.8581 14.5206 18.8425 14.5258C18.832 14.531 18.8216 14.5414 18.806 14.5466C18.7956 14.5518 18.7852 14.5622 18.7747 14.5674C18.7591 14.5778 18.7487 14.5831 18.7383 14.5935C18.7227 14.5987 18.7122 14.6091 18.7018 14.6143C18.6914 14.6247 18.6758 14.6299 18.6654 14.6404L18.6289 14.6612C18.6185 14.6716 18.6081 14.6768 18.5925 14.6872L18.556 14.7133C18.5456 14.7237 18.5352 14.7289 18.5247 14.7393C18.5091 14.7497 18.4987 14.7549 18.4883 14.7654C18.4779 14.7758 18.4622 14.781 18.4518 14.7914C18.4414 14.8018 18.4258 14.8122 18.4154 14.8226C18.405 14.8279 18.3945 14.8383 18.3789 14.8487C18.3685 14.8591 18.3581 14.8695 18.3424 14.8799Z" fill="url(#paint2_linear_552_66744)"/>
</g>
<defs>
<linearGradient id="paint0_linear_552_66744" x1="28.5048" y1="17.6031" x2="37.6327" y2="17.6031" gradientUnits="userSpaceOnUse">
<stop stop-color="#007B40"/>
<stop offset="1" stop-color="#55B330"/>
</linearGradient>
<linearGradient id="paint1_linear_552_66744" x1="8.03075" y1="17.6029" x2="17.1575" y2="17.6029" gradientUnits="userSpaceOnUse">
<stop stop-color="#1D2970"/>
<stop offset="1" stop-color="#006DBA"/>
</linearGradient>
<linearGradient id="paint2_linear_552_66744" x1="18.2681" y1="17.6029" x2="27.3953" y2="17.6029" gradientUnits="userSpaceOnUse">
<stop stop-color="#6E2B2F"/>
<stop offset="1" stop-color="#E30138"/>
</linearGradient>
<clipPath id="clip0_552_66744">
<rect width="30" height="24" fill="white" transform="translate(8 6)"/>
</clipPath>
</defs>
</svg>
