<svg width="28" height="28" viewBox="0 0 28 28" fill="none" xmlns="http://www.w3.org/2000/svg">
<path d="M4.18342 6.63033C3.76117 7.12295 3.5 7.80351 3.5 8.55523L3.5 19.4441C3.5 20.1661 3.74583 20.8585 4.18342 21.369C4.621 21.8795 5.21449 22.1663 5.83333 22.1663L22.1667 22.1663C22.7855 22.1663 23.379 21.8795 23.8166 21.369C24.2542 20.8585 24.5 20.1661 24.5 19.4441V8.55523C24.5 7.80351 24.2388 7.12295 23.8166 6.63033M4.18342 6.63033C4.60567 6.1377 5.189 5.83301 5.83333 5.83301L22.1667 5.83301C22.811 5.83301 23.3943 6.1377 23.8166 6.63033M4.18342 6.63033L11.3418 12.9967C12.8575 14.3447 15.1424 14.3447 16.6582 12.9967L23.8166 6.63033" stroke="currentColor" stroke-width="2" stroke-linecap="round" stroke-linejoin="round"/>
</svg>
