<svg width="112" height="138" viewBox="0 0 112 138" fill="none" xmlns="http://www.w3.org/2000/svg">
  <ellipse cx="56" cy="135" rx="30" ry="3" fill="#101010"/>
  <path d="M95.5982 95.4592L56 135L16.4018 95.4592C8.57013 87.6387 3.23671 77.675 1.076 66.8278C-1.08472 55.9806 0.0243092 44.7373 4.26284 34.5195C8.50136 24.3017 15.679 15.5684 24.8882 9.42397C34.0973 3.27956 44.9243 0 56 0C67.0757 0 77.9027 3.27956 87.1118 9.42397C96.321 15.5684 103.499 24.3017 107.737 34.5195C111.976 44.7373 113.085 55.9806 110.924 66.8278C108.763 77.675 103.43 87.6387 95.5982 95.4592Z" fill="#F57520"/>
  <path d="M94.184 94.6308L56 133L17.816 94.6308C10.2641 87.0421 5.12112 77.3735 3.03757 66.8477C0.954023 56.3219 2.02344 45.4117 6.11059 35.4967C10.1977 25.5816 17.1191 17.1071 25.9993 11.1447C34.8795 5.18239 45.3198 2 56 2C66.6802 2 77.1205 5.18239 86.0007 11.1447C94.8809 17.1071 101.802 25.5816 105.889 35.4967C109.977 45.4117 111.046 56.3219 108.962 66.8477C106.879 77.3735 101.736 87.0421 94.184 94.6308Z" fill="#101010"/>
  <path d="M35.7052 56.0515C37.621 56.0515 39.174 54.4568 39.174 52.4896C39.174 50.5224 37.621 48.9277 35.7052 48.9277C33.7894 48.9277 32.2363 50.5224 32.2363 52.4896C32.2363 54.4568 33.7894 56.0515 35.7052 56.0515Z" stroke="white" stroke-width="0.731399" stroke-miterlimit="10"/>
  <path d="M38.4806 45.2233C40.3964 45.2233 41.9494 43.6286 41.9494 41.6615C41.9494 39.6943 40.3964 38.0996 38.4806 38.0996C36.5648 38.0996 35.0117 39.6943 35.0117 41.6615C35.0117 43.6286 36.5648 45.2233 38.4806 45.2233Z" stroke="white" stroke-width="0.731399" stroke-miterlimit="10"/>
  <path d="M38.6154 42.0541C38.6432 42.0523 38.6702 42.0445 38.6947 42.0313C38.7192 42.018 38.7406 41.9997 38.7575 41.9775C39.0984 41.5068 38.6657 41.3667 38.6657 41.3667L31.9618 41.9031C31.9298 41.9072 31.8972 41.9035 31.8669 41.8922C31.8366 41.8808 31.8095 41.8623 31.788 41.8382C31.7665 41.814 31.7512 41.785 31.7434 41.7536C31.7356 41.7222 31.7355 41.6893 31.7433 41.6579C31.8616 41.0988 32.0666 40.5618 32.3509 40.0663C32.3854 40.0033 32.4361 39.9507 32.4978 39.9141C32.5596 39.8775 32.63 39.8581 32.7017 39.8581C32.7735 39.8581 32.8439 39.8775 32.9056 39.9141C32.9673 39.9507 33.0181 40.0033 33.0525 40.0663L33.0504 40.618C33.0481 40.6556 33.0572 40.693 33.0766 40.7253C33.1144 40.7831 33.1653 40.8311 33.2252 40.8654C33.2536 40.8802 33.2851 40.8878 33.3171 40.8876C33.3491 40.8874 33.3805 40.8795 33.4087 40.8644C33.4369 40.8493 33.461 40.8275 33.479 40.801C33.4969 40.7745 33.5081 40.744 33.5116 40.7121C33.564 40.2743 33.5771 39.2935 32.6635 39.2541C31.4307 39.1928 31.1094 41.5287 31.0329 42.3891C31.0291 42.4296 31.034 42.4705 31.0473 42.509C31.0606 42.5475 31.0819 42.5828 31.1098 42.6124C31.1377 42.642 31.1716 42.6653 31.2092 42.6808C31.2468 42.6963 31.2873 42.7036 31.328 42.7021H32.3334C32.3611 42.7023 32.3884 42.7083 32.4137 42.7196C32.4389 42.731 32.4615 42.7475 32.4801 42.7681C32.4986 42.7887 32.5126 42.8129 32.5212 42.8393C32.5298 42.8656 32.5329 42.8935 32.5301 42.9211L32.0602 47.9869C32.0565 48.0344 32.0355 48.0789 32.0013 48.112C31.9671 48.1451 31.9219 48.1644 31.8744 48.1664L30.4667 48.2496C30.4369 48.2511 30.407 48.2458 30.3795 48.2341C30.3519 48.2224 30.3274 48.2046 30.3076 48.1821C30.2879 48.1596 30.2734 48.1329 30.2654 48.1041C30.2574 48.0752 30.256 48.0449 30.2613 48.0154C30.31 47.7722 30.3393 47.5255 30.3487 47.2776C30.3487 47.028 30.1301 46.9361 30.0165 46.866C30.0009 46.8556 29.9831 46.8491 29.9645 46.8473C29.9458 46.8454 29.927 46.8481 29.9097 46.8553C29.8924 46.8624 29.8772 46.8738 29.8653 46.8882C29.8534 46.9027 29.8453 46.9199 29.8416 46.9383L29.2842 49.6069C29.2771 49.6382 29.2777 49.6707 29.2861 49.7016C29.2945 49.7326 29.3104 49.761 29.3323 49.7843C29.3979 49.8517 29.4857 49.893 29.5793 49.9003C29.6235 49.9042 29.6678 49.8932 29.705 49.869C29.7422 49.8448 29.7703 49.8088 29.7848 49.7668L30.0143 49.11C30.0263 49.0741 30.0483 49.0424 30.0777 49.0188C30.1072 48.9951 30.1428 48.9804 30.1804 48.9765L31.8547 48.8101C31.8854 48.8068 31.9165 48.8109 31.9454 48.8219C31.9742 48.833 32.0001 48.8507 32.0208 48.8736L35.6055 52.8142C35.6241 52.8347 35.6466 52.8511 35.6719 52.8624C35.6971 52.8738 35.7244 52.8797 35.752 52.8798H35.8875C35.9292 52.8801 35.9698 52.867 36.0036 52.8426C36.0374 52.8182 36.0625 52.7837 36.0755 52.7441L37.776 47.6958C37.7869 47.6637 37.7893 47.6293 37.7832 47.596C37.7771 47.5627 37.7626 47.5314 37.7411 47.5053L33.8066 42.7766C33.7886 42.7561 33.7752 42.7321 33.7673 42.706C33.7594 42.68 33.7572 42.6525 33.7607 42.6255V42.5795C33.7662 42.5341 33.7873 42.492 33.8204 42.4604C33.8535 42.4289 33.8966 42.4098 33.9422 42.4066L38.6154 42.0541ZM36.8471 48.5846L35.7542 51.586C35.7423 51.6179 35.7225 51.6461 35.6966 51.6681C35.6707 51.6901 35.6397 51.7052 35.6064 51.7117C35.5731 51.7183 35.5386 51.7163 35.5063 51.7057C35.4741 51.6952 35.445 51.6766 35.4219 51.6517L33.0023 49.0246C32.9782 48.998 32.9617 48.9654 32.9546 48.9303C32.9475 48.8951 32.95 48.8586 32.9619 48.8248C32.9738 48.7909 32.9945 48.7609 33.022 48.7379C33.0495 48.7149 33.0827 48.6997 33.1181 48.694L36.6154 48.1292C36.6427 48.1265 36.6704 48.1295 36.6965 48.138C36.7227 48.1465 36.7468 48.1603 36.7673 48.1786C36.7879 48.197 36.8044 48.2193 36.8159 48.2444C36.8273 48.2694 36.8335 48.2965 36.834 48.3241V48.5145C36.843 48.5367 36.8475 48.5606 36.8471 48.5846ZM36.5061 47.3827L32.9323 47.9475C32.9029 47.9506 32.8731 47.9471 32.8452 47.9372C32.8172 47.9273 32.7919 47.9112 32.7709 47.8903C32.75 47.8693 32.734 47.8439 32.7241 47.8159C32.7142 47.7879 32.7107 47.7581 32.7137 47.7286L33.1509 43.5691C33.1579 43.5341 33.1741 43.5017 33.1979 43.4752C33.2217 43.4486 33.2521 43.429 33.286 43.4182C33.32 43.4075 33.3562 43.4061 33.3908 43.4141C33.4255 43.4222 33.4574 43.4394 33.4831 43.464L36.6241 47.0565C36.6471 47.0833 36.6625 47.1157 36.6688 47.1504C36.6752 47.1851 36.6722 47.2209 36.6602 47.2541C36.6482 47.2873 36.6276 47.3167 36.6005 47.3393C36.5734 47.3619 36.5408 47.3769 36.5061 47.3827Z" fill="white" stroke="white" stroke-width="0.2438" stroke-miterlimit="10"/>
  <path d="M75.8401 73.0828L77.3461 69.0722L73.9297 66.5721H78.2991L79.6958 62.5986L80.8346 66.6443H85.0204L81.4947 68.9999L82.5614 73.0828L79.475 70.7644" fill="#F57520"/>
  <path d="M57.8242 79.7865H62.2096L74.409 37.4609H70.0236L57.8242 79.7865Z" fill="white"/>
  <path fill-rule="evenodd" clip-rule="evenodd" d="M64.2832 79.7866L65.6387 75.5541H81.0274L81.2955 75.5543C81.7006 75.5547 82.0863 75.5552 82.4573 75.5457C84.5074 75.4316 86.3801 74.3084 87.8266 72.8326C89.3282 71.3006 90.1697 69.2385 90.17 67.0905C90.1701 64.9282 89.3181 62.8535 87.7995 61.3183C87.0217 60.532 86.111 60.1632 85.1178 59.9882C84.4949 59.9054 83.867 59.8555 83.2531 59.8341C82.9664 59.8279 82.676 59.826 82.3828 59.824C82.2886 59.8234 82.1942 59.8228 82.0995 59.822V59.8217H69.7849L70.9809 55.9884H77.0407C78.122 55.9884 78.762 55.9998 79.3188 56.0096C80.2401 56.026 80.9334 56.0382 83.0208 55.9884C84.1139 55.9624 84.8346 55.9278 85.4742 55.756C86.5139 55.3671 87.4668 54.7523 88.2591 53.9436C89.6657 52.5079 90.454 50.5756 90.4543 48.5626C90.4543 46.5363 89.6816 44.33 88.2591 42.8914C86.8389 41.455 84.9204 41.2316 82.904 41.2144H75.3663L76.2434 37.461H81.6653C82.0988 37.461 82.4463 37.4569 82.7478 37.4534C83.7773 37.4412 84.2697 37.4354 85.8115 37.6207C86.0262 37.6465 86.2227 37.6863 86.4049 37.7385C88.2186 38.0574 89.8887 38.7241 91.2455 40.0963C93.4462 42.3221 94.6463 45.4277 94.6605 48.5626C94.6469 51.6776 93.4215 54.6642 91.2455 56.8864C90.9673 57.1705 90.6752 57.4183 90.3708 57.6347C90.5762 57.792 90.7764 57.9679 90.9708 58.1644C93.3202 60.5397 94.6453 63.7451 94.6605 67.0905C94.6459 70.4145 93.3378 73.6015 91.0147 75.9729C89.5242 77.4945 87.6911 78.5702 85.6931 79.1655C84.5704 79.5596 83.288 79.7866 81.8248 79.7866H64.2832Z" fill="white"/>
  <path d="M17.7969 37.4609H22.1025L32.3883 73.1582L30.7936 79.7865L17.7969 37.4609Z" fill="white"/>
  <path d="M32.4688 79.7865H36.6947L45.6249 45.1275L55.8309 79.7865L57.904 72.9985L47.2196 37.4609H43.2329L32.4688 79.7865Z" fill="white"/>
</svg>
