<svg width="270" height="182" viewBox="0 0 270 182" fill="none" xmlns="http://www.w3.org/2000/svg">
<path d="M179.792 42.8495L95.0679 9.44051V149.8L179.792 180.675V42.8495Z" fill="#CAD6FF"/>
<path d="M179.35 41.7281L258.716 22.6874C263.747 21.4805 268.583 25.2935 268.583 30.4666V153.149C268.583 156.855 266.038 160.076 262.432 160.932L179.35 180.675V41.7281Z" fill="#9DB4FF"/>
<path d="M1 44.4933C1 40.5385 3.58174 37.0471 7.36298 35.8883L91.9636 9.96236C93.9411 9.35633 96.0671 9.44994 97.9838 10.2275L172.997 40.6573C175.116 41.517 177.451 41.6948 179.676 41.1659L257.788 22.5983C263.442 21.2542 268.869 25.5423 268.869 31.3544V152.613C268.869 156.79 265.996 160.417 261.93 161.374L181.368 180.33C179.63 180.739 177.81 180.621 176.138 179.993L98.7257 150.874C96.3724 149.989 93.7869 149.937 91.3997 150.726L12.8254 176.706C7.0016 178.632 1 174.295 1 168.161V44.4933Z" stroke="#24366E" stroke-width="2"/>
<line x1="95.5342" y1="9.71844" x2="95.5342" y2="150.194" stroke="#24366E" stroke-width="2" stroke-dasharray="6 6"/>
<line x1="178.583" y1="41.5243" x2="178.583" y2="180.233" stroke="#24366E" stroke-width="2" stroke-dasharray="6 6"/>
<path fill-rule="evenodd" clip-rule="evenodd" d="M51.3355 56.9326L53.5752 54.4089C56.1166 51.4984 58.4024 48.737 60.4362 46.1104L62.1151 43.8956C69.1252 34.4506 72.632 26.9542 72.632 21.4136C72.632 9.58696 63.0983 0 51.3355 0C39.5728 0 30.0391 9.58696 30.0391 21.4136C30.0391 26.9542 33.5459 34.4506 40.556 43.8956L42.2348 46.1104C45.1363 49.828 48.1718 53.4354 51.3355 56.9326Z" fill="#E30613"/>
<path d="M51.3359 30.17C56.2366 30.17 60.2095 26.1972 60.2095 21.2965C60.2095 16.3958 56.2366 12.423 51.3359 12.423C46.4352 12.423 42.4624 16.3958 42.4624 21.2965C42.4624 26.1972 46.4352 30.17 51.3359 30.17Z" fill="white"/>
<path fill-rule="evenodd" clip-rule="evenodd" d="M130.816 131.308L132.401 129.522C134.201 127.461 135.819 125.506 137.259 123.646L138.448 122.078C143.411 115.391 145.894 110.084 145.894 106.161C145.894 97.7876 139.144 91 130.816 91C122.488 91 115.738 97.7876 115.738 106.161C115.738 110.084 118.221 115.391 123.184 122.078L124.372 123.646C126.427 126.278 128.576 128.832 130.816 131.308Z" fill="#E30613"/>
<path d="M130.816 112.36C134.285 112.36 137.098 109.548 137.098 106.078C137.098 102.608 134.285 99.7955 130.816 99.7955C127.346 99.7955 124.533 102.608 124.533 106.078C124.533 109.548 127.346 112.36 130.816 112.36Z" fill="white"/>
<path fill-rule="evenodd" clip-rule="evenodd" d="M226.595 103.688L228.207 101.871C230.037 99.7756 231.683 97.7874 233.147 95.8963L234.356 94.3016C239.403 87.5012 241.928 82.1038 241.928 78.1146C241.928 69.5994 235.064 62.6968 226.595 62.6968C218.126 62.6968 211.261 69.5994 211.261 78.1146C211.261 82.1038 213.786 87.5012 218.833 94.3016L220.042 95.8963C222.131 98.573 224.317 101.17 226.595 103.688Z" fill="#E30613"/>
<path d="M226.595 84.4192C230.124 84.4192 232.984 81.5588 232.984 78.0303C232.984 74.5018 230.124 71.6414 226.595 71.6414C223.066 71.6414 220.206 74.5018 220.206 78.0303C220.206 81.5588 223.066 84.4192 226.595 84.4192Z" fill="white"/>
</svg>
