<svg width="50" height="36" viewBox="0 0 50 36" fill="none" xmlns="http://www.w3.org/2000/svg">
<g clip-path="url(#clip0_552_66671)">
<path d="M29.573 25.8605H20.6821V10.1348H29.573V25.8605Z" fill="#E9E9E9"/>
<path d="M21.2529 18.0048C21.2529 14.8095 22.7731 11.9782 25.1355 10.1378C23.4099 8.80309 21.2324 7.99414 18.8494 7.99414C13.2411 7.99414 8.70117 12.4635 8.70117 17.9845C8.70117 23.5056 13.2411 27.975 18.8494 27.975C21.2118 27.975 23.3894 27.166 25.1355 25.8313C22.7731 24.0314 21.2529 21.1799 21.2529 18.0048Z" fill="white"/>
<path d="M41.5578 18.0054C41.5578 23.5264 37.0178 27.9958 31.4096 27.9958C29.0472 27.9958 26.8696 27.1869 25.1235 25.8521C27.4859 24.0118 29.0061 21.1805 29.0061 17.9852C29.0061 14.7899 27.4859 11.9586 25.1235 10.1183C26.8491 8.78354 29.0266 7.97461 31.4096 7.97461C37.0178 7.99483 41.5578 12.4844 41.5578 18.0054Z" fill="white"/>
</g>
<defs>
<clipPath id="clip0_552_66671">
<rect width="34" height="20" fill="white" transform="translate(8 8)"/>
</clipPath>
</defs>
</svg>
