<svg width="88" height="36" viewBox="0 0 88 36" fill="none" xmlns="http://www.w3.org/2000/svg">
<g clip-path="url(#clip0_552_66648)">
<rect width="88" height="36" rx="8" fill="white"/>
<mask id="mask0_552_66648" style="mask-type:luminance" maskUnits="userSpaceOnUse" x="8" y="8" width="72" height="20">
<path d="M79.7087 8.00195H8.29102V27.999H79.7087V8.00195Z" fill="white"/>
</mask>
<g mask="url(#mask0_552_66648)">
<path d="M23.9122 10.6266L21.2604 19.8127H20.8067L18.1549 10.6266C17.7013 9.0721 16.2776 8.00195 14.6506 8.00195H8.29102V27.999H14.6584V16.1804H15.1121L18.7573 27.999H23.3099L26.9472 16.1804H27.4009V27.999H33.7683V8.00195H27.4087C25.7895 8.00195 24.3659 9.0721 23.9122 10.6266ZM59.1672 27.999H65.5737V22.0858H72.0195C75.3908 22.0858 78.2618 20.1798 79.3724 17.5005H59.1672V27.999ZM47.8171 10.111L43.335 19.8205H42.8813V8.00195H36.5139V27.999H41.9192C43.3428 27.999 44.6333 27.171 45.2279 25.8899L49.7101 16.1882H50.1639V27.999H56.5312V8.00195H51.1259C49.7022 8.00195 48.4117 8.82995 47.8171 10.111Z" fill="#006848"/>
<path d="M72.653 8.00195C74.4913 8.00195 76.1574 8.70497 77.4168 9.86104C78.8249 11.1421 79.7088 12.9856 79.7088 15.04C79.7088 15.4618 79.6618 15.8758 79.5914 16.2819H67.7641C63.759 16.2819 60.3642 13.6573 59.2221 10.0329C59.2065 9.99383 59.1986 9.94697 59.183 9.9001C59.1517 9.79074 59.1282 9.67357 59.097 9.56421C58.9796 9.05648 58.9014 8.54093 58.8701 8.00195H72.653Z" fill="url(#paint0_linear_552_66648)"/>
</g>
</g>
<defs>
<linearGradient id="paint0_linear_552_66648" x1="79.7088" y1="33.8978" x2="58.9977" y2="33.8978" gradientUnits="userSpaceOnUse">
<stop stop-color="#1E5CD8"/>
<stop offset="1" stop-color="#02AFFF"/>
</linearGradient>
<clipPath id="clip0_552_66648">
<rect width="88" height="36" rx="8" fill="white"/>
</clipPath>
</defs>
</svg>
