<svg width="88" height="36" viewBox="0 0 88 36" fill="none" xmlns="http://www.w3.org/2000/svg">
<g clip-path="url(#clip0_552_66646)">
<mask id="mask0_552_66646" style="mask-type:luminance" maskUnits="userSpaceOnUse" x="8" y="8" width="72" height="20">
<path d="M79.4177 8H8V27.997H79.4177V8Z" fill="white"/>
</mask>
<g mask="url(#mask0_552_66646)">
<path d="M23.6212 10.6246L20.9694 19.8107H20.5157L17.8639 10.6246C17.4102 9.07015 15.9866 8 14.3595 8H8V27.997H14.3674V16.1784H14.8211L18.4663 27.997H23.0189L26.6562 16.1784H27.1099V27.997H33.4773V8H27.1177C25.4985 8 24.0749 9.07015 23.6212 10.6246ZM58.8762 27.997H65.2827V22.0838H71.7285C75.0998 22.0838 77.9708 20.1778 79.0814 17.4986H58.8762V27.997ZM47.5261 10.1091L43.044 19.8185H42.5903V8H36.2229V27.997H41.6282C43.0518 27.997 44.3423 27.169 44.9369 25.8879L49.4191 16.1863H49.8729V27.997H56.2402V8H50.8349C49.4112 8 48.1207 8.828 47.5261 10.1091Z" fill="white"/>
<path d="M72.362 8C74.2003 8 75.8664 8.70302 77.1258 9.85909C78.5339 11.1402 79.4178 12.9836 79.4178 15.038C79.4178 15.4598 79.3708 15.8738 79.3004 16.28H67.4731C63.468 16.28 60.0732 13.6554 58.9311 10.0309C58.9155 9.99188 58.9076 9.94502 58.892 9.89815C58.8607 9.78879 58.8372 9.67162 58.806 9.56226C58.6886 9.05453 58.6104 8.53898 58.5791 8H72.362Z" fill="url(#paint0_linear_552_66646)"/>
<path d="M72.362 8C74.2003 8 75.8664 8.70302 77.1258 9.85909C78.5339 11.1402 79.4178 12.9836 79.4178 15.038C79.4178 15.4598 79.3708 15.8738 79.3004 16.28H67.4731C63.468 16.28 60.0732 13.6554 58.9311 10.0309C58.9155 9.99188 58.9076 9.94502 58.892 9.89815C58.8607 9.78879 58.8372 9.67162 58.806 9.56226C58.6886 9.05453 58.6104 8.53898 58.5791 8H72.362Z" fill="url(#paint1_linear_552_66646)"/>
</g>
</g>
<defs>
<linearGradient id="paint0_linear_552_66646" x1="79.4178" y1="33.8958" x2="58.7067" y2="33.8958" gradientUnits="userSpaceOnUse">
<stop stop-color="#1E5CD8"/>
<stop offset="1" stop-color="#02AFFF"/>
</linearGradient>
<linearGradient id="paint1_linear_552_66646" x1="79.4179" y1="33.8958" x2="58.7067" y2="33.8958" gradientUnits="userSpaceOnUse">
<stop stop-color="#B4B4B4"/>
<stop offset="1" stop-color="white"/>
</linearGradient>
<clipPath id="clip0_552_66646">
<rect width="72" height="20" fill="white" transform="translate(8 8)"/>
</clipPath>
</defs>
</svg>
