<svg width="32" height="32" viewBox="0 0 32 32" fill="none" xmlns="http://www.w3.org/2000/svg">
<path d="M13.1118 11.0687C13.1118 9.6875 14.2306 8.56875 15.5993 8.56875C16.9681 8.56875 18.0868 9.6875 18.0868 11.0687C18.0868 12.4437 16.9681 13.5562 15.5993 13.5562C14.2306 13.5562 13.1118 12.4375 13.1118 11.0687ZM10.5306 11.0687C10.5306 13.8562 12.8056 16.125 15.5993 16.125C18.3931 16.125 20.6681 13.8625 20.6681 11.0687C20.6681 8.26875 18.3931 6 15.5993 6C12.8056 6 10.5306 8.2625 10.5306 11.0687ZM21.4368 16.7375C21.1493 16.1687 20.3556 15.6875 19.3056 16.5125C19.3056 16.5125 17.8868 17.6375 15.5993 17.6375C13.3118 17.6375 11.8931 16.5125 11.8931 16.5125C10.8431 15.6875 10.0493 16.1687 9.76184 16.7375C9.26809 17.7437 9.83059 18.2187 11.0993 19.05C12.1806 19.7437 13.6743 20 14.6368 20.1L13.8306 20.9062C12.6931 22.0312 11.6118 23.125 10.8493 23.8875C9.74934 24.9875 11.5181 26.75 12.6243 25.675L15.6056 22.6812C16.7431 23.8187 17.8368 24.9125 18.5868 25.675C19.6868 26.75 21.4618 25.0063 20.3743 23.8875L17.3931 20.9062L16.5806 20.1C17.5493 20 19.0243 19.7312 20.0931 19.05C21.3681 18.2187 21.9243 17.7375 21.4368 16.7375Z" fill="currentColor"/>
</svg>
