<svg width="24" height="24" viewBox="0 0 24 24" fill="none" xmlns="http://www.w3.org/2000/svg">
<path fill-rule="evenodd" clip-rule="evenodd" d="M8.0007 5.99902C8.0007 5.1706 8.67227 4.49902 9.5007 4.49902L19.6102 4.49921C20.4386 4.49921 20.9959 5.17078 20.9959 5.99921C20.9959 6.82764 20.4386 7.49921 19.6102 7.49921L9.5007 7.49902C8.67227 7.49902 8.0007 6.82745 8.0007 5.99902Z" fill="currentColor"/>
<path fill-rule="evenodd" clip-rule="evenodd" d="M8.00391 12C8.00391 11.1716 8.67548 10.5 9.50391 10.5H19.4976C20.326 10.5 20.9976 11.1716 20.9976 12C20.9976 12.8284 20.326 13.5 19.4976 13.5L9.50391 13.5C8.67548 13.5 8.00391 12.8284 8.00391 12Z" fill="currentColor"/>
<path fill-rule="evenodd" clip-rule="evenodd" d="M8.00391 17.9995C8.00391 17.1711 8.67548 16.4995 9.50391 16.4995L19.501 16.4998C20.3294 16.4998 21.001 17.1714 21.001 17.9998C21.001 18.8282 20.3294 19.4998 19.501 19.4998L9.50391 19.4995C8.67548 19.4995 8.00391 18.8279 8.00391 17.9995Z" fill="currentColor"/>
<circle cx="4.5" cy="6" r="1.5" fill="currentColor"/>
<circle cx="4.5" cy="12" r="1.5" fill="currentColor"/>
<circle cx="4.5" cy="18" r="1.5" fill="currentColor"/>
</svg>
