<svg width="24" height="24" viewBox="0 0 24 24" fill="none" xmlns="http://www.w3.org/2000/svg">
<path d="M7.47737 16.5226L3 12.0453C4.80699 10.2383 7.4344 9.75175 9.68318 10.5857L13.0741 7.19479C13.4862 6.78266 13.4862 6.11446 13.0741 5.70233C12.4559 5.08413 12.4559 4.08184 13.0741 3.46365C13.6923 2.84545 14.6946 2.84545 15.3128 3.46365L20.5364 8.68724C21.1545 9.30544 21.1545 10.3077 20.5364 10.9259C19.9182 11.5441 18.9159 11.5441 18.2977 10.9259C17.8855 10.5138 17.2173 10.5138 16.8052 10.9259L13.4143 14.3168C14.2483 16.5656 13.7617 19.193 11.9547 21L7.47737 16.5226Z" fill="#24366E"/>
<path d="M7.47737 16.5226L3 12.0453C4.80699 10.2383 7.4344 9.75175 9.68318 10.5857L13.0741 7.19479C13.4862 6.78266 13.4862 6.11446 13.0741 5.70233C12.4559 5.08413 12.4559 4.08184 13.0741 3.46365C13.6923 2.84545 14.6946 2.84545 15.3128 3.46365L20.5364 8.68724C21.1545 9.30544 21.1545 10.3077 20.5364 10.9259C19.9182 11.5441 18.9159 11.5441 18.2977 10.9259C17.8855 10.5138 17.2173 10.5138 16.8052 10.9259L13.4143 14.3168C14.2482 16.5656 13.7617 19.193 11.9547 21L7.47737 16.5226ZM7.47737 16.5226L4.11934 19.8807" stroke="#24366E" stroke-width="2" stroke-linecap="round"/>
</svg>
