<svg width="21" height="21" viewBox="0 0 21 21" fill="none" xmlns="http://www.w3.org/2000/svg">
<path d="M6.47737 14.5226L2 10.0453C3.80699 8.23828 6.4344 7.75175 8.68318 8.58568L12.0741 5.19479C12.4862 4.78266 12.4862 4.11446 12.0741 3.70233C11.4559 3.08413 11.4559 2.08184 12.0741 1.46365C12.6923 0.845451 13.6946 0.845451 14.3128 1.46365L19.5364 6.68724C20.1545 7.30544 20.1545 8.30773 19.5364 8.92592C18.9182 9.54412 17.9159 9.54412 17.2977 8.92592C16.8855 8.51379 16.2173 8.51379 15.8052 8.92592L12.4143 12.3168C13.2482 14.5656 12.7617 17.193 10.9547 19L6.47737 14.5226ZM6.47737 14.5226L3.11934 17.8807" stroke="currentColor" stroke-width="2" stroke-linecap="round"/>
</svg>
