<svg width="24" height="24" viewBox="0 0 24 24" fill="none" xmlns="http://www.w3.org/2000/svg">
<path fill-rule="evenodd" clip-rule="evenodd" d="M2 9C2 7.89543 2.89543 7 4 7H20C21.1046 7 22 7.89543 22 9V17C22 18.1046 21.1046 19 20 19H19V16C19 14.3431 17.6569 13 16 13H8C6.34315 13 5 14.3431 5 16V19H4C2.89543 19 2 18.1046 2 17V9ZM6 12C6.55228 12 7 11.5523 7 11C7 10.4477 6.55228 10 6 10C5.44772 10 5 10.4477 5 11C5 11.5523 5.44772 12 6 12Z" fill="currentColor"/>
<rect x="7" y="15" width="10" height="6" rx="1" fill="currentColor"/>
<path d="M5 5.4C5 4.07452 6.07452 3 7.4 3H16.6C17.9255 3 19 4.07452 19 5.4C19 5.73137 18.7314 6 18.4 6H5.6C5.26863 6 5 5.73137 5 5.4Z" fill="currentColor"/>
</svg>
