<svg width="16" height="17" viewBox="0 0 16 17" fill="none" xmlns="http://www.w3.org/2000/svg">
<path d="M3.33398 7.83333C3.33398 5.16667 5.11176 4.5 6.00065 4.5H11.334" stroke="currentColor" stroke-width="1.33333" stroke-linecap="round" stroke-linejoin="round"/>
<path d="M13.3353 4.05689C13.652 4.268 13.652 4.73331 13.3353 4.94441L10.8301 6.61454C10.4757 6.85082 10.001 6.59675 10.001 6.17078L10.001 2.83053C10.001 2.40456 10.4757 2.15048 10.8302 2.38677L13.3353 4.05689Z" fill="currentColor"/>
<path d="M12.667 8.50065C12.667 11.1673 10.8892 11.834 10.0003 11.834H4.66699" stroke="currentColor" stroke-width="1.33333" stroke-linecap="round" stroke-linejoin="round"/>
<path d="M2.66564 12.2771C2.34898 12.066 2.34898 11.6007 2.66564 11.3896L5.17083 9.71945C5.52526 9.48316 6 9.73724 6 10.1632L6 13.5035C6 13.9294 5.52526 14.1835 5.17083 13.9472L2.66564 12.2771Z" fill="currentColor"/>
</svg>
