<svg width="24" height="24" viewBox="0 0 24 24" fill="none" xmlns="http://www.w3.org/2000/svg">
<path d="M12.25 18C11.6977 18 11.25 18.4477 11.25 19C11.25 19.5523 11.6977 20 12.25 20L12.25 18ZM12.25 6C15.5637 6 18.25 8.68629 18.25 12L20.25 12C20.25 7.58172 16.6683 4 12.25 4L12.25 6ZM18.25 12C18.25 15.3137 15.5637 18 12.25 18L12.25 20C16.6683 20 20.25 16.4183 20.25 12L18.25 12ZM6.25 12C6.25 8.68629 8.93629 6 12.25 6L12.25 4C7.83172 4 4.25 7.58172 4.25 12L6.25 12Z" fill="currentColor"/>
<path d="M5.90415 15.3C5.72453 15.6111 5.27547 15.6111 5.09585 15.3L2.87306 11.45C2.69344 11.1389 2.91796 10.75 3.2772 10.75L7.7228 10.75C8.08204 10.75 8.30656 11.1389 8.12694 11.45L5.90415 15.3Z" fill="currentColor"/>
</svg>
