<svg width="24" height="24" viewBox="0 0 24 24" fill="none" xmlns="http://www.w3.org/2000/svg">
<path fill-rule="evenodd" clip-rule="evenodd" d="M2.57477 14.4868L9.51283 21.4246C10.2792 22.191 11.5217 22.191 12.2881 21.4246L21.4252 12.2878C21.7932 11.9197 22 11.4206 22 10.9002L22 3.96232C22 2.87856 21.1214 2 20.0376 2H13.0995C12.5791 2 12.08 2.20674 11.7119 2.57475L2.57477 11.7116C1.80841 12.478 1.80841 13.7205 2.57477 14.4868ZM19.6555 5.34375C19.6555 5.89603 19.2078 6.34375 18.6555 6.34375C18.1032 6.34375 17.6555 5.89603 17.6555 5.34375C17.6555 4.79147 18.1032 4.34375 18.6555 4.34375C19.2078 4.34375 19.6555 4.79147 19.6555 5.34375ZM15.7071 9.70711C16.0976 9.31658 16.0976 8.68342 15.7071 8.29289C15.3166 7.90237 14.6834 7.90237 14.2929 8.29289L8.29289 14.2929C7.90237 14.6834 7.90237 15.3166 8.29289 15.7071C8.68342 16.0976 9.31658 16.0976 9.70711 15.7071L15.7071 9.70711ZM11 9.5C11 10.3284 10.3284 11 9.5 11C8.67157 11 8 10.3284 8 9.5C8 8.67157 8.67157 8 9.5 8C10.3284 8 11 8.67157 11 9.5ZM14.5 16C15.3284 16 16 15.3284 16 14.5C16 13.6716 15.3284 13 14.5 13C13.6716 13 13 13.6716 13 14.5C13 15.3284 13.6716 16 14.5 16Z" fill="currentColor"/>
</svg>
