<svg width="24" height="24" viewBox="0 0 24 24" fill="none" xmlns="http://www.w3.org/2000/svg">
<path d="M17.3333 8.40053C18.8061 8.40053 20 7.19158 20 5.70026C20 4.20895 18.8061 3 17.3333 3C15.8606 3 14.6667 4.20895 14.6667 5.70026C14.6667 7.19158 15.8606 8.40053 17.3333 8.40053Z" fill="currentColor"/>
<path d="M6.66667 14.7003C8.13943 14.7003 9.33333 13.4913 9.33333 12C9.33333 10.5087 8.13943 9.29974 6.66667 9.29974C5.19391 9.29974 4 10.5087 4 12C4 13.4913 5.19391 14.7003 6.66667 14.7003Z" fill="currentColor"/>
<path d="M17.3333 21C18.8061 21 20 19.791 20 18.2997C20 16.8084 18.8061 15.5995 17.3333 15.5995C15.8606 15.5995 14.6667 16.8084 14.6667 18.2997C14.6667 19.791 15.8606 21 17.3333 21Z" fill="currentColor"/>
<path d="M8.96875 13.358L15.0399 16.9404M15.031 7.05831L8.96875 10.6407M20 5.70026C20 7.19158 18.8061 8.40053 17.3333 8.40053C15.8606 8.40053 14.6667 7.19158 14.6667 5.70026C14.6667 4.20895 15.8606 3 17.3333 3C18.8061 3 20 4.20895 20 5.70026ZM9.33333 12C9.33333 13.4913 8.13943 14.7003 6.66667 14.7003C5.19391 14.7003 4 13.4913 4 12C4 10.5087 5.19391 9.29974 6.66667 9.29974C8.13943 9.29974 9.33333 10.5087 9.33333 12ZM20 18.2997C20 19.7911 18.8061 21 17.3333 21C15.8606 21 14.6667 19.7911 14.6667 18.2997C14.6667 16.8084 15.8606 15.5995 17.3333 15.5995C18.8061 15.5995 20 16.8084 20 18.2997Z" stroke="currentColor" stroke-width="2" stroke-linecap="round" stroke-linejoin="round"/>
</svg>
