<svg width="24" height="24" viewBox="0 0 24 24" fill="none" xmlns="http://www.w3.org/2000/svg">
<path d="M3 7.49691V19.4585C3 19.981 3.21071 20.4822 3.58579 20.8516C3.96086 21.2211 4.46957 21.4287 5 21.4287H19C19.5304 21.4287 20.0391 21.2211 20.4142 20.8516C20.7893 20.4822 21 19.981 21 19.4585V7.49691M3 7.49691H21M3 7.49691L5.70775 3.05134C5.88924 2.75337 6.21291 2.57153 6.5618 2.57153H17.4382C17.7871 2.57153 18.1108 2.75337 18.2922 3.05134L21 7.49691M7 10.4521C7 11.7584 7.52678 13.0112 8.46447 13.9349C9.40215 14.8586 10.6739 15.3775 12 15.3775C13.3261 15.3775 14.5979 14.8586 15.5355 13.9349C16.4732 13.0112 17 11.7584 17 10.4521" stroke="currentColor" stroke-width="1.5" stroke-linecap="round" stroke-linejoin="round"/>
</svg>
