<svg width="28" height="28" viewBox="0 0 28 28" fill="none" xmlns="http://www.w3.org/2000/svg">
<path d="M7.57807 3C7.21382 3 6.87047 3.17012 6.64982 3.45993L4.94554 5.6984C4.71164 6.00561 4.93072 6.44776 5.31683 6.44776H22.6832C23.0693 6.44776 23.2884 6.00561 23.0545 5.6984L21.3502 3.45993C21.1295 3.17012 20.7862 3 20.4219 3H7.57807Z" fill="currentColor"/>
<path fill-rule="evenodd" clip-rule="evenodd" d="M3.5 22.7015V9.21294C3.5 8.9552 3.70893 8.74627 3.96667 8.74627H24.0333C24.2911 8.74627 24.5 8.9552 24.5 9.21293V22.7015C24.5 23.3111 24.2542 23.8957 23.8166 24.3268C23.379 24.7578 22.7855 25 22.1667 25H5.83333C5.21449 25 4.621 24.7578 4.18342 24.3268C3.74583 23.8957 3.5 23.3111 3.5 22.7015ZM10.5 12.194C10.5 11.5593 9.97766 11.0448 9.33333 11.0448C8.689 11.0448 8.16667 11.5593 8.16667 12.194C8.16667 13.718 8.78125 15.1796 9.87521 16.2573C10.9692 17.3349 12.4529 17.9403 14 17.9403C15.5471 17.9403 17.0308 17.3349 18.1248 16.2573C19.2188 15.1796 19.8333 13.718 19.8333 12.194C19.8333 11.5593 19.311 11.0448 18.6667 11.0448C18.0223 11.0448 17.5 11.5593 17.5 12.194C17.5 13.1084 17.1313 13.9854 16.4749 14.632C15.8185 15.2785 14.9283 15.6418 14 15.6418C13.0717 15.6418 12.1815 15.2785 11.5251 14.632C10.8687 13.9854 10.5 13.1084 10.5 12.194Z" fill="currentColor"/>
</svg>
