<svg width="32" height="32" viewBox="0 0 32 32" fill="none" xmlns="http://www.w3.org/2000/svg">
<path d="M24.3163 10.1224L21.4745 23.6889C21.4402 23.853 21.3651 24.0058 21.2562 24.1333C21.1474 24.2608 21.0082 24.3589 20.8516 24.4186C20.6949 24.4783 20.5258 24.4976 20.3597 24.4749C20.1936 24.4522 20.0358 24.388 19.901 24.2884L15.7675 21.2346L13.2632 23.5971C13.2305 23.628 13.1918 23.6521 13.1497 23.668C13.1075 23.6838 13.0625 23.6911 13.0175 23.6894C12.9725 23.6877 12.9282 23.677 12.8874 23.658C12.8465 23.639 12.8098 23.6121 12.7795 23.5787L12.7257 23.5196L13.1608 19.3087L21.0035 12.143C21.0423 12.1076 21.0665 12.059 21.0711 12.0067C21.0758 11.9544 21.0608 11.9023 21.0289 11.8605C20.997 11.8188 20.9507 11.7906 20.899 11.7813C20.8473 11.7721 20.7941 11.7826 20.7497 11.8107L10.7198 18.1588L6.40011 16.7081C6.28525 16.6695 6.18515 16.5963 6.11353 16.4986C6.04191 16.4008 6.00229 16.2833 6.0001 16.1622C5.99791 16.041 6.03325 15.9222 6.10129 15.8219C6.16933 15.7216 6.26672 15.6449 6.38011 15.6022L23.2814 9.23537C23.4117 9.18631 23.5529 9.17317 23.6901 9.19733C23.8273 9.22149 23.9555 9.28206 24.0612 9.37271C24.167 9.46336 24.2465 9.58076 24.2913 9.71264C24.3362 9.84451 24.3448 9.98602 24.3163 10.1224Z" fill="currentColor"/>
</svg>
