<svg width="32" height="32" viewBox="0 0 32 32" fill="none" xmlns="http://www.w3.org/2000/svg">
<path d="M24.1019 14.5245C22.4029 14.5245 20.7498 13.9732 19.4769 13.0402L19.4668 19.3839C19.4657 20.5594 19.1062 21.7066 18.4362 22.6724C17.7662 23.6382 16.8176 24.3768 15.717 24.7895C14.6163 25.2022 13.416 25.2694 12.2762 24.9821C11.1363 24.6949 10.1112 24.0669 9.33759 23.1819C8.56397 22.2969 8.07864 21.197 7.94637 20.029C7.8141 18.861 8.04119 17.6804 8.59732 16.6448C9.15345 15.6092 10.0122 14.7679 11.0589 14.233C12.1057 13.6982 13.2906 13.4952 14.4557 13.6514V16.7667C13.9061 16.6043 13.3193 16.6191 12.7786 16.809C12.2379 16.9988 11.7708 17.3541 11.4433 17.8244C11.1159 18.2947 10.9448 18.8561 10.9544 19.4291C10.964 20.0021 11.1538 20.5575 11.4968 21.0166C11.8398 21.4757 12.3186 21.8151 12.8654 21.9867C13.4121 22.1584 13.999 22.1535 14.5429 21.9728C15.0867 21.7922 15.5598 21.4448 15.8952 20.9802C16.2305 20.5155 16.4111 19.957 16.4112 19.3839V6.83398H19.6159C19.6159 7.42307 19.7319 8.0064 19.9573 8.55065C20.1828 9.09489 20.5132 9.58941 20.9297 10.006C21.3463 10.4225 21.8408 10.7529 22.3851 10.9784C22.9293 11.2038 23.5126 11.3198 24.1017 11.3198L24.1019 14.5245Z" fill="currentColor"/>
</svg>
