<svg width="32" height="32" viewBox="0 0 32 32" fill="none" xmlns="http://www.w3.org/2000/svg">
<path d="M17.1932 22.1597C22.8555 19.5746 23.0134 13.6086 22.9947 12.4154C22.9947 12.4154 24.3974 11.3416 24.7503 10.566C24.7503 10.566 23.7059 11.0234 22.7961 11.1229C22.7961 11.1229 23.8001 10.5859 24.2774 9.13419C24.2774 9.13419 23.0742 9.89956 21.9506 9.94956C21.9506 9.94956 20.8576 8.83594 19.3807 8.83594C17.9038 8.83594 15.8011 10.0291 15.8011 12.4154C15.7998 12.7173 15.8311 13.0184 15.8944 13.3136C15.8944 13.3136 11.4261 13.2109 8.44319 9.53194C8.44319 9.53194 6.82044 12.3757 9.47194 14.2847C9.47194 14.2847 8.756 14.3709 7.94069 13.8871C7.94069 13.8871 7.86781 16.6713 10.7314 17.4401C10.7314 17.4401 10.0984 17.6953 9.18356 17.5362C9.18356 17.5362 9.92931 19.9226 12.4947 20.0319C12.4947 20.0319 10.4172 21.8217 7.25 21.5234C7.25 21.5234 11.5309 24.7449 17.1932 22.1597Z" fill="currentColor"/>
</svg>
