<svg width="24" height="24" viewBox="0 0 24 24" fill="none" xmlns="http://www.w3.org/2000/svg">
<path fill-rule="evenodd" clip-rule="evenodd" d="M2 6C2 3.79086 3.79086 2 6 2H18C20.2091 2 22 3.79086 22 6V18C22 20.2091 20.2091 22 18 22H6C3.79086 22 2 20.2091 2 18V6ZM13 13V8.41421L14.2929 9.70711C14.6834 10.0976 15.3166 10.0976 15.7071 9.70711C16.0976 9.31658 16.0976 8.68342 15.7071 8.29289L12.7071 5.29289C12.3166 4.90237 11.6834 4.90237 11.2929 5.29289L8.29289 8.29289C7.90237 8.68342 7.90237 9.31658 8.29289 9.70711C8.68342 10.0976 9.31658 10.0976 9.70711 9.70711L11 8.41421V13C11 13.5523 11.4477 14 12 14C12.5523 14 13 13.5523 13 13ZM7 13C7 12.4477 6.55228 12 6 12C5.44772 12 5 12.4477 5 13V17C5 18.1046 5.89543 19 7 19H17C18.1046 19 19 18.1046 19 17V13C19 12.4477 18.5523 12 18 12C17.4477 12 17 12.4477 17 13V17H7V13Z" fill="currentColor"/>
</svg>
