<svg width="76" height="36" viewBox="0 0 76 36" fill="none" xmlns="http://www.w3.org/2000/svg">
<g clip-path="url(#clip0_552_66715)">
<rect width="76" height="36" rx="8" fill="white"/>
<g clip-path="url(#clip1_552_66715)">
<path d="M39.0558 14.837C38.9971 17.4273 41.4005 18.8663 43.2176 19.7297C45.0348 20.5931 45.6795 21.1688 45.6795 21.9746C45.6795 23.1834 44.2141 23.7014 42.8659 23.759C40.4626 23.8166 39.1144 23.1258 38.0006 22.6078L37.1214 26.522C38.2351 27.04 40.2867 27.4429 42.3969 27.5005C47.3794 27.5005 50.6034 25.0829 50.662 21.3414C50.662 16.6214 43.9796 16.3336 44.0383 14.2039C44.0383 13.5707 44.683 12.8799 46.0313 12.7073C46.7347 12.5921 48.5518 12.5346 50.7207 13.5131L51.5413 9.71407C50.4276 9.31114 48.9621 8.9082 47.0864 8.9082C42.3969 8.9082 39.0558 11.3833 39.0558 14.837ZM59.4547 9.25357C58.5754 9.25357 57.7548 9.77163 57.4617 10.5775L50.369 27.2127H55.3515L56.348 24.5073H62.4442L63.0304 27.2127H67.4267L63.6165 9.25357H59.4547ZM60.1581 14.0887L61.5649 20.8234H57.6375L60.1581 14.0887ZM33.0181 9.25357L29.0908 27.2127H33.8388L37.7662 9.25357H33.0181ZM26.0426 9.25357L21.1187 21.4566L19.1257 11.038C18.8913 9.88675 17.9534 9.19601 16.9569 9.19601H8.92632L8.80908 9.71407C10.4504 10.0594 12.3261 10.635 13.4985 11.2682C14.2019 11.6136 14.3778 11.959 14.6122 12.8224L18.3638 27.1551H23.3462L31.0251 9.19601L26.0426 9.25357Z" fill="#0D3270"/>
</g>
</g>
<defs>
<clipPath id="clip0_552_66715">
<rect width="76" height="36" rx="8" fill="white"/>
</clipPath>
<clipPath id="clip1_552_66715">
<rect width="59" height="19" fill="white" transform="translate(8.5 8.5)"/>
</clipPath>
</defs>
</svg>
