<svg width="75" height="36" viewBox="0 0 75 36" fill="none" xmlns="http://www.w3.org/2000/svg">
<g clip-path="url(#clip0_552_66704)">
<path d="M38.5558 14.837C38.4971 17.4273 40.9005 18.8663 42.7176 19.7297C44.5348 20.5931 45.1795 21.1688 45.1795 21.9746C45.1795 23.1834 43.7141 23.7014 42.3659 23.759C39.9626 23.8166 38.6144 23.1258 37.5006 22.6078L36.6214 26.522C37.7351 27.04 39.7867 27.4429 41.8969 27.5005C46.8794 27.5005 50.1034 25.0829 50.162 21.3414C50.162 16.6214 43.4796 16.3336 43.5383 14.2039C43.5383 13.5707 44.183 12.8799 45.5313 12.7073C46.2347 12.5921 48.0518 12.5346 50.2207 13.5131L51.0413 9.71407C49.9276 9.31114 48.4621 8.9082 46.5864 8.9082C41.8969 8.9082 38.5558 11.3833 38.5558 14.837ZM58.9547 9.25357C58.0754 9.25357 57.2548 9.77163 56.9617 10.5775L49.869 27.2127H54.8515L55.848 24.5073H61.9442L62.5304 27.2127H66.9267L63.1165 9.25357H58.9547ZM59.6581 14.0887L61.0649 20.8234H57.1375L59.6581 14.0887ZM32.5181 9.25357L28.5908 27.2127H33.3388L37.2662 9.25357H32.5181ZM25.5426 9.25357L20.6187 21.4566L18.6257 11.038C18.3913 9.88675 17.4534 9.19601 16.4569 9.19601H8.42632L8.30908 9.71407C9.95037 10.0594 11.8261 10.635 12.9985 11.2682C13.7019 11.6136 13.8778 11.959 14.1122 12.8224L17.8638 27.1551H22.8462L30.5251 9.19601L25.5426 9.25357Z" fill="white"/>
</g>
<defs>
<clipPath id="clip0_552_66704">
<rect width="59" height="19" fill="white" transform="translate(8 8.5)"/>
</clipPath>
</defs>
</svg>
