<svg width="32" height="32" viewBox="0 0 32 32" fill="none" xmlns="http://www.w3.org/2000/svg">
<path d="M24.5217 21.4309H22.4914C22.2715 21.4311 22.0544 21.3818 21.8561 21.2866C21.6579 21.1913 21.4837 21.0527 21.3465 20.8809C20.7376 20.1164 19.5381 18.761 18.2787 18.1788C18.2057 18.1447 18.1254 18.1294 18.045 18.1346C17.9646 18.1397 17.8868 18.165 17.8188 18.2082C17.7508 18.2514 17.6948 18.311 17.6559 18.3815C17.6171 18.4521 17.5966 18.5313 17.5964 18.6118V20.6198C17.5965 20.7263 17.5755 20.8318 17.5348 20.9302C17.494 21.0286 17.4343 21.118 17.359 21.1933C17.2837 21.2686 17.1943 21.3284 17.0959 21.3691C16.9975 21.4099 16.8921 21.4309 16.7856 21.4309H15.8468C14.6259 21.4309 11.9968 20.6877 9.90182 17.6359C8.11682 15.0359 7.32113 13.0209 6.85713 11.3872C6.83015 11.2914 6.82573 11.1907 6.84422 11.093C6.86271 10.9952 6.9036 10.9031 6.96369 10.8238C7.02377 10.7445 7.10141 10.6802 7.19052 10.636C7.27963 10.5918 7.37777 10.5688 7.47725 10.5689H9.53113C9.73604 10.5687 9.93553 10.6347 10.0999 10.757C10.2643 10.8793 10.3849 11.0514 10.4436 11.2477C10.8256 12.5251 11.8148 15.2808 13.5634 16.653C13.6168 16.6951 13.6808 16.7212 13.7483 16.7286C13.8158 16.7359 13.884 16.7241 13.9451 16.6945C14.0062 16.6649 14.0577 16.6187 14.0938 16.5612C14.1299 16.5037 14.1491 16.4372 14.1491 16.3693V13.1527C14.1491 12.517 13.8736 11.881 13.4436 11.3839C13.3817 11.3126 13.3415 11.225 13.328 11.1315C13.3144 11.0381 13.328 10.9427 13.3672 10.8567C13.4064 10.7708 13.4695 10.6979 13.5489 10.6468C13.6283 10.5957 13.7208 10.5685 13.8153 10.5685H16.9819C17.1449 10.5685 17.3013 10.6333 17.4166 10.7486C17.5319 10.8639 17.5967 11.0203 17.5968 11.1834V15.5162C17.5968 15.5789 17.614 15.6404 17.6467 15.694C17.6793 15.7475 17.7261 15.7911 17.7818 15.8198C17.8375 15.8486 17.9001 15.8615 17.9627 15.857C18.0252 15.8526 18.0854 15.831 18.1365 15.7947C18.7178 15.3809 19.2156 14.7697 19.6734 14.0826C20.2497 13.2184 20.9529 11.7897 21.3056 11.0483C21.3739 10.9047 21.4815 10.7833 21.616 10.6984C21.7504 10.6134 21.9062 10.5684 22.0653 10.5684H24.3053C24.3988 10.5683 24.4908 10.5922 24.5725 10.6376C24.6543 10.6831 24.723 10.7487 24.7723 10.8282C24.8216 10.9077 24.8498 10.9985 24.8541 11.0919C24.8585 11.1853 24.839 11.2784 24.7973 11.3621C24.2321 12.4959 23.1311 14.5757 22.0951 15.796C21.9468 15.9715 21.8742 16.1986 21.8932 16.4276C21.9123 16.6566 22.0213 16.8686 22.1966 17.0172C22.8719 17.5942 23.9261 18.661 25.0628 20.4378C25.1255 20.5351 25.1608 20.6474 25.1651 20.763C25.1693 20.8787 25.1424 20.9933 25.087 21.0949C25.0316 21.1966 24.9499 21.2814 24.8505 21.3405C24.751 21.3996 24.6374 21.4308 24.5217 21.4309Z" fill="currentColor"/>
</svg>
