<svg width="32" height="32" viewBox="0 0 32 32" fill="none" xmlns="http://www.w3.org/2000/svg">
<path d="M16.4392 7.99219C15.0719 7.99226 13.7305 8.36472 12.559 9.06957C11.3874 9.77442 10.43 10.7851 9.78939 11.993C9.14882 13.2009 8.84933 14.5604 8.92307 15.9257C8.99681 17.2909 9.44099 18.6103 10.2079 19.7422L9.47238 22.58L12.4299 21.8899C13.4173 22.5112 14.5356 22.8945 15.6966 23.0095C16.8575 23.1245 18.0293 22.9681 19.1194 22.5526C20.2095 22.1371 21.1881 21.4739 21.978 20.6154C22.7678 19.7568 23.3473 18.7264 23.6707 17.6055C23.994 16.4846 24.0524 15.3039 23.8412 14.1566C23.63 13.0092 23.155 11.9267 22.4537 10.9944C21.7524 10.0621 20.844 9.30559 19.8002 8.78456C18.7564 8.26354 17.6058 7.99228 16.4392 7.99219ZM20.1404 19.6288C19.0876 20.1226 16.8896 19.8649 14.5739 17.8832C12.2582 15.9014 11.6642 13.7694 11.9892 12.6531C12.3142 11.5367 13.5911 11.3304 13.8319 11.3838C14.0728 11.4371 15.2773 13.3466 15.1132 13.5694C14.9491 13.7921 14.1563 14.585 14.1563 14.585C14.1563 14.585 14.1229 15.3962 15.6115 16.6702C17.1001 17.9443 17.8965 17.7859 17.8965 17.7859C17.8965 17.7859 18.5574 16.8797 18.7521 16.6835C18.9468 16.4873 21.0196 17.3823 21.1094 17.6121C21.1993 17.8418 21.1929 19.1353 20.1401 19.6288H20.1404Z" fill="currentColor"/>
</svg>
