<svg width="30" height="30" viewBox="0 0 30 30" fill="none" xmlns="http://www.w3.org/2000/svg">
<path d="M23.9878 10.4972C23.8836 10.0969 23.6747 9.73138 23.3823 9.43792C23.09 9.14447 22.7247 8.93363 22.3238 8.82695C19.8935 8.54124 17.4471 8.41248 15 8.4415C12.5529 8.41248 10.1065 8.54124 7.67616 8.82695C7.2753 8.93363 6.91003 9.14447 6.61768 9.43792C6.32534 9.73138 6.11638 10.0969 6.01218 10.4972C5.74595 11.9853 5.61652 13.4944 5.62548 15.0058C5.61607 16.5251 5.7455 18.042 6.01218 19.5378C6.12178 19.9316 6.33314 20.2899 6.62512 20.5769C6.91711 20.8638 7.27952 21.0694 7.67616 21.173C10.1065 21.4588 12.5529 21.5875 15 21.5585C17.4471 21.5875 19.8935 21.4588 22.3238 21.173C22.7205 21.0694 23.0829 20.8638 23.3749 20.5769C23.6669 20.2899 23.8782 19.9316 23.9878 19.5378C24.2545 18.042 24.3839 16.5251 24.3745 15.0058C24.3835 13.4944 24.254 11.9853 23.9878 10.4972ZM13.0782 17.7974V12.2376L17.9881 15.0058L13.0782 17.7858V17.7974Z" fill="white"/>
</svg>
